G04 #@! TF.GenerationSoftware,KiCad,Pcbnew,(5.0.2)-1*
G04 #@! TF.CreationDate,2021-01-16T16:16:25+09:00*
G04 #@! TF.ProjectId,LEMCurrentSensor,4c454d43-7572-4726-956e-7453656e736f,rev?*
G04 #@! TF.SameCoordinates,Original*
G04 #@! TF.FileFunction,Soldermask,Bot*
G04 #@! TF.FilePolarity,Negative*
%FSLAX46Y46*%
G04 Gerber Fmt 4.6, Leading zero omitted, Abs format (unit mm)*
G04 Created by KiCad (PCBNEW (5.0.2)-1) date 2021/01/16 16:16:25*
%MOMM*%
%LPD*%
G01*
G04 APERTURE LIST*
%ADD10C,0.100000*%
G04 APERTURE END LIST*
D10*
G36*
X101975256Y-54991298D02*
X102081579Y-55012447D01*
X102382042Y-55136903D01*
X102648852Y-55315180D01*
X102652454Y-55317587D01*
X102882413Y-55547546D01*
X103063098Y-55817960D01*
X103187553Y-56118422D01*
X103251000Y-56437389D01*
X103251000Y-56762611D01*
X103187553Y-57081578D01*
X103063098Y-57382040D01*
X102882413Y-57652454D01*
X102652454Y-57882413D01*
X102652451Y-57882415D01*
X102382042Y-58063097D01*
X102081579Y-58187553D01*
X101975256Y-58208702D01*
X101762611Y-58251000D01*
X101437389Y-58251000D01*
X101224744Y-58208702D01*
X101118421Y-58187553D01*
X100817958Y-58063097D01*
X100547549Y-57882415D01*
X100547546Y-57882413D01*
X100317587Y-57652454D01*
X100136902Y-57382040D01*
X100012447Y-57081578D01*
X99949000Y-56762611D01*
X99949000Y-56437389D01*
X100012447Y-56118422D01*
X100136902Y-55817960D01*
X100317587Y-55547546D01*
X100547546Y-55317587D01*
X100551148Y-55315180D01*
X100817958Y-55136903D01*
X101118421Y-55012447D01*
X101224744Y-54991298D01*
X101437389Y-54949000D01*
X101762611Y-54949000D01*
X101975256Y-54991298D01*
X101975256Y-54991298D01*
G37*
G36*
X68775256Y-54991298D02*
X68881579Y-55012447D01*
X69182042Y-55136903D01*
X69448852Y-55315180D01*
X69452454Y-55317587D01*
X69682413Y-55547546D01*
X69863098Y-55817960D01*
X69987553Y-56118422D01*
X70051000Y-56437389D01*
X70051000Y-56762611D01*
X69987553Y-57081578D01*
X69863098Y-57382040D01*
X69682413Y-57652454D01*
X69452454Y-57882413D01*
X69452451Y-57882415D01*
X69182042Y-58063097D01*
X68881579Y-58187553D01*
X68775256Y-58208702D01*
X68562611Y-58251000D01*
X68237389Y-58251000D01*
X68024744Y-58208702D01*
X67918421Y-58187553D01*
X67617958Y-58063097D01*
X67347549Y-57882415D01*
X67347546Y-57882413D01*
X67117587Y-57652454D01*
X66936902Y-57382040D01*
X66812447Y-57081578D01*
X66749000Y-56762611D01*
X66749000Y-56437389D01*
X66812447Y-56118422D01*
X66936902Y-55817960D01*
X67117587Y-55547546D01*
X67347546Y-55317587D01*
X67351148Y-55315180D01*
X67617958Y-55136903D01*
X67918421Y-55012447D01*
X68024744Y-54991298D01*
X68237389Y-54949000D01*
X68562611Y-54949000D01*
X68775256Y-54991298D01*
X68775256Y-54991298D01*
G37*
G36*
X85132004Y-49260544D02*
X85219059Y-49277860D01*
X85355732Y-49334472D01*
X85355733Y-49334473D01*
X85478738Y-49416662D01*
X85583338Y-49521262D01*
X85583340Y-49521265D01*
X85665528Y-49644268D01*
X85722140Y-49780941D01*
X85751000Y-49926033D01*
X85751000Y-50073967D01*
X85722140Y-50219059D01*
X85665528Y-50355732D01*
X85665527Y-50355733D01*
X85583338Y-50478738D01*
X85478738Y-50583338D01*
X85478735Y-50583340D01*
X85355732Y-50665528D01*
X85219059Y-50722140D01*
X85132004Y-50739456D01*
X85073969Y-50751000D01*
X84926031Y-50751000D01*
X84867996Y-50739456D01*
X84780941Y-50722140D01*
X84644268Y-50665528D01*
X84521265Y-50583340D01*
X84521262Y-50583338D01*
X84416662Y-50478738D01*
X84334473Y-50355733D01*
X84334472Y-50355732D01*
X84277860Y-50219059D01*
X84249000Y-50073967D01*
X84249000Y-49926033D01*
X84277860Y-49780941D01*
X84334472Y-49644268D01*
X84416660Y-49521265D01*
X84416662Y-49521262D01*
X84521262Y-49416662D01*
X84644267Y-49334473D01*
X84644268Y-49334472D01*
X84780941Y-49277860D01*
X84867996Y-49260544D01*
X84926031Y-49249000D01*
X85073969Y-49249000D01*
X85132004Y-49260544D01*
X85132004Y-49260544D01*
G37*
G36*
X100632004Y-47260544D02*
X100719059Y-47277860D01*
X100855732Y-47334472D01*
X100855733Y-47334473D01*
X100978738Y-47416662D01*
X101083338Y-47521262D01*
X101083340Y-47521265D01*
X101165528Y-47644268D01*
X101222140Y-47780941D01*
X101251000Y-47926033D01*
X101251000Y-48073967D01*
X101222140Y-48219059D01*
X101165528Y-48355732D01*
X101165527Y-48355733D01*
X101083338Y-48478738D01*
X100978738Y-48583338D01*
X100978735Y-48583340D01*
X100855732Y-48665528D01*
X100719059Y-48722140D01*
X100632004Y-48739456D01*
X100573969Y-48751000D01*
X100426031Y-48751000D01*
X100367996Y-48739456D01*
X100280941Y-48722140D01*
X100144268Y-48665528D01*
X100021265Y-48583340D01*
X100021262Y-48583338D01*
X99916662Y-48478738D01*
X99834473Y-48355733D01*
X99834472Y-48355732D01*
X99777860Y-48219059D01*
X99749000Y-48073967D01*
X99749000Y-47926033D01*
X99777860Y-47780941D01*
X99834472Y-47644268D01*
X99916660Y-47521265D01*
X99916662Y-47521262D01*
X100021262Y-47416662D01*
X100144267Y-47334473D01*
X100144268Y-47334472D01*
X100280941Y-47277860D01*
X100367996Y-47260544D01*
X100426031Y-47249000D01*
X100573969Y-47249000D01*
X100632004Y-47260544D01*
X100632004Y-47260544D01*
G37*
G36*
X73116232Y-44113483D02*
X73304919Y-44170721D01*
X73478817Y-44263671D01*
X73631239Y-44388761D01*
X73756329Y-44541183D01*
X73849279Y-44715082D01*
X73906517Y-44903769D01*
X73921000Y-45050825D01*
X73921000Y-45749176D01*
X73906517Y-45896232D01*
X73849279Y-46084919D01*
X73756329Y-46258817D01*
X73631239Y-46411239D01*
X73478817Y-46536329D01*
X73304918Y-46629279D01*
X73116231Y-46686517D01*
X72920000Y-46705843D01*
X72723768Y-46686517D01*
X72535081Y-46629279D01*
X72361183Y-46536329D01*
X72208761Y-46411239D01*
X72083671Y-46258817D01*
X71990721Y-46084918D01*
X71933483Y-45896231D01*
X71919000Y-45749175D01*
X71919000Y-45050824D01*
X71933483Y-44903768D01*
X71990722Y-44715081D01*
X72083672Y-44541183D01*
X72208762Y-44388761D01*
X72361184Y-44263671D01*
X72535082Y-44170721D01*
X72723769Y-44113483D01*
X72920000Y-44094157D01*
X73116232Y-44113483D01*
X73116232Y-44113483D01*
G37*
G36*
X75656232Y-44113483D02*
X75844919Y-44170721D01*
X76018817Y-44263671D01*
X76171239Y-44388761D01*
X76296329Y-44541183D01*
X76389279Y-44715082D01*
X76446517Y-44903769D01*
X76461000Y-45050825D01*
X76461000Y-45749176D01*
X76446517Y-45896232D01*
X76389279Y-46084919D01*
X76296329Y-46258817D01*
X76171239Y-46411239D01*
X76018817Y-46536329D01*
X75844918Y-46629279D01*
X75656231Y-46686517D01*
X75460000Y-46705843D01*
X75263768Y-46686517D01*
X75075081Y-46629279D01*
X74901183Y-46536329D01*
X74748761Y-46411239D01*
X74623671Y-46258817D01*
X74530721Y-46084918D01*
X74473483Y-45896231D01*
X74459000Y-45749175D01*
X74459000Y-45050824D01*
X74473483Y-44903768D01*
X74530722Y-44715081D01*
X74623672Y-44541183D01*
X74748762Y-44388761D01*
X74901184Y-44263671D01*
X75075082Y-44170721D01*
X75263769Y-44113483D01*
X75460000Y-44094157D01*
X75656232Y-44113483D01*
X75656232Y-44113483D01*
G37*
G36*
X78874915Y-44102600D02*
X78904154Y-44111470D01*
X78931114Y-44125880D01*
X78954735Y-44145265D01*
X78974120Y-44168886D01*
X78988530Y-44195846D01*
X78997400Y-44225085D01*
X79001000Y-44261640D01*
X79001000Y-46538360D01*
X78997400Y-46574915D01*
X78988530Y-46604154D01*
X78974120Y-46631114D01*
X78954735Y-46654735D01*
X78931114Y-46674120D01*
X78904154Y-46688530D01*
X78874915Y-46697400D01*
X78838360Y-46701000D01*
X77161640Y-46701000D01*
X77125085Y-46697400D01*
X77095846Y-46688530D01*
X77068886Y-46674120D01*
X77045265Y-46654735D01*
X77025880Y-46631114D01*
X77011470Y-46604154D01*
X77002600Y-46574915D01*
X76999000Y-46538360D01*
X76999000Y-44261640D01*
X77002600Y-44225085D01*
X77011470Y-44195846D01*
X77025880Y-44168886D01*
X77045265Y-44145265D01*
X77068886Y-44125880D01*
X77095846Y-44111470D01*
X77125085Y-44102600D01*
X77161640Y-44099000D01*
X78838360Y-44099000D01*
X78874915Y-44102600D01*
X78874915Y-44102600D01*
G37*
G36*
X103310443Y-41185519D02*
X103376627Y-41192037D01*
X103489853Y-41226384D01*
X103546467Y-41243557D01*
X103685087Y-41317652D01*
X103702991Y-41327222D01*
X103738729Y-41356552D01*
X103840186Y-41439814D01*
X103923448Y-41541271D01*
X103952778Y-41577009D01*
X103952779Y-41577011D01*
X104036443Y-41733533D01*
X104036443Y-41733534D01*
X104087963Y-41903373D01*
X104105359Y-42080000D01*
X104087963Y-42256627D01*
X104053616Y-42369853D01*
X104036443Y-42426467D01*
X104028618Y-42441106D01*
X103952778Y-42582991D01*
X103934970Y-42604690D01*
X103840186Y-42720186D01*
X103738729Y-42803448D01*
X103702991Y-42832778D01*
X103702989Y-42832779D01*
X103546467Y-42916443D01*
X103489853Y-42933616D01*
X103376627Y-42967963D01*
X103310442Y-42974482D01*
X103244260Y-42981000D01*
X103155740Y-42981000D01*
X103089557Y-42974481D01*
X103023373Y-42967963D01*
X102910147Y-42933616D01*
X102853533Y-42916443D01*
X102697011Y-42832779D01*
X102697009Y-42832778D01*
X102661271Y-42803448D01*
X102559814Y-42720186D01*
X102465030Y-42604690D01*
X102447222Y-42582991D01*
X102371382Y-42441106D01*
X102363557Y-42426467D01*
X102346384Y-42369853D01*
X102312037Y-42256627D01*
X102294641Y-42080000D01*
X102312037Y-41903373D01*
X102363557Y-41733534D01*
X102363557Y-41733533D01*
X102447221Y-41577011D01*
X102447222Y-41577009D01*
X102476552Y-41541271D01*
X102559814Y-41439814D01*
X102661271Y-41356552D01*
X102697009Y-41327222D01*
X102714913Y-41317652D01*
X102853533Y-41243557D01*
X102910147Y-41226384D01*
X103023373Y-41192037D01*
X103089557Y-41185519D01*
X103155740Y-41179000D01*
X103244260Y-41179000D01*
X103310443Y-41185519D01*
X103310443Y-41185519D01*
G37*
G36*
X85793665Y-41160122D02*
X85867222Y-41167367D01*
X86008786Y-41210310D01*
X86139252Y-41280046D01*
X86253606Y-41373894D01*
X86347454Y-41488248D01*
X86417190Y-41618714D01*
X86460133Y-41760278D01*
X86474633Y-41907500D01*
X86460133Y-42054722D01*
X86417190Y-42196286D01*
X86347454Y-42326752D01*
X86253606Y-42441106D01*
X86139252Y-42534954D01*
X86008786Y-42604690D01*
X85867222Y-42647633D01*
X85793665Y-42654878D01*
X85756888Y-42658500D01*
X85483112Y-42658500D01*
X85446335Y-42654878D01*
X85372778Y-42647633D01*
X85231214Y-42604690D01*
X85100748Y-42534954D01*
X84986394Y-42441106D01*
X84892546Y-42326752D01*
X84822810Y-42196286D01*
X84779867Y-42054722D01*
X84765367Y-41907500D01*
X84779867Y-41760278D01*
X84822810Y-41618714D01*
X84892546Y-41488248D01*
X84986394Y-41373894D01*
X85100748Y-41280046D01*
X85231214Y-41210310D01*
X85372778Y-41167367D01*
X85446335Y-41160122D01*
X85483112Y-41156500D01*
X85756888Y-41156500D01*
X85793665Y-41160122D01*
X85793665Y-41160122D01*
G37*
G36*
X85793665Y-39255122D02*
X85867222Y-39262367D01*
X86008786Y-39305310D01*
X86139252Y-39375046D01*
X86253606Y-39468894D01*
X86347454Y-39583248D01*
X86417190Y-39713714D01*
X86460133Y-39855278D01*
X86474633Y-40002500D01*
X86460133Y-40149722D01*
X86417190Y-40291286D01*
X86347454Y-40421752D01*
X86253606Y-40536106D01*
X86139252Y-40629954D01*
X86008786Y-40699690D01*
X85867222Y-40742633D01*
X85793665Y-40749878D01*
X85756888Y-40753500D01*
X85483112Y-40753500D01*
X85446335Y-40749878D01*
X85372778Y-40742633D01*
X85231214Y-40699690D01*
X85100748Y-40629954D01*
X84986394Y-40536106D01*
X84892546Y-40421752D01*
X84822810Y-40291286D01*
X84779867Y-40149722D01*
X84765367Y-40002500D01*
X84779867Y-39855278D01*
X84822810Y-39713714D01*
X84892546Y-39583248D01*
X84986394Y-39468894D01*
X85100748Y-39375046D01*
X85231214Y-39305310D01*
X85372778Y-39262367D01*
X85446335Y-39255122D01*
X85483112Y-39251500D01*
X85756888Y-39251500D01*
X85793665Y-39255122D01*
X85793665Y-39255122D01*
G37*
G36*
X103310443Y-38645519D02*
X103376627Y-38652037D01*
X103489853Y-38686384D01*
X103546467Y-38703557D01*
X103586497Y-38724954D01*
X103702991Y-38787222D01*
X103738729Y-38816552D01*
X103840186Y-38899814D01*
X103923448Y-39001271D01*
X103952778Y-39037009D01*
X103952779Y-39037011D01*
X104036443Y-39193533D01*
X104036443Y-39193534D01*
X104087963Y-39363373D01*
X104105359Y-39540000D01*
X104087963Y-39716627D01*
X104053616Y-39829853D01*
X104036443Y-39886467D01*
X103974421Y-40002500D01*
X103952778Y-40042991D01*
X103923448Y-40078729D01*
X103840186Y-40180186D01*
X103738729Y-40263448D01*
X103702991Y-40292778D01*
X103702989Y-40292779D01*
X103546467Y-40376443D01*
X103489853Y-40393616D01*
X103376627Y-40427963D01*
X103310442Y-40434482D01*
X103244260Y-40441000D01*
X103155740Y-40441000D01*
X103089558Y-40434482D01*
X103023373Y-40427963D01*
X102910147Y-40393616D01*
X102853533Y-40376443D01*
X102697011Y-40292779D01*
X102697009Y-40292778D01*
X102661271Y-40263448D01*
X102559814Y-40180186D01*
X102476552Y-40078729D01*
X102447222Y-40042991D01*
X102425579Y-40002500D01*
X102363557Y-39886467D01*
X102346384Y-39829853D01*
X102312037Y-39716627D01*
X102294641Y-39540000D01*
X102312037Y-39363373D01*
X102363557Y-39193534D01*
X102363557Y-39193533D01*
X102447221Y-39037011D01*
X102447222Y-39037009D01*
X102476552Y-39001271D01*
X102559814Y-38899814D01*
X102661271Y-38816552D01*
X102697009Y-38787222D01*
X102813503Y-38724954D01*
X102853533Y-38703557D01*
X102910147Y-38686384D01*
X103023373Y-38652037D01*
X103089557Y-38645519D01*
X103155740Y-38639000D01*
X103244260Y-38639000D01*
X103310443Y-38645519D01*
X103310443Y-38645519D01*
G37*
G36*
X85793665Y-37350122D02*
X85867222Y-37357367D01*
X86008786Y-37400310D01*
X86139252Y-37470046D01*
X86253606Y-37563894D01*
X86347454Y-37678248D01*
X86417190Y-37808714D01*
X86460133Y-37950278D01*
X86474633Y-38097500D01*
X86460133Y-38244722D01*
X86417190Y-38386286D01*
X86347454Y-38516752D01*
X86253606Y-38631106D01*
X86139252Y-38724954D01*
X86008786Y-38794690D01*
X85867222Y-38837633D01*
X85793665Y-38844878D01*
X85756888Y-38848500D01*
X85483112Y-38848500D01*
X85446335Y-38844878D01*
X85372778Y-38837633D01*
X85231214Y-38794690D01*
X85100748Y-38724954D01*
X84986394Y-38631106D01*
X84892546Y-38516752D01*
X84822810Y-38386286D01*
X84779867Y-38244722D01*
X84765367Y-38097500D01*
X84779867Y-37950278D01*
X84822810Y-37808714D01*
X84892546Y-37678248D01*
X84986394Y-37563894D01*
X85100748Y-37470046D01*
X85231214Y-37400310D01*
X85372778Y-37357367D01*
X85446335Y-37350122D01*
X85483112Y-37346500D01*
X85756888Y-37346500D01*
X85793665Y-37350122D01*
X85793665Y-37350122D01*
G37*
G36*
X104101000Y-37901000D02*
X102299000Y-37901000D01*
X102299000Y-36099000D01*
X104101000Y-36099000D01*
X104101000Y-37901000D01*
X104101000Y-37901000D01*
G37*
G36*
X85793665Y-35445122D02*
X85867222Y-35452367D01*
X86008786Y-35495310D01*
X86139252Y-35565046D01*
X86253606Y-35658894D01*
X86347454Y-35773248D01*
X86417190Y-35903714D01*
X86460133Y-36045278D01*
X86474633Y-36192500D01*
X86460133Y-36339722D01*
X86417190Y-36481286D01*
X86347454Y-36611752D01*
X86253606Y-36726106D01*
X86139252Y-36819954D01*
X86008786Y-36889690D01*
X85867222Y-36932633D01*
X85793665Y-36939878D01*
X85756888Y-36943500D01*
X85483112Y-36943500D01*
X85446335Y-36939878D01*
X85372778Y-36932633D01*
X85231214Y-36889690D01*
X85100748Y-36819954D01*
X84986394Y-36726106D01*
X84892546Y-36611752D01*
X84822810Y-36481286D01*
X84779867Y-36339722D01*
X84765367Y-36192500D01*
X84779867Y-36045278D01*
X84822810Y-35903714D01*
X84892546Y-35773248D01*
X84986394Y-35658894D01*
X85100748Y-35565046D01*
X85231214Y-35495310D01*
X85372778Y-35452367D01*
X85446335Y-35445122D01*
X85483112Y-35441500D01*
X85756888Y-35441500D01*
X85793665Y-35445122D01*
X85793665Y-35445122D01*
G37*
G36*
X75656232Y-31413483D02*
X75844919Y-31470721D01*
X76018817Y-31563671D01*
X76171239Y-31688761D01*
X76296329Y-31841183D01*
X76389279Y-32015082D01*
X76446517Y-32203769D01*
X76461000Y-32350825D01*
X76461000Y-33049176D01*
X76446517Y-33196232D01*
X76389279Y-33384919D01*
X76296329Y-33558817D01*
X76171239Y-33711239D01*
X76018817Y-33836329D01*
X75844918Y-33929279D01*
X75656231Y-33986517D01*
X75460000Y-34005843D01*
X75263768Y-33986517D01*
X75075081Y-33929279D01*
X74901183Y-33836329D01*
X74748761Y-33711239D01*
X74623671Y-33558817D01*
X74530721Y-33384918D01*
X74473483Y-33196231D01*
X74459000Y-33049175D01*
X74459000Y-32350824D01*
X74473483Y-32203768D01*
X74530722Y-32015081D01*
X74623672Y-31841183D01*
X74748762Y-31688761D01*
X74901184Y-31563671D01*
X75075082Y-31470721D01*
X75263769Y-31413483D01*
X75460000Y-31394157D01*
X75656232Y-31413483D01*
X75656232Y-31413483D01*
G37*
G36*
X78196232Y-31413483D02*
X78384919Y-31470721D01*
X78558817Y-31563671D01*
X78711239Y-31688761D01*
X78836329Y-31841183D01*
X78929279Y-32015082D01*
X78986517Y-32203769D01*
X79001000Y-32350825D01*
X79001000Y-33049176D01*
X78986517Y-33196232D01*
X78929279Y-33384919D01*
X78836329Y-33558817D01*
X78711239Y-33711239D01*
X78558817Y-33836329D01*
X78384918Y-33929279D01*
X78196231Y-33986517D01*
X78000000Y-34005843D01*
X77803768Y-33986517D01*
X77615081Y-33929279D01*
X77441183Y-33836329D01*
X77288761Y-33711239D01*
X77163671Y-33558817D01*
X77070721Y-33384918D01*
X77013483Y-33196231D01*
X76999000Y-33049175D01*
X76999000Y-32350824D01*
X77013483Y-32203768D01*
X77070722Y-32015081D01*
X77163672Y-31841183D01*
X77288762Y-31688761D01*
X77441184Y-31563671D01*
X77615082Y-31470721D01*
X77803769Y-31413483D01*
X78000000Y-31394157D01*
X78196232Y-31413483D01*
X78196232Y-31413483D01*
G37*
G36*
X73116232Y-31413483D02*
X73304919Y-31470721D01*
X73478817Y-31563671D01*
X73631239Y-31688761D01*
X73756329Y-31841183D01*
X73849279Y-32015082D01*
X73906517Y-32203769D01*
X73921000Y-32350825D01*
X73921000Y-33049176D01*
X73906517Y-33196232D01*
X73849279Y-33384919D01*
X73756329Y-33558817D01*
X73631239Y-33711239D01*
X73478817Y-33836329D01*
X73304918Y-33929279D01*
X73116231Y-33986517D01*
X72920000Y-34005843D01*
X72723768Y-33986517D01*
X72535081Y-33929279D01*
X72361183Y-33836329D01*
X72208761Y-33711239D01*
X72083671Y-33558817D01*
X71990721Y-33384918D01*
X71933483Y-33196231D01*
X71919000Y-33049175D01*
X71919000Y-32350824D01*
X71933483Y-32203768D01*
X71990722Y-32015081D01*
X72083672Y-31841183D01*
X72208762Y-31688761D01*
X72361184Y-31563671D01*
X72535082Y-31470721D01*
X72723769Y-31413483D01*
X72920000Y-31394157D01*
X73116232Y-31413483D01*
X73116232Y-31413483D01*
G37*
G36*
X100632004Y-31260544D02*
X100719059Y-31277860D01*
X100855732Y-31334472D01*
X100855733Y-31334473D01*
X100978738Y-31416662D01*
X101083338Y-31521262D01*
X101083340Y-31521265D01*
X101165528Y-31644268D01*
X101222140Y-31780941D01*
X101251000Y-31926033D01*
X101251000Y-32073967D01*
X101222140Y-32219059D01*
X101165528Y-32355732D01*
X101165527Y-32355733D01*
X101083338Y-32478738D01*
X100978738Y-32583338D01*
X100978735Y-32583340D01*
X100855732Y-32665528D01*
X100719059Y-32722140D01*
X100632004Y-32739456D01*
X100573969Y-32751000D01*
X100426031Y-32751000D01*
X100367996Y-32739456D01*
X100280941Y-32722140D01*
X100144268Y-32665528D01*
X100021265Y-32583340D01*
X100021262Y-32583338D01*
X99916662Y-32478738D01*
X99834473Y-32355733D01*
X99834472Y-32355732D01*
X99777860Y-32219059D01*
X99749000Y-32073967D01*
X99749000Y-31926033D01*
X99777860Y-31780941D01*
X99834472Y-31644268D01*
X99916660Y-31521265D01*
X99916662Y-31521262D01*
X100021262Y-31416662D01*
X100144267Y-31334473D01*
X100144268Y-31334472D01*
X100280941Y-31277860D01*
X100367996Y-31260544D01*
X100426031Y-31249000D01*
X100573969Y-31249000D01*
X100632004Y-31260544D01*
X100632004Y-31260544D01*
G37*
G36*
X68775256Y-21891298D02*
X68881579Y-21912447D01*
X69182042Y-22036903D01*
X69302791Y-22117585D01*
X69452454Y-22217587D01*
X69682413Y-22447546D01*
X69682415Y-22447549D01*
X69863097Y-22717958D01*
X69946132Y-22918421D01*
X69987553Y-23018422D01*
X70051000Y-23337389D01*
X70051000Y-23662611D01*
X69987553Y-23981578D01*
X69863098Y-24282040D01*
X69682413Y-24552454D01*
X69452454Y-24782413D01*
X69452451Y-24782415D01*
X69182042Y-24963097D01*
X68881579Y-25087553D01*
X68775256Y-25108702D01*
X68562611Y-25151000D01*
X68237389Y-25151000D01*
X68024744Y-25108702D01*
X67918421Y-25087553D01*
X67617958Y-24963097D01*
X67347549Y-24782415D01*
X67347546Y-24782413D01*
X67117587Y-24552454D01*
X66936902Y-24282040D01*
X66812447Y-23981578D01*
X66749000Y-23662611D01*
X66749000Y-23337389D01*
X66812447Y-23018422D01*
X66853869Y-22918421D01*
X66936903Y-22717958D01*
X67117585Y-22447549D01*
X67117587Y-22447546D01*
X67347546Y-22217587D01*
X67497209Y-22117585D01*
X67617958Y-22036903D01*
X67918421Y-21912447D01*
X68024744Y-21891298D01*
X68237389Y-21849000D01*
X68562611Y-21849000D01*
X68775256Y-21891298D01*
X68775256Y-21891298D01*
G37*
G36*
X101975256Y-21791298D02*
X102081579Y-21812447D01*
X102382042Y-21936903D01*
X102531702Y-22036903D01*
X102652454Y-22117587D01*
X102882413Y-22347546D01*
X103063098Y-22617960D01*
X103187553Y-22918422D01*
X103251000Y-23237389D01*
X103251000Y-23562611D01*
X103208702Y-23775256D01*
X103187553Y-23881579D01*
X103099550Y-24094037D01*
X103063098Y-24182040D01*
X102882413Y-24452454D01*
X102652454Y-24682413D01*
X102652451Y-24682415D01*
X102382042Y-24863097D01*
X102081579Y-24987553D01*
X101975256Y-25008702D01*
X101762611Y-25051000D01*
X101437389Y-25051000D01*
X101224744Y-25008702D01*
X101118421Y-24987553D01*
X100817958Y-24863097D01*
X100547549Y-24682415D01*
X100547546Y-24682413D01*
X100317587Y-24452454D01*
X100136902Y-24182040D01*
X100100450Y-24094037D01*
X100012447Y-23881579D01*
X99991298Y-23775256D01*
X99949000Y-23562611D01*
X99949000Y-23237389D01*
X100012447Y-22918422D01*
X100136902Y-22617960D01*
X100317587Y-22347546D01*
X100547546Y-22117587D01*
X100668298Y-22036903D01*
X100817958Y-21936903D01*
X101118421Y-21812447D01*
X101224744Y-21791298D01*
X101437389Y-21749000D01*
X101762611Y-21749000D01*
X101975256Y-21791298D01*
X101975256Y-21791298D01*
G37*
M02*
