G04 #@! TF.GenerationSoftware,KiCad,Pcbnew,(5.0.2)-1*
G04 #@! TF.CreationDate,2021-01-16T20:27:13+09:00*
G04 #@! TF.ProjectId,LEMCurrentSensor,4c454d43-7572-4726-956e-7453656e736f,rev?*
G04 #@! TF.SameCoordinates,Original*
G04 #@! TF.FileFunction,Legend,Top*
G04 #@! TF.FilePolarity,Positive*
%FSLAX46Y46*%
G04 Gerber Fmt 4.6, Leading zero omitted, Abs format (unit mm)*
G04 Created by KiCad (PCBNEW (5.0.2)-1) date 2021/01/16 20:27:13*
%MOMM*%
%LPD*%
G01*
G04 APERTURE LIST*
%ADD10C,0.200000*%
%ADD11C,0.100000*%
%ADD12C,0.300000*%
%ADD13C,0.120000*%
%ADD14C,0.150000*%
G04 APERTURE END LIST*
D10*
X86314285Y-49378571D02*
X86814285Y-50878571D01*
X87314285Y-49378571D01*
X88028571Y-50878571D02*
X87885714Y-50807142D01*
X87814285Y-50735714D01*
X87742857Y-50592857D01*
X87742857Y-50164285D01*
X87814285Y-50021428D01*
X87885714Y-49950000D01*
X88028571Y-49878571D01*
X88242857Y-49878571D01*
X88385714Y-49950000D01*
X88457142Y-50021428D01*
X88528571Y-50164285D01*
X88528571Y-50592857D01*
X88457142Y-50735714D01*
X88385714Y-50807142D01*
X88242857Y-50878571D01*
X88028571Y-50878571D01*
X89814285Y-49878571D02*
X89814285Y-50878571D01*
X89171428Y-49878571D02*
X89171428Y-50664285D01*
X89242857Y-50807142D01*
X89385714Y-50878571D01*
X89600000Y-50878571D01*
X89742857Y-50807142D01*
X89814285Y-50735714D01*
X90314285Y-49878571D02*
X90885714Y-49878571D01*
X90528571Y-49378571D02*
X90528571Y-50664285D01*
X90600000Y-50807142D01*
X90742857Y-50878571D01*
X90885714Y-50878571D01*
D11*
X100666666Y-42952380D02*
X101285714Y-42952380D01*
X100952380Y-43333333D01*
X101095238Y-43333333D01*
X101190476Y-43380952D01*
X101238095Y-43428571D01*
X101285714Y-43523809D01*
X101285714Y-43761904D01*
X101238095Y-43857142D01*
X101190476Y-43904761D01*
X101095238Y-43952380D01*
X100809523Y-43952380D01*
X100714285Y-43904761D01*
X100666666Y-43857142D01*
X101785714Y-38452380D02*
X101214285Y-38452380D01*
X101500000Y-38452380D02*
X101500000Y-37452380D01*
X101404761Y-37595238D01*
X101309523Y-37690476D01*
X101214285Y-37738095D01*
D10*
X102750000Y-47535714D02*
X102678571Y-47607142D01*
X102464285Y-47678571D01*
X102321428Y-47678571D01*
X102107142Y-47607142D01*
X101964285Y-47464285D01*
X101892857Y-47321428D01*
X101821428Y-47035714D01*
X101821428Y-46821428D01*
X101892857Y-46535714D01*
X101964285Y-46392857D01*
X102107142Y-46250000D01*
X102321428Y-46178571D01*
X102464285Y-46178571D01*
X102678571Y-46250000D01*
X102750000Y-46321428D01*
X103321428Y-47607142D02*
X103535714Y-47678571D01*
X103892857Y-47678571D01*
X104035714Y-47607142D01*
X104107142Y-47535714D01*
X104178571Y-47392857D01*
X104178571Y-47250000D01*
X104107142Y-47107142D01*
X104035714Y-47035714D01*
X103892857Y-46964285D01*
X103607142Y-46892857D01*
X103464285Y-46821428D01*
X103392857Y-46750000D01*
X103321428Y-46607142D01*
X103321428Y-46464285D01*
X103392857Y-46321428D01*
X103464285Y-46250000D01*
X103607142Y-46178571D01*
X103964285Y-46178571D01*
X104178571Y-46250000D01*
X101357142Y-48250000D02*
X101214285Y-48178571D01*
X101000000Y-48178571D01*
X100785714Y-48250000D01*
X100642857Y-48392857D01*
X100571428Y-48535714D01*
X100500000Y-48821428D01*
X100500000Y-49035714D01*
X100571428Y-49321428D01*
X100642857Y-49464285D01*
X100785714Y-49607142D01*
X101000000Y-49678571D01*
X101142857Y-49678571D01*
X101357142Y-49607142D01*
X101428571Y-49535714D01*
X101428571Y-49035714D01*
X101142857Y-49035714D01*
X102071428Y-49678571D02*
X102071428Y-48178571D01*
X102928571Y-49678571D01*
X102928571Y-48178571D01*
X103642857Y-49678571D02*
X103642857Y-48178571D01*
X104000000Y-48178571D01*
X104214285Y-48250000D01*
X104357142Y-48392857D01*
X104428571Y-48535714D01*
X104500000Y-48821428D01*
X104500000Y-49035714D01*
X104428571Y-49321428D01*
X104357142Y-49464285D01*
X104214285Y-49607142D01*
X104000000Y-49678571D01*
X103642857Y-49678571D01*
X102714285Y-44178571D02*
X102000000Y-44178571D01*
X101928571Y-44892857D01*
X102000000Y-44821428D01*
X102142857Y-44750000D01*
X102500000Y-44750000D01*
X102642857Y-44821428D01*
X102714285Y-44892857D01*
X102785714Y-45035714D01*
X102785714Y-45392857D01*
X102714285Y-45535714D01*
X102642857Y-45607142D01*
X102500000Y-45678571D01*
X102142857Y-45678571D01*
X102000000Y-45607142D01*
X101928571Y-45535714D01*
X103214285Y-44178571D02*
X103714285Y-45678571D01*
X104214285Y-44178571D01*
X97250000Y-32535714D02*
X97178571Y-32607142D01*
X96964285Y-32678571D01*
X96821428Y-32678571D01*
X96607142Y-32607142D01*
X96464285Y-32464285D01*
X96392857Y-32321428D01*
X96321428Y-32035714D01*
X96321428Y-31821428D01*
X96392857Y-31535714D01*
X96464285Y-31392857D01*
X96607142Y-31250000D01*
X96821428Y-31178571D01*
X96964285Y-31178571D01*
X97178571Y-31250000D01*
X97250000Y-31321428D01*
X97821428Y-32607142D02*
X98035714Y-32678571D01*
X98392857Y-32678571D01*
X98535714Y-32607142D01*
X98607142Y-32535714D01*
X98678571Y-32392857D01*
X98678571Y-32250000D01*
X98607142Y-32107142D01*
X98535714Y-32035714D01*
X98392857Y-31964285D01*
X98107142Y-31892857D01*
X97964285Y-31821428D01*
X97892857Y-31750000D01*
X97821428Y-31607142D01*
X97821428Y-31464285D01*
X97892857Y-31321428D01*
X97964285Y-31250000D01*
X98107142Y-31178571D01*
X98464285Y-31178571D01*
X98678571Y-31250000D01*
D12*
X70428571Y-49607142D02*
X71571428Y-49607142D01*
X70428571Y-29607142D02*
X71571428Y-29607142D01*
X71000000Y-30178571D02*
X71000000Y-29035714D01*
D13*
G04 #@! TO.C,U1*
X71350000Y-34640000D02*
X65150000Y-34640000D01*
X79570000Y-33940000D02*
X78850000Y-33940000D01*
X72070000Y-44160000D02*
X66260000Y-44160000D01*
X65150000Y-43050000D02*
G75*
G03X66260000Y-44160000I1110000J0D01*
G01*
X87570000Y-43050000D02*
G75*
G02X86460000Y-44160000I-1110000J0D01*
G01*
X71350000Y-33940000D02*
X71350000Y-34640000D01*
X79570000Y-33940000D02*
X79570000Y-34640000D01*
X87570000Y-34640000D02*
X87570000Y-43040000D01*
X65150000Y-34640000D02*
X65150000Y-43050000D01*
X87570000Y-34640000D02*
X79570000Y-34640000D01*
X72080000Y-33940000D02*
X71350000Y-33940000D01*
X86450000Y-44160000D02*
X79220000Y-44160000D01*
G04 #@! TO.C,C1*
X86991233Y-46510000D02*
X87283767Y-46510000D01*
X86991233Y-45490000D02*
X87283767Y-45490000D01*
G04 #@! TO.C,C2*
X99310000Y-39191233D02*
X99310000Y-39483767D01*
X98290000Y-39191233D02*
X98290000Y-39483767D01*
G04 #@! TO.C,C3*
X91791233Y-45090000D02*
X92083767Y-45090000D01*
X91791233Y-46110000D02*
X92083767Y-46110000D01*
G04 #@! TO.C,J2*
X65400000Y-29400000D02*
X69800000Y-29400000D01*
X69800000Y-29400000D02*
X69800000Y-33800000D01*
X69800000Y-33800000D02*
X65400000Y-33800000D01*
X65400000Y-33800000D02*
X65400000Y-29400000D01*
G04 #@! TO.C,J3*
X101870000Y-43410000D02*
X104530000Y-43410000D01*
X101870000Y-38270000D02*
X101870000Y-43410000D01*
X104530000Y-38270000D02*
X104530000Y-43410000D01*
X101870000Y-38270000D02*
X104530000Y-38270000D01*
X101870000Y-37000000D02*
X101870000Y-35670000D01*
X101870000Y-35670000D02*
X103200000Y-35670000D01*
G04 #@! TO.C,R1*
X87342224Y-33022500D02*
X86832776Y-33022500D01*
X87342224Y-31977500D02*
X86832776Y-31977500D01*
G04 #@! TO.C,R2*
X91632776Y-43477500D02*
X92142224Y-43477500D01*
X91632776Y-44522500D02*
X92142224Y-44522500D01*
G04 #@! TO.C,R3*
X99667224Y-34977500D02*
X99157776Y-34977500D01*
X99667224Y-36022500D02*
X99157776Y-36022500D01*
G04 #@! TO.C,TP1*
X85900000Y-49050000D02*
X84050000Y-49050000D01*
X85900000Y-49100000D02*
X85900000Y-49050000D01*
X85900000Y-50950000D02*
X85900000Y-49100000D01*
X84050000Y-50950000D02*
X85900000Y-50950000D01*
X84050000Y-49050000D02*
X84050000Y-50950000D01*
G04 #@! TO.C,TP2*
X99550000Y-31050000D02*
X99550000Y-32950000D01*
X99550000Y-32950000D02*
X101400000Y-32950000D01*
X101400000Y-32950000D02*
X101400000Y-31100000D01*
X101400000Y-31100000D02*
X101400000Y-31050000D01*
X101400000Y-31050000D02*
X99550000Y-31050000D01*
G04 #@! TO.C,J1*
X65400000Y-45000000D02*
X69800000Y-45000000D01*
X69800000Y-45000000D02*
X69800000Y-49400000D01*
X69800000Y-49400000D02*
X65400000Y-49400000D01*
X65400000Y-49400000D02*
X65400000Y-45000000D01*
G04 #@! TO.C,U2*
X94000000Y-41760000D02*
X95950000Y-41760000D01*
X94000000Y-41760000D02*
X92050000Y-41760000D01*
X94000000Y-36640000D02*
X95950000Y-36640000D01*
X94000000Y-36640000D02*
X90550000Y-36640000D01*
G04 #@! TO.C,TP3*
X97050000Y-48050000D02*
X97050000Y-49950000D01*
X97050000Y-49950000D02*
X98900000Y-49950000D01*
X98900000Y-49950000D02*
X98900000Y-48100000D01*
X98900000Y-48100000D02*
X98900000Y-48050000D01*
X98900000Y-48050000D02*
X97050000Y-48050000D01*
G04 #@! TO.C,U1*
D14*
X82838095Y-45052380D02*
X82838095Y-45861904D01*
X82885714Y-45957142D01*
X82933333Y-46004761D01*
X83028571Y-46052380D01*
X83219047Y-46052380D01*
X83314285Y-46004761D01*
X83361904Y-45957142D01*
X83409523Y-45861904D01*
X83409523Y-45052380D01*
X84409523Y-46052380D02*
X83838095Y-46052380D01*
X84123809Y-46052380D02*
X84123809Y-45052380D01*
X84028571Y-45195238D01*
X83933333Y-45290476D01*
X83838095Y-45338095D01*
G04 #@! TO.C,C1*
X86933333Y-47907142D02*
X86885714Y-47954761D01*
X86742857Y-48002380D01*
X86647619Y-48002380D01*
X86504761Y-47954761D01*
X86409523Y-47859523D01*
X86361904Y-47764285D01*
X86314285Y-47573809D01*
X86314285Y-47430952D01*
X86361904Y-47240476D01*
X86409523Y-47145238D01*
X86504761Y-47050000D01*
X86647619Y-47002380D01*
X86742857Y-47002380D01*
X86885714Y-47050000D01*
X86933333Y-47097619D01*
X87885714Y-48002380D02*
X87314285Y-48002380D01*
X87600000Y-48002380D02*
X87600000Y-47002380D01*
X87504761Y-47145238D01*
X87409523Y-47240476D01*
X87314285Y-47288095D01*
G04 #@! TO.C,C2*
X99157142Y-42166666D02*
X99204761Y-42214285D01*
X99252380Y-42357142D01*
X99252380Y-42452380D01*
X99204761Y-42595238D01*
X99109523Y-42690476D01*
X99014285Y-42738095D01*
X98823809Y-42785714D01*
X98680952Y-42785714D01*
X98490476Y-42738095D01*
X98395238Y-42690476D01*
X98300000Y-42595238D01*
X98252380Y-42452380D01*
X98252380Y-42357142D01*
X98300000Y-42214285D01*
X98347619Y-42166666D01*
X98347619Y-41785714D02*
X98300000Y-41738095D01*
X98252380Y-41642857D01*
X98252380Y-41404761D01*
X98300000Y-41309523D01*
X98347619Y-41261904D01*
X98442857Y-41214285D01*
X98538095Y-41214285D01*
X98680952Y-41261904D01*
X99252380Y-41833333D01*
X99252380Y-41214285D01*
G04 #@! TO.C,C3*
X94433333Y-45957142D02*
X94385714Y-46004761D01*
X94242857Y-46052380D01*
X94147619Y-46052380D01*
X94004761Y-46004761D01*
X93909523Y-45909523D01*
X93861904Y-45814285D01*
X93814285Y-45623809D01*
X93814285Y-45480952D01*
X93861904Y-45290476D01*
X93909523Y-45195238D01*
X94004761Y-45100000D01*
X94147619Y-45052380D01*
X94242857Y-45052380D01*
X94385714Y-45100000D01*
X94433333Y-45147619D01*
X94766666Y-45052380D02*
X95385714Y-45052380D01*
X95052380Y-45433333D01*
X95195238Y-45433333D01*
X95290476Y-45480952D01*
X95338095Y-45528571D01*
X95385714Y-45623809D01*
X95385714Y-45861904D01*
X95338095Y-45957142D01*
X95290476Y-46004761D01*
X95195238Y-46052380D01*
X94909523Y-46052380D01*
X94814285Y-46004761D01*
X94766666Y-45957142D01*
G04 #@! TO.C,J3*
X102866666Y-34122380D02*
X102866666Y-34836666D01*
X102819047Y-34979523D01*
X102723809Y-35074761D01*
X102580952Y-35122380D01*
X102485714Y-35122380D01*
X103247619Y-34122380D02*
X103866666Y-34122380D01*
X103533333Y-34503333D01*
X103676190Y-34503333D01*
X103771428Y-34550952D01*
X103819047Y-34598571D01*
X103866666Y-34693809D01*
X103866666Y-34931904D01*
X103819047Y-35027142D01*
X103771428Y-35074761D01*
X103676190Y-35122380D01*
X103390476Y-35122380D01*
X103295238Y-35074761D01*
X103247619Y-35027142D01*
G04 #@! TO.C,R1*
X89633333Y-32852380D02*
X89300000Y-32376190D01*
X89061904Y-32852380D02*
X89061904Y-31852380D01*
X89442857Y-31852380D01*
X89538095Y-31900000D01*
X89585714Y-31947619D01*
X89633333Y-32042857D01*
X89633333Y-32185714D01*
X89585714Y-32280952D01*
X89538095Y-32328571D01*
X89442857Y-32376190D01*
X89061904Y-32376190D01*
X90585714Y-32852380D02*
X90014285Y-32852380D01*
X90300000Y-32852380D02*
X90300000Y-31852380D01*
X90204761Y-31995238D01*
X90109523Y-32090476D01*
X90014285Y-32138095D01*
G04 #@! TO.C,R2*
X94433333Y-44452380D02*
X94100000Y-43976190D01*
X93861904Y-44452380D02*
X93861904Y-43452380D01*
X94242857Y-43452380D01*
X94338095Y-43500000D01*
X94385714Y-43547619D01*
X94433333Y-43642857D01*
X94433333Y-43785714D01*
X94385714Y-43880952D01*
X94338095Y-43928571D01*
X94242857Y-43976190D01*
X93861904Y-43976190D01*
X94814285Y-43547619D02*
X94861904Y-43500000D01*
X94957142Y-43452380D01*
X95195238Y-43452380D01*
X95290476Y-43500000D01*
X95338095Y-43547619D01*
X95385714Y-43642857D01*
X95385714Y-43738095D01*
X95338095Y-43880952D01*
X94766666Y-44452380D01*
X95385714Y-44452380D01*
G04 #@! TO.C,R3*
X96833333Y-34952380D02*
X96500000Y-34476190D01*
X96261904Y-34952380D02*
X96261904Y-33952380D01*
X96642857Y-33952380D01*
X96738095Y-34000000D01*
X96785714Y-34047619D01*
X96833333Y-34142857D01*
X96833333Y-34285714D01*
X96785714Y-34380952D01*
X96738095Y-34428571D01*
X96642857Y-34476190D01*
X96261904Y-34476190D01*
X97166666Y-33952380D02*
X97785714Y-33952380D01*
X97452380Y-34333333D01*
X97595238Y-34333333D01*
X97690476Y-34380952D01*
X97738095Y-34428571D01*
X97785714Y-34523809D01*
X97785714Y-34761904D01*
X97738095Y-34857142D01*
X97690476Y-34904761D01*
X97595238Y-34952380D01*
X97309523Y-34952380D01*
X97214285Y-34904761D01*
X97166666Y-34857142D01*
G04 #@! TO.C,TP1*
X83738095Y-51652380D02*
X84309523Y-51652380D01*
X84023809Y-52652380D02*
X84023809Y-51652380D01*
X84642857Y-52652380D02*
X84642857Y-51652380D01*
X85023809Y-51652380D01*
X85119047Y-51700000D01*
X85166666Y-51747619D01*
X85214285Y-51842857D01*
X85214285Y-51985714D01*
X85166666Y-52080952D01*
X85119047Y-52128571D01*
X85023809Y-52176190D01*
X84642857Y-52176190D01*
X86166666Y-52652380D02*
X85595238Y-52652380D01*
X85880952Y-52652380D02*
X85880952Y-51652380D01*
X85785714Y-51795238D01*
X85690476Y-51890476D01*
X85595238Y-51938095D01*
G04 #@! TO.C,TP2*
X99238095Y-29452380D02*
X99809523Y-29452380D01*
X99523809Y-30452380D02*
X99523809Y-29452380D01*
X100142857Y-30452380D02*
X100142857Y-29452380D01*
X100523809Y-29452380D01*
X100619047Y-29500000D01*
X100666666Y-29547619D01*
X100714285Y-29642857D01*
X100714285Y-29785714D01*
X100666666Y-29880952D01*
X100619047Y-29928571D01*
X100523809Y-29976190D01*
X100142857Y-29976190D01*
X101095238Y-29547619D02*
X101142857Y-29500000D01*
X101238095Y-29452380D01*
X101476190Y-29452380D01*
X101571428Y-29500000D01*
X101619047Y-29547619D01*
X101666666Y-29642857D01*
X101666666Y-29738095D01*
X101619047Y-29880952D01*
X101047619Y-30452380D01*
X101666666Y-30452380D01*
G04 #@! TO.C,U2*
X93238095Y-35252380D02*
X93238095Y-36061904D01*
X93285714Y-36157142D01*
X93333333Y-36204761D01*
X93428571Y-36252380D01*
X93619047Y-36252380D01*
X93714285Y-36204761D01*
X93761904Y-36157142D01*
X93809523Y-36061904D01*
X93809523Y-35252380D01*
X94238095Y-35347619D02*
X94285714Y-35300000D01*
X94380952Y-35252380D01*
X94619047Y-35252380D01*
X94714285Y-35300000D01*
X94761904Y-35347619D01*
X94809523Y-35442857D01*
X94809523Y-35538095D01*
X94761904Y-35680952D01*
X94190476Y-36252380D01*
X94809523Y-36252380D01*
G04 #@! TO.C,TP3*
X96738095Y-50852380D02*
X97309523Y-50852380D01*
X97023809Y-51852380D02*
X97023809Y-50852380D01*
X97642857Y-51852380D02*
X97642857Y-50852380D01*
X98023809Y-50852380D01*
X98119047Y-50900000D01*
X98166666Y-50947619D01*
X98214285Y-51042857D01*
X98214285Y-51185714D01*
X98166666Y-51280952D01*
X98119047Y-51328571D01*
X98023809Y-51376190D01*
X97642857Y-51376190D01*
X98547619Y-50852380D02*
X99166666Y-50852380D01*
X98833333Y-51233333D01*
X98976190Y-51233333D01*
X99071428Y-51280952D01*
X99119047Y-51328571D01*
X99166666Y-51423809D01*
X99166666Y-51661904D01*
X99119047Y-51757142D01*
X99071428Y-51804761D01*
X98976190Y-51852380D01*
X98690476Y-51852380D01*
X98595238Y-51804761D01*
X98547619Y-51757142D01*
G04 #@! TD*
M02*
