G04 #@! TF.GenerationSoftware,KiCad,Pcbnew,(5.0.2)-1*
G04 #@! TF.CreationDate,2021-01-16T20:27:13+09:00*
G04 #@! TF.ProjectId,LEMCurrentSensor,4c454d43-7572-4726-956e-7453656e736f,rev?*
G04 #@! TF.SameCoordinates,Original*
G04 #@! TF.FileFunction,Copper,L2,Bot*
G04 #@! TF.FilePolarity,Positive*
%FSLAX46Y46*%
G04 Gerber Fmt 4.6, Leading zero omitted, Abs format (unit mm)*
G04 Created by KiCad (PCBNEW (5.0.2)-1) date 2021/01/16 20:27:13*
%MOMM*%
%LPD*%
G01*
G04 APERTURE LIST*
G04 #@! TA.AperFunction,ComponentPad*
%ADD10O,1.600000X1.400000*%
G04 #@! TD*
G04 #@! TA.AperFunction,ComponentPad*
%ADD11O,1.900000X2.500000*%
G04 #@! TD*
G04 #@! TA.AperFunction,Conductor*
%ADD12C,0.100000*%
G04 #@! TD*
G04 #@! TA.AperFunction,ComponentPad*
%ADD13C,1.900000*%
G04 #@! TD*
G04 #@! TA.AperFunction,ComponentPad*
%ADD14R,1.700000X1.700000*%
G04 #@! TD*
G04 #@! TA.AperFunction,ComponentPad*
%ADD15O,1.700000X1.700000*%
G04 #@! TD*
G04 #@! TA.AperFunction,ComponentPad*
%ADD16C,1.400000*%
G04 #@! TD*
G04 #@! TA.AperFunction,Conductor*
%ADD17C,0.254000*%
G04 #@! TD*
G04 APERTURE END LIST*
D10*
G04 #@! TO.P,U1,7*
G04 #@! TO.N,N/C*
X85620000Y-36192500D03*
G04 #@! TO.P,U1,10*
G04 #@! TO.N,+5V*
X85620000Y-41907500D03*
G04 #@! TO.P,U1,9*
G04 #@! TO.N,GND*
X85620000Y-40002500D03*
G04 #@! TO.P,U1,8*
G04 #@! TO.N,Net-(R1-Pad2)*
X85620000Y-38097500D03*
D11*
G04 #@! TO.P,U1,2*
G04 #@! TO.N,Net-(J1-Pad1)*
X75460000Y-45400000D03*
D12*
G04 #@! TD*
G04 #@! TO.N,Net-(J1-Pad1)*
G04 #@! TO.C,U1*
G36*
X78735779Y-44151144D02*
X78758834Y-44154563D01*
X78781443Y-44160227D01*
X78803387Y-44168079D01*
X78824457Y-44178044D01*
X78844448Y-44190026D01*
X78863168Y-44203910D01*
X78880438Y-44219562D01*
X78896090Y-44236832D01*
X78909974Y-44255552D01*
X78921956Y-44275543D01*
X78931921Y-44296613D01*
X78939773Y-44318557D01*
X78945437Y-44341166D01*
X78948856Y-44364221D01*
X78950000Y-44387500D01*
X78950000Y-46412500D01*
X78948856Y-46435779D01*
X78945437Y-46458834D01*
X78939773Y-46481443D01*
X78931921Y-46503387D01*
X78921956Y-46524457D01*
X78909974Y-46544448D01*
X78896090Y-46563168D01*
X78880438Y-46580438D01*
X78863168Y-46596090D01*
X78844448Y-46609974D01*
X78824457Y-46621956D01*
X78803387Y-46631921D01*
X78781443Y-46639773D01*
X78758834Y-46645437D01*
X78735779Y-46648856D01*
X78712500Y-46650000D01*
X77287500Y-46650000D01*
X77264221Y-46648856D01*
X77241166Y-46645437D01*
X77218557Y-46639773D01*
X77196613Y-46631921D01*
X77175543Y-46621956D01*
X77155552Y-46609974D01*
X77136832Y-46596090D01*
X77119562Y-46580438D01*
X77103910Y-46563168D01*
X77090026Y-46544448D01*
X77078044Y-46524457D01*
X77068079Y-46503387D01*
X77060227Y-46481443D01*
X77054563Y-46458834D01*
X77051144Y-46435779D01*
X77050000Y-46412500D01*
X77050000Y-44387500D01*
X77051144Y-44364221D01*
X77054563Y-44341166D01*
X77060227Y-44318557D01*
X77068079Y-44296613D01*
X77078044Y-44275543D01*
X77090026Y-44255552D01*
X77103910Y-44236832D01*
X77119562Y-44219562D01*
X77136832Y-44203910D01*
X77155552Y-44190026D01*
X77175543Y-44178044D01*
X77196613Y-44168079D01*
X77218557Y-44160227D01*
X77241166Y-44154563D01*
X77264221Y-44151144D01*
X77287500Y-44150000D01*
X78712500Y-44150000D01*
X78735779Y-44151144D01*
X78735779Y-44151144D01*
G37*
D13*
G04 #@! TO.P,U1,1*
G04 #@! TO.N,Net-(J1-Pad1)*
X78000000Y-45400000D03*
D11*
G04 #@! TO.P,U1,3*
X72920000Y-45400000D03*
G04 #@! TO.P,U1,4*
G04 #@! TO.N,Net-(J2-Pad1)*
X72920000Y-32700000D03*
G04 #@! TO.P,U1,6*
X78000000Y-32700000D03*
G04 #@! TO.P,U1,5*
X75460000Y-32700000D03*
G04 #@! TD*
D14*
G04 #@! TO.P,J3,1*
G04 #@! TO.N,+5V*
X103200000Y-37000000D03*
D15*
G04 #@! TO.P,J3,2*
G04 #@! TO.N,Net-(J3-Pad2)*
X103200000Y-39540000D03*
G04 #@! TO.P,J3,3*
G04 #@! TO.N,GND*
X103200000Y-42080000D03*
G04 #@! TD*
D16*
G04 #@! TO.P,TP1,1*
G04 #@! TO.N,Net-(R1-Pad2)*
X85000000Y-50000000D03*
G04 #@! TD*
G04 #@! TO.P,TP2,1*
G04 #@! TO.N,Net-(J3-Pad2)*
X100500000Y-32000000D03*
G04 #@! TD*
G04 #@! TO.P,TP3,1*
G04 #@! TO.N,GND*
X98000000Y-49000000D03*
G04 #@! TD*
D17*
G04 #@! TO.N,GND*
G36*
X104265001Y-35545326D02*
X104050000Y-35502560D01*
X102350000Y-35502560D01*
X102102235Y-35551843D01*
X101892191Y-35692191D01*
X101751843Y-35902235D01*
X101702560Y-36150000D01*
X101702560Y-37850000D01*
X101751843Y-38097765D01*
X101892191Y-38307809D01*
X102102235Y-38448157D01*
X102147619Y-38457184D01*
X102129375Y-38469375D01*
X101801161Y-38960582D01*
X101685908Y-39540000D01*
X101801161Y-40119418D01*
X102129375Y-40610625D01*
X102448478Y-40823843D01*
X102318642Y-40884817D01*
X101928355Y-41313076D01*
X101758524Y-41723110D01*
X101879845Y-41953000D01*
X103073000Y-41953000D01*
X103073000Y-41933000D01*
X103327000Y-41933000D01*
X103327000Y-41953000D01*
X103347000Y-41953000D01*
X103347000Y-42207000D01*
X103327000Y-42207000D01*
X103327000Y-43400819D01*
X103556892Y-43521486D01*
X104081358Y-43275183D01*
X104265000Y-43073674D01*
X104265000Y-59265000D01*
X82127000Y-59265000D01*
X82127000Y-56155431D01*
X99365000Y-56155431D01*
X99365000Y-57044569D01*
X99705259Y-57866026D01*
X100333974Y-58494741D01*
X101155431Y-58835000D01*
X102044569Y-58835000D01*
X102866026Y-58494741D01*
X103494741Y-57866026D01*
X103835000Y-57044569D01*
X103835000Y-56155431D01*
X103494741Y-55333974D01*
X102866026Y-54705259D01*
X102044569Y-54365000D01*
X101155431Y-54365000D01*
X100333974Y-54705259D01*
X99705259Y-55333974D01*
X99365000Y-56155431D01*
X82127000Y-56155431D01*
X82127000Y-49734452D01*
X83665000Y-49734452D01*
X83665000Y-50265548D01*
X83868242Y-50756217D01*
X84243783Y-51131758D01*
X84734452Y-51335000D01*
X85265548Y-51335000D01*
X85756217Y-51131758D01*
X86131758Y-50756217D01*
X86335000Y-50265548D01*
X86335000Y-49935275D01*
X97244331Y-49935275D01*
X97306169Y-50171042D01*
X97807122Y-50347419D01*
X98337440Y-50318664D01*
X98693831Y-50171042D01*
X98755669Y-49935275D01*
X98000000Y-49179605D01*
X97244331Y-49935275D01*
X86335000Y-49935275D01*
X86335000Y-49734452D01*
X86131758Y-49243783D01*
X85756217Y-48868242D01*
X85608661Y-48807122D01*
X96652581Y-48807122D01*
X96681336Y-49337440D01*
X96828958Y-49693831D01*
X97064725Y-49755669D01*
X97820395Y-49000000D01*
X98179605Y-49000000D01*
X98935275Y-49755669D01*
X99171042Y-49693831D01*
X99347419Y-49192878D01*
X99318664Y-48662560D01*
X99171042Y-48306169D01*
X98935275Y-48244331D01*
X98179605Y-49000000D01*
X97820395Y-49000000D01*
X97064725Y-48244331D01*
X96828958Y-48306169D01*
X96652581Y-48807122D01*
X85608661Y-48807122D01*
X85265548Y-48665000D01*
X84734452Y-48665000D01*
X84243783Y-48868242D01*
X83868242Y-49243783D01*
X83665000Y-49734452D01*
X82127000Y-49734452D01*
X82127000Y-48064725D01*
X97244331Y-48064725D01*
X98000000Y-48820395D01*
X98755669Y-48064725D01*
X98693831Y-47828958D01*
X98192878Y-47652581D01*
X97662560Y-47681336D01*
X97306169Y-47828958D01*
X97244331Y-48064725D01*
X82127000Y-48064725D01*
X82127000Y-41907500D01*
X84158846Y-41907500D01*
X84262458Y-42428391D01*
X84557519Y-42869981D01*
X84999109Y-43165042D01*
X85388515Y-43242500D01*
X85851485Y-43242500D01*
X86240891Y-43165042D01*
X86682481Y-42869981D01*
X86971863Y-42436890D01*
X101758524Y-42436890D01*
X101928355Y-42846924D01*
X102318642Y-43275183D01*
X102843108Y-43521486D01*
X103073000Y-43400819D01*
X103073000Y-42207000D01*
X101879845Y-42207000D01*
X101758524Y-42436890D01*
X86971863Y-42436890D01*
X86977542Y-42428391D01*
X87081154Y-41907500D01*
X86977542Y-41386609D01*
X86682481Y-40945019D01*
X86649995Y-40923312D01*
X86814870Y-40764595D01*
X87012716Y-40335829D01*
X86889374Y-40129500D01*
X85747000Y-40129500D01*
X85747000Y-40149500D01*
X85493000Y-40149500D01*
X85493000Y-40129500D01*
X84350626Y-40129500D01*
X84227284Y-40335829D01*
X84425130Y-40764595D01*
X84590005Y-40923312D01*
X84557519Y-40945019D01*
X84262458Y-41386609D01*
X84158846Y-41907500D01*
X82127000Y-41907500D01*
X82127000Y-36192500D01*
X84158846Y-36192500D01*
X84262458Y-36713391D01*
X84550850Y-37145000D01*
X84262458Y-37576609D01*
X84158846Y-38097500D01*
X84262458Y-38618391D01*
X84557519Y-39059981D01*
X84590005Y-39081688D01*
X84425130Y-39240405D01*
X84227284Y-39669171D01*
X84350626Y-39875500D01*
X85493000Y-39875500D01*
X85493000Y-39855500D01*
X85747000Y-39855500D01*
X85747000Y-39875500D01*
X86889374Y-39875500D01*
X87012716Y-39669171D01*
X86814870Y-39240405D01*
X86649995Y-39081688D01*
X86682481Y-39059981D01*
X86977542Y-38618391D01*
X87081154Y-38097500D01*
X86977542Y-37576609D01*
X86689150Y-37145000D01*
X86977542Y-36713391D01*
X87081154Y-36192500D01*
X86977542Y-35671609D01*
X86682481Y-35230019D01*
X86240891Y-34934958D01*
X85851485Y-34857500D01*
X85388515Y-34857500D01*
X84999109Y-34934958D01*
X84557519Y-35230019D01*
X84262458Y-35671609D01*
X84158846Y-36192500D01*
X82127000Y-36192500D01*
X82127000Y-31734452D01*
X99165000Y-31734452D01*
X99165000Y-32265548D01*
X99368242Y-32756217D01*
X99743783Y-33131758D01*
X100234452Y-33335000D01*
X100765548Y-33335000D01*
X101256217Y-33131758D01*
X101631758Y-32756217D01*
X101835000Y-32265548D01*
X101835000Y-31734452D01*
X101631758Y-31243783D01*
X101256217Y-30868242D01*
X100765548Y-30665000D01*
X100234452Y-30665000D01*
X99743783Y-30868242D01*
X99368242Y-31243783D01*
X99165000Y-31734452D01*
X82127000Y-31734452D01*
X82127000Y-22955431D01*
X99365000Y-22955431D01*
X99365000Y-23844569D01*
X99705259Y-24666026D01*
X100333974Y-25294741D01*
X101155431Y-25635000D01*
X102044569Y-25635000D01*
X102866026Y-25294741D01*
X103494741Y-24666026D01*
X103835000Y-23844569D01*
X103835000Y-22955431D01*
X103494741Y-22133974D01*
X102866026Y-21505259D01*
X102044569Y-21165000D01*
X101155431Y-21165000D01*
X100333974Y-21505259D01*
X99705259Y-22133974D01*
X99365000Y-22955431D01*
X82127000Y-22955431D01*
X82127000Y-20735000D01*
X104265001Y-20735000D01*
X104265001Y-35545326D01*
X104265001Y-35545326D01*
G37*
X104265001Y-35545326D02*
X104050000Y-35502560D01*
X102350000Y-35502560D01*
X102102235Y-35551843D01*
X101892191Y-35692191D01*
X101751843Y-35902235D01*
X101702560Y-36150000D01*
X101702560Y-37850000D01*
X101751843Y-38097765D01*
X101892191Y-38307809D01*
X102102235Y-38448157D01*
X102147619Y-38457184D01*
X102129375Y-38469375D01*
X101801161Y-38960582D01*
X101685908Y-39540000D01*
X101801161Y-40119418D01*
X102129375Y-40610625D01*
X102448478Y-40823843D01*
X102318642Y-40884817D01*
X101928355Y-41313076D01*
X101758524Y-41723110D01*
X101879845Y-41953000D01*
X103073000Y-41953000D01*
X103073000Y-41933000D01*
X103327000Y-41933000D01*
X103327000Y-41953000D01*
X103347000Y-41953000D01*
X103347000Y-42207000D01*
X103327000Y-42207000D01*
X103327000Y-43400819D01*
X103556892Y-43521486D01*
X104081358Y-43275183D01*
X104265000Y-43073674D01*
X104265000Y-59265000D01*
X82127000Y-59265000D01*
X82127000Y-56155431D01*
X99365000Y-56155431D01*
X99365000Y-57044569D01*
X99705259Y-57866026D01*
X100333974Y-58494741D01*
X101155431Y-58835000D01*
X102044569Y-58835000D01*
X102866026Y-58494741D01*
X103494741Y-57866026D01*
X103835000Y-57044569D01*
X103835000Y-56155431D01*
X103494741Y-55333974D01*
X102866026Y-54705259D01*
X102044569Y-54365000D01*
X101155431Y-54365000D01*
X100333974Y-54705259D01*
X99705259Y-55333974D01*
X99365000Y-56155431D01*
X82127000Y-56155431D01*
X82127000Y-49734452D01*
X83665000Y-49734452D01*
X83665000Y-50265548D01*
X83868242Y-50756217D01*
X84243783Y-51131758D01*
X84734452Y-51335000D01*
X85265548Y-51335000D01*
X85756217Y-51131758D01*
X86131758Y-50756217D01*
X86335000Y-50265548D01*
X86335000Y-49935275D01*
X97244331Y-49935275D01*
X97306169Y-50171042D01*
X97807122Y-50347419D01*
X98337440Y-50318664D01*
X98693831Y-50171042D01*
X98755669Y-49935275D01*
X98000000Y-49179605D01*
X97244331Y-49935275D01*
X86335000Y-49935275D01*
X86335000Y-49734452D01*
X86131758Y-49243783D01*
X85756217Y-48868242D01*
X85608661Y-48807122D01*
X96652581Y-48807122D01*
X96681336Y-49337440D01*
X96828958Y-49693831D01*
X97064725Y-49755669D01*
X97820395Y-49000000D01*
X98179605Y-49000000D01*
X98935275Y-49755669D01*
X99171042Y-49693831D01*
X99347419Y-49192878D01*
X99318664Y-48662560D01*
X99171042Y-48306169D01*
X98935275Y-48244331D01*
X98179605Y-49000000D01*
X97820395Y-49000000D01*
X97064725Y-48244331D01*
X96828958Y-48306169D01*
X96652581Y-48807122D01*
X85608661Y-48807122D01*
X85265548Y-48665000D01*
X84734452Y-48665000D01*
X84243783Y-48868242D01*
X83868242Y-49243783D01*
X83665000Y-49734452D01*
X82127000Y-49734452D01*
X82127000Y-48064725D01*
X97244331Y-48064725D01*
X98000000Y-48820395D01*
X98755669Y-48064725D01*
X98693831Y-47828958D01*
X98192878Y-47652581D01*
X97662560Y-47681336D01*
X97306169Y-47828958D01*
X97244331Y-48064725D01*
X82127000Y-48064725D01*
X82127000Y-41907500D01*
X84158846Y-41907500D01*
X84262458Y-42428391D01*
X84557519Y-42869981D01*
X84999109Y-43165042D01*
X85388515Y-43242500D01*
X85851485Y-43242500D01*
X86240891Y-43165042D01*
X86682481Y-42869981D01*
X86971863Y-42436890D01*
X101758524Y-42436890D01*
X101928355Y-42846924D01*
X102318642Y-43275183D01*
X102843108Y-43521486D01*
X103073000Y-43400819D01*
X103073000Y-42207000D01*
X101879845Y-42207000D01*
X101758524Y-42436890D01*
X86971863Y-42436890D01*
X86977542Y-42428391D01*
X87081154Y-41907500D01*
X86977542Y-41386609D01*
X86682481Y-40945019D01*
X86649995Y-40923312D01*
X86814870Y-40764595D01*
X87012716Y-40335829D01*
X86889374Y-40129500D01*
X85747000Y-40129500D01*
X85747000Y-40149500D01*
X85493000Y-40149500D01*
X85493000Y-40129500D01*
X84350626Y-40129500D01*
X84227284Y-40335829D01*
X84425130Y-40764595D01*
X84590005Y-40923312D01*
X84557519Y-40945019D01*
X84262458Y-41386609D01*
X84158846Y-41907500D01*
X82127000Y-41907500D01*
X82127000Y-36192500D01*
X84158846Y-36192500D01*
X84262458Y-36713391D01*
X84550850Y-37145000D01*
X84262458Y-37576609D01*
X84158846Y-38097500D01*
X84262458Y-38618391D01*
X84557519Y-39059981D01*
X84590005Y-39081688D01*
X84425130Y-39240405D01*
X84227284Y-39669171D01*
X84350626Y-39875500D01*
X85493000Y-39875500D01*
X85493000Y-39855500D01*
X85747000Y-39855500D01*
X85747000Y-39875500D01*
X86889374Y-39875500D01*
X87012716Y-39669171D01*
X86814870Y-39240405D01*
X86649995Y-39081688D01*
X86682481Y-39059981D01*
X86977542Y-38618391D01*
X87081154Y-38097500D01*
X86977542Y-37576609D01*
X86689150Y-37145000D01*
X86977542Y-36713391D01*
X87081154Y-36192500D01*
X86977542Y-35671609D01*
X86682481Y-35230019D01*
X86240891Y-34934958D01*
X85851485Y-34857500D01*
X85388515Y-34857500D01*
X84999109Y-34934958D01*
X84557519Y-35230019D01*
X84262458Y-35671609D01*
X84158846Y-36192500D01*
X82127000Y-36192500D01*
X82127000Y-31734452D01*
X99165000Y-31734452D01*
X99165000Y-32265548D01*
X99368242Y-32756217D01*
X99743783Y-33131758D01*
X100234452Y-33335000D01*
X100765548Y-33335000D01*
X101256217Y-33131758D01*
X101631758Y-32756217D01*
X101835000Y-32265548D01*
X101835000Y-31734452D01*
X101631758Y-31243783D01*
X101256217Y-30868242D01*
X100765548Y-30665000D01*
X100234452Y-30665000D01*
X99743783Y-30868242D01*
X99368242Y-31243783D01*
X99165000Y-31734452D01*
X82127000Y-31734452D01*
X82127000Y-22955431D01*
X99365000Y-22955431D01*
X99365000Y-23844569D01*
X99705259Y-24666026D01*
X100333974Y-25294741D01*
X101155431Y-25635000D01*
X102044569Y-25635000D01*
X102866026Y-25294741D01*
X103494741Y-24666026D01*
X103835000Y-23844569D01*
X103835000Y-22955431D01*
X103494741Y-22133974D01*
X102866026Y-21505259D01*
X102044569Y-21165000D01*
X101155431Y-21165000D01*
X100333974Y-21505259D01*
X99705259Y-22133974D01*
X99365000Y-22955431D01*
X82127000Y-22955431D01*
X82127000Y-20735000D01*
X104265001Y-20735000D01*
X104265001Y-35545326D01*
G04 #@! TD*
M02*
