G04 #@! TF.GenerationSoftware,KiCad,Pcbnew,(5.0.2)-1*
G04 #@! TF.CreationDate,2021-01-16T20:27:13+09:00*
G04 #@! TF.ProjectId,LEMCurrentSensor,4c454d43-7572-4726-956e-7453656e736f,rev?*
G04 #@! TF.SameCoordinates,Original*
G04 #@! TF.FileFunction,Soldermask,Top*
G04 #@! TF.FilePolarity,Negative*
%FSLAX46Y46*%
G04 Gerber Fmt 4.6, Leading zero omitted, Abs format (unit mm)*
G04 Created by KiCad (PCBNEW (5.0.2)-1) date 2021/01/16 20:27:13*
%MOMM*%
%LPD*%
G01*
G04 APERTURE LIST*
%ADD10C,0.100000*%
G04 APERTURE END LIST*
D10*
G36*
X101975256Y-54991298D02*
X102081579Y-55012447D01*
X102382042Y-55136903D01*
X102648852Y-55315180D01*
X102652454Y-55317587D01*
X102882413Y-55547546D01*
X103063098Y-55817960D01*
X103187553Y-56118422D01*
X103251000Y-56437389D01*
X103251000Y-56762611D01*
X103187553Y-57081578D01*
X103063098Y-57382040D01*
X102882413Y-57652454D01*
X102652454Y-57882413D01*
X102652451Y-57882415D01*
X102382042Y-58063097D01*
X102081579Y-58187553D01*
X101975256Y-58208702D01*
X101762611Y-58251000D01*
X101437389Y-58251000D01*
X101224744Y-58208702D01*
X101118421Y-58187553D01*
X100817958Y-58063097D01*
X100547549Y-57882415D01*
X100547546Y-57882413D01*
X100317587Y-57652454D01*
X100136902Y-57382040D01*
X100012447Y-57081578D01*
X99949000Y-56762611D01*
X99949000Y-56437389D01*
X100012447Y-56118422D01*
X100136902Y-55817960D01*
X100317587Y-55547546D01*
X100547546Y-55317587D01*
X100551148Y-55315180D01*
X100817958Y-55136903D01*
X101118421Y-55012447D01*
X101224744Y-54991298D01*
X101437389Y-54949000D01*
X101762611Y-54949000D01*
X101975256Y-54991298D01*
X101975256Y-54991298D01*
G37*
G36*
X68775256Y-54991298D02*
X68881579Y-55012447D01*
X69182042Y-55136903D01*
X69448852Y-55315180D01*
X69452454Y-55317587D01*
X69682413Y-55547546D01*
X69863098Y-55817960D01*
X69987553Y-56118422D01*
X70051000Y-56437389D01*
X70051000Y-56762611D01*
X69987553Y-57081578D01*
X69863098Y-57382040D01*
X69682413Y-57652454D01*
X69452454Y-57882413D01*
X69452451Y-57882415D01*
X69182042Y-58063097D01*
X68881579Y-58187553D01*
X68775256Y-58208702D01*
X68562611Y-58251000D01*
X68237389Y-58251000D01*
X68024744Y-58208702D01*
X67918421Y-58187553D01*
X67617958Y-58063097D01*
X67347549Y-57882415D01*
X67347546Y-57882413D01*
X67117587Y-57652454D01*
X66936902Y-57382040D01*
X66812447Y-57081578D01*
X66749000Y-56762611D01*
X66749000Y-56437389D01*
X66812447Y-56118422D01*
X66936902Y-55817960D01*
X67117587Y-55547546D01*
X67347546Y-55317587D01*
X67351148Y-55315180D01*
X67617958Y-55136903D01*
X67918421Y-55012447D01*
X68024744Y-54991298D01*
X68237389Y-54949000D01*
X68562611Y-54949000D01*
X68775256Y-54991298D01*
X68775256Y-54991298D01*
G37*
G36*
X85132004Y-49260544D02*
X85219059Y-49277860D01*
X85355732Y-49334472D01*
X85387551Y-49355733D01*
X85478738Y-49416662D01*
X85583338Y-49521262D01*
X85583340Y-49521265D01*
X85665528Y-49644268D01*
X85722140Y-49780941D01*
X85751000Y-49926033D01*
X85751000Y-50073967D01*
X85722140Y-50219059D01*
X85665528Y-50355732D01*
X85665527Y-50355733D01*
X85583338Y-50478738D01*
X85478738Y-50583338D01*
X85478735Y-50583340D01*
X85355732Y-50665528D01*
X85219059Y-50722140D01*
X85132004Y-50739456D01*
X85073969Y-50751000D01*
X84926031Y-50751000D01*
X84867996Y-50739456D01*
X84780941Y-50722140D01*
X84644268Y-50665528D01*
X84521265Y-50583340D01*
X84521262Y-50583338D01*
X84416662Y-50478738D01*
X84334473Y-50355733D01*
X84334472Y-50355732D01*
X84277860Y-50219059D01*
X84249000Y-50073967D01*
X84249000Y-49926033D01*
X84277860Y-49780941D01*
X84334472Y-49644268D01*
X84416660Y-49521265D01*
X84416662Y-49521262D01*
X84521262Y-49416662D01*
X84612449Y-49355733D01*
X84644268Y-49334472D01*
X84780941Y-49277860D01*
X84867996Y-49260544D01*
X84926031Y-49249000D01*
X85073969Y-49249000D01*
X85132004Y-49260544D01*
X85132004Y-49260544D01*
G37*
G36*
X98132004Y-48260544D02*
X98219059Y-48277860D01*
X98355732Y-48334472D01*
X98355733Y-48334473D01*
X98478738Y-48416662D01*
X98583338Y-48521262D01*
X98583340Y-48521265D01*
X98665528Y-48644268D01*
X98722140Y-48780941D01*
X98751000Y-48926033D01*
X98751000Y-49073967D01*
X98722140Y-49219059D01*
X98665528Y-49355732D01*
X98665527Y-49355733D01*
X98583338Y-49478738D01*
X98478738Y-49583338D01*
X98478735Y-49583340D01*
X98355732Y-49665528D01*
X98219059Y-49722140D01*
X98132004Y-49739456D01*
X98073969Y-49751000D01*
X97926031Y-49751000D01*
X97867996Y-49739456D01*
X97780941Y-49722140D01*
X97644268Y-49665528D01*
X97521265Y-49583340D01*
X97521262Y-49583338D01*
X97416662Y-49478738D01*
X97334473Y-49355733D01*
X97334472Y-49355732D01*
X97277860Y-49219059D01*
X97249000Y-49073967D01*
X97249000Y-48926033D01*
X97277860Y-48780941D01*
X97334472Y-48644268D01*
X97416660Y-48521265D01*
X97416662Y-48521262D01*
X97521262Y-48416662D01*
X97644267Y-48334473D01*
X97644268Y-48334472D01*
X97780941Y-48277860D01*
X97867996Y-48260544D01*
X97926031Y-48249000D01*
X98073969Y-48249000D01*
X98132004Y-48260544D01*
X98132004Y-48260544D01*
G37*
G36*
X69651000Y-49251000D02*
X65549000Y-49251000D01*
X65549000Y-45149000D01*
X69651000Y-45149000D01*
X69651000Y-49251000D01*
X69651000Y-49251000D01*
G37*
G36*
X73116232Y-44113483D02*
X73304919Y-44170721D01*
X73478817Y-44263671D01*
X73631239Y-44388761D01*
X73756329Y-44541183D01*
X73849279Y-44715082D01*
X73906517Y-44903769D01*
X73921000Y-45050825D01*
X73921000Y-45749176D01*
X73906517Y-45896232D01*
X73849279Y-46084919D01*
X73756329Y-46258817D01*
X73631239Y-46411239D01*
X73478817Y-46536329D01*
X73304918Y-46629279D01*
X73116231Y-46686517D01*
X72920000Y-46705843D01*
X72723768Y-46686517D01*
X72535081Y-46629279D01*
X72361183Y-46536329D01*
X72208761Y-46411239D01*
X72083671Y-46258817D01*
X71990721Y-46084918D01*
X71933483Y-45896231D01*
X71919000Y-45749175D01*
X71919000Y-45050824D01*
X71933483Y-44903768D01*
X71990722Y-44715081D01*
X72083672Y-44541183D01*
X72208762Y-44388761D01*
X72361184Y-44263671D01*
X72535082Y-44170721D01*
X72723769Y-44113483D01*
X72920000Y-44094157D01*
X73116232Y-44113483D01*
X73116232Y-44113483D01*
G37*
G36*
X75656232Y-44113483D02*
X75844919Y-44170721D01*
X76018817Y-44263671D01*
X76171239Y-44388761D01*
X76296329Y-44541183D01*
X76389279Y-44715082D01*
X76446517Y-44903769D01*
X76461000Y-45050825D01*
X76461000Y-45749176D01*
X76446517Y-45896232D01*
X76389279Y-46084919D01*
X76296329Y-46258817D01*
X76171239Y-46411239D01*
X76018817Y-46536329D01*
X75844918Y-46629279D01*
X75656231Y-46686517D01*
X75460000Y-46705843D01*
X75263768Y-46686517D01*
X75075081Y-46629279D01*
X74901183Y-46536329D01*
X74748761Y-46411239D01*
X74623671Y-46258817D01*
X74530721Y-46084918D01*
X74473483Y-45896231D01*
X74459000Y-45749175D01*
X74459000Y-45050824D01*
X74473483Y-44903768D01*
X74530722Y-44715081D01*
X74623672Y-44541183D01*
X74748762Y-44388761D01*
X74901184Y-44263671D01*
X75075082Y-44170721D01*
X75263769Y-44113483D01*
X75460000Y-44094157D01*
X75656232Y-44113483D01*
X75656232Y-44113483D01*
G37*
G36*
X78874915Y-44102600D02*
X78904154Y-44111470D01*
X78931114Y-44125880D01*
X78954735Y-44145265D01*
X78974120Y-44168886D01*
X78988530Y-44195846D01*
X78997400Y-44225085D01*
X79001000Y-44261640D01*
X79001000Y-46538360D01*
X78997400Y-46574915D01*
X78988530Y-46604154D01*
X78974120Y-46631114D01*
X78954735Y-46654735D01*
X78931114Y-46674120D01*
X78904154Y-46688530D01*
X78874915Y-46697400D01*
X78838360Y-46701000D01*
X77161640Y-46701000D01*
X77125085Y-46697400D01*
X77095846Y-46688530D01*
X77068886Y-46674120D01*
X77045265Y-46654735D01*
X77025880Y-46631114D01*
X77011470Y-46604154D01*
X77002600Y-46574915D01*
X76999000Y-46538360D01*
X76999000Y-44261640D01*
X77002600Y-44225085D01*
X77011470Y-44195846D01*
X77025880Y-44168886D01*
X77045265Y-44145265D01*
X77068886Y-44125880D01*
X77095846Y-44111470D01*
X77125085Y-44102600D01*
X77161640Y-44099000D01*
X78838360Y-44099000D01*
X78874915Y-44102600D01*
X78874915Y-44102600D01*
G37*
G36*
X88426999Y-45478445D02*
X88464493Y-45489819D01*
X88499057Y-45508294D01*
X88529347Y-45533153D01*
X88554206Y-45563443D01*
X88572681Y-45598007D01*
X88584055Y-45635501D01*
X88588500Y-45680638D01*
X88588500Y-46319362D01*
X88584055Y-46364499D01*
X88572681Y-46401993D01*
X88554206Y-46436557D01*
X88529347Y-46466847D01*
X88499057Y-46491706D01*
X88464493Y-46510181D01*
X88426999Y-46521555D01*
X88381862Y-46526000D01*
X87618138Y-46526000D01*
X87573001Y-46521555D01*
X87535507Y-46510181D01*
X87500943Y-46491706D01*
X87470653Y-46466847D01*
X87445794Y-46436557D01*
X87427319Y-46401993D01*
X87415945Y-46364499D01*
X87411500Y-46319362D01*
X87411500Y-45680638D01*
X87415945Y-45635501D01*
X87427319Y-45598007D01*
X87445794Y-45563443D01*
X87470653Y-45533153D01*
X87500943Y-45508294D01*
X87535507Y-45489819D01*
X87573001Y-45478445D01*
X87618138Y-45474000D01*
X88381862Y-45474000D01*
X88426999Y-45478445D01*
X88426999Y-45478445D01*
G37*
G36*
X86701999Y-45478445D02*
X86739493Y-45489819D01*
X86774057Y-45508294D01*
X86804347Y-45533153D01*
X86829206Y-45563443D01*
X86847681Y-45598007D01*
X86859055Y-45635501D01*
X86863500Y-45680638D01*
X86863500Y-46319362D01*
X86859055Y-46364499D01*
X86847681Y-46401993D01*
X86829206Y-46436557D01*
X86804347Y-46466847D01*
X86774057Y-46491706D01*
X86739493Y-46510181D01*
X86701999Y-46521555D01*
X86656862Y-46526000D01*
X85893138Y-46526000D01*
X85848001Y-46521555D01*
X85810507Y-46510181D01*
X85775943Y-46491706D01*
X85745653Y-46466847D01*
X85720794Y-46436557D01*
X85702319Y-46401993D01*
X85690945Y-46364499D01*
X85686500Y-46319362D01*
X85686500Y-45680638D01*
X85690945Y-45635501D01*
X85702319Y-45598007D01*
X85720794Y-45563443D01*
X85745653Y-45533153D01*
X85775943Y-45508294D01*
X85810507Y-45489819D01*
X85848001Y-45478445D01*
X85893138Y-45474000D01*
X86656862Y-45474000D01*
X86701999Y-45478445D01*
X86701999Y-45478445D01*
G37*
G36*
X93226999Y-45078445D02*
X93264493Y-45089819D01*
X93299057Y-45108294D01*
X93329347Y-45133153D01*
X93354206Y-45163443D01*
X93372681Y-45198007D01*
X93384055Y-45235501D01*
X93388500Y-45280638D01*
X93388500Y-45919362D01*
X93384055Y-45964499D01*
X93372681Y-46001993D01*
X93354206Y-46036557D01*
X93329347Y-46066847D01*
X93299057Y-46091706D01*
X93264493Y-46110181D01*
X93226999Y-46121555D01*
X93181862Y-46126000D01*
X92418138Y-46126000D01*
X92373001Y-46121555D01*
X92335507Y-46110181D01*
X92300943Y-46091706D01*
X92270653Y-46066847D01*
X92245794Y-46036557D01*
X92227319Y-46001993D01*
X92215945Y-45964499D01*
X92211500Y-45919362D01*
X92211500Y-45280638D01*
X92215945Y-45235501D01*
X92227319Y-45198007D01*
X92245794Y-45163443D01*
X92270653Y-45133153D01*
X92300943Y-45108294D01*
X92335507Y-45089819D01*
X92373001Y-45078445D01*
X92418138Y-45074000D01*
X93181862Y-45074000D01*
X93226999Y-45078445D01*
X93226999Y-45078445D01*
G37*
G36*
X91501999Y-45078445D02*
X91539493Y-45089819D01*
X91574057Y-45108294D01*
X91604347Y-45133153D01*
X91629206Y-45163443D01*
X91647681Y-45198007D01*
X91659055Y-45235501D01*
X91663500Y-45280638D01*
X91663500Y-45919362D01*
X91659055Y-45964499D01*
X91647681Y-46001993D01*
X91629206Y-46036557D01*
X91604347Y-46066847D01*
X91574057Y-46091706D01*
X91539493Y-46110181D01*
X91501999Y-46121555D01*
X91456862Y-46126000D01*
X90693138Y-46126000D01*
X90648001Y-46121555D01*
X90610507Y-46110181D01*
X90575943Y-46091706D01*
X90545653Y-46066847D01*
X90520794Y-46036557D01*
X90502319Y-46001993D01*
X90490945Y-45964499D01*
X90486500Y-45919362D01*
X90486500Y-45280638D01*
X90490945Y-45235501D01*
X90502319Y-45198007D01*
X90520794Y-45163443D01*
X90545653Y-45133153D01*
X90575943Y-45108294D01*
X90610507Y-45089819D01*
X90648001Y-45078445D01*
X90693138Y-45074000D01*
X91456862Y-45074000D01*
X91501999Y-45078445D01*
X91501999Y-45078445D01*
G37*
G36*
X93176999Y-43478445D02*
X93214493Y-43489819D01*
X93249057Y-43508294D01*
X93279347Y-43533153D01*
X93304206Y-43563443D01*
X93322681Y-43598007D01*
X93334055Y-43635501D01*
X93338500Y-43680638D01*
X93338500Y-44319362D01*
X93334055Y-44364499D01*
X93322681Y-44401993D01*
X93304206Y-44436557D01*
X93279347Y-44466847D01*
X93249057Y-44491706D01*
X93214493Y-44510181D01*
X93176999Y-44521555D01*
X93131862Y-44526000D01*
X92468138Y-44526000D01*
X92423001Y-44521555D01*
X92385507Y-44510181D01*
X92350943Y-44491706D01*
X92320653Y-44466847D01*
X92295794Y-44436557D01*
X92277319Y-44401993D01*
X92265945Y-44364499D01*
X92261500Y-44319362D01*
X92261500Y-43680638D01*
X92265945Y-43635501D01*
X92277319Y-43598007D01*
X92295794Y-43563443D01*
X92320653Y-43533153D01*
X92350943Y-43508294D01*
X92385507Y-43489819D01*
X92423001Y-43478445D01*
X92468138Y-43474000D01*
X93131862Y-43474000D01*
X93176999Y-43478445D01*
X93176999Y-43478445D01*
G37*
G36*
X91351999Y-43478445D02*
X91389493Y-43489819D01*
X91424057Y-43508294D01*
X91454347Y-43533153D01*
X91479206Y-43563443D01*
X91497681Y-43598007D01*
X91509055Y-43635501D01*
X91513500Y-43680638D01*
X91513500Y-44319362D01*
X91509055Y-44364499D01*
X91497681Y-44401993D01*
X91479206Y-44436557D01*
X91454347Y-44466847D01*
X91424057Y-44491706D01*
X91389493Y-44510181D01*
X91351999Y-44521555D01*
X91306862Y-44526000D01*
X90643138Y-44526000D01*
X90598001Y-44521555D01*
X90560507Y-44510181D01*
X90525943Y-44491706D01*
X90495653Y-44466847D01*
X90470794Y-44436557D01*
X90452319Y-44401993D01*
X90440945Y-44364499D01*
X90436500Y-44319362D01*
X90436500Y-43680638D01*
X90440945Y-43635501D01*
X90452319Y-43598007D01*
X90470794Y-43563443D01*
X90495653Y-43533153D01*
X90525943Y-43508294D01*
X90560507Y-43489819D01*
X90598001Y-43478445D01*
X90643138Y-43474000D01*
X91306862Y-43474000D01*
X91351999Y-43478445D01*
X91351999Y-43478445D01*
G37*
G36*
X103310443Y-41185519D02*
X103376627Y-41192037D01*
X103489853Y-41226384D01*
X103546467Y-41243557D01*
X103615581Y-41280500D01*
X103702991Y-41327222D01*
X103727896Y-41347661D01*
X103840186Y-41439814D01*
X103923448Y-41541271D01*
X103952778Y-41577009D01*
X103952779Y-41577011D01*
X104036443Y-41733533D01*
X104036443Y-41733534D01*
X104087963Y-41903373D01*
X104105359Y-42080000D01*
X104087963Y-42256627D01*
X104053616Y-42369853D01*
X104036443Y-42426467D01*
X104028618Y-42441106D01*
X103952778Y-42582991D01*
X103934970Y-42604690D01*
X103840186Y-42720186D01*
X103738729Y-42803448D01*
X103702991Y-42832778D01*
X103702989Y-42832779D01*
X103546467Y-42916443D01*
X103489853Y-42933616D01*
X103376627Y-42967963D01*
X103310442Y-42974482D01*
X103244260Y-42981000D01*
X103155740Y-42981000D01*
X103089557Y-42974481D01*
X103023373Y-42967963D01*
X102910147Y-42933616D01*
X102853533Y-42916443D01*
X102697011Y-42832779D01*
X102697009Y-42832778D01*
X102661271Y-42803448D01*
X102559814Y-42720186D01*
X102465030Y-42604690D01*
X102447222Y-42582991D01*
X102371382Y-42441106D01*
X102363557Y-42426467D01*
X102346384Y-42369853D01*
X102312037Y-42256627D01*
X102294641Y-42080000D01*
X102312037Y-41903373D01*
X102363557Y-41733534D01*
X102363557Y-41733533D01*
X102447221Y-41577011D01*
X102447222Y-41577009D01*
X102476552Y-41541271D01*
X102559814Y-41439814D01*
X102672104Y-41347661D01*
X102697009Y-41327222D01*
X102784419Y-41280500D01*
X102853533Y-41243557D01*
X102910147Y-41226384D01*
X103023373Y-41192037D01*
X103089557Y-41185519D01*
X103155740Y-41179000D01*
X103244260Y-41179000D01*
X103310443Y-41185519D01*
X103310443Y-41185519D01*
G37*
G36*
X85793665Y-41160122D02*
X85867222Y-41167367D01*
X86008786Y-41210310D01*
X86139252Y-41280046D01*
X86253606Y-41373894D01*
X86347454Y-41488248D01*
X86417190Y-41618714D01*
X86460133Y-41760278D01*
X86474633Y-41907500D01*
X86460133Y-42054722D01*
X86417190Y-42196286D01*
X86347454Y-42326752D01*
X86253606Y-42441106D01*
X86139252Y-42534954D01*
X86008786Y-42604690D01*
X85867222Y-42647633D01*
X85793665Y-42654878D01*
X85756888Y-42658500D01*
X85483112Y-42658500D01*
X85446335Y-42654878D01*
X85372778Y-42647633D01*
X85231214Y-42604690D01*
X85100748Y-42534954D01*
X84986394Y-42441106D01*
X84892546Y-42326752D01*
X84822810Y-42196286D01*
X84779867Y-42054722D01*
X84765367Y-41907500D01*
X84779867Y-41760278D01*
X84822810Y-41618714D01*
X84892546Y-41488248D01*
X84986394Y-41373894D01*
X85100748Y-41280046D01*
X85231214Y-41210310D01*
X85372778Y-41167367D01*
X85446335Y-41160122D01*
X85483112Y-41156500D01*
X85756888Y-41156500D01*
X85793665Y-41160122D01*
X85793665Y-41160122D01*
G37*
G36*
X92459928Y-40756764D02*
X92481011Y-40763160D01*
X92500442Y-40773546D01*
X92517475Y-40787525D01*
X92531454Y-40804558D01*
X92541840Y-40823989D01*
X92548236Y-40845072D01*
X92551000Y-40873140D01*
X92551000Y-41336860D01*
X92548236Y-41364928D01*
X92541840Y-41386011D01*
X92531454Y-41405442D01*
X92517475Y-41422475D01*
X92500442Y-41436454D01*
X92481011Y-41446840D01*
X92459928Y-41453236D01*
X92431860Y-41456000D01*
X90618140Y-41456000D01*
X90590072Y-41453236D01*
X90568989Y-41446840D01*
X90549558Y-41436454D01*
X90532525Y-41422475D01*
X90518546Y-41405442D01*
X90508160Y-41386011D01*
X90501764Y-41364928D01*
X90499000Y-41336860D01*
X90499000Y-40873140D01*
X90501764Y-40845072D01*
X90508160Y-40823989D01*
X90518546Y-40804558D01*
X90532525Y-40787525D01*
X90549558Y-40773546D01*
X90568989Y-40763160D01*
X90590072Y-40756764D01*
X90618140Y-40754000D01*
X92431860Y-40754000D01*
X92459928Y-40756764D01*
X92459928Y-40756764D01*
G37*
G36*
X97409928Y-40756764D02*
X97431011Y-40763160D01*
X97450442Y-40773546D01*
X97467475Y-40787525D01*
X97481454Y-40804558D01*
X97491840Y-40823989D01*
X97498236Y-40845072D01*
X97501000Y-40873140D01*
X97501000Y-41336860D01*
X97498236Y-41364928D01*
X97491840Y-41386011D01*
X97481454Y-41405442D01*
X97467475Y-41422475D01*
X97450442Y-41436454D01*
X97431011Y-41446840D01*
X97409928Y-41453236D01*
X97381860Y-41456000D01*
X95568140Y-41456000D01*
X95540072Y-41453236D01*
X95518989Y-41446840D01*
X95499558Y-41436454D01*
X95482525Y-41422475D01*
X95468546Y-41405442D01*
X95458160Y-41386011D01*
X95451764Y-41364928D01*
X95449000Y-41336860D01*
X95449000Y-40873140D01*
X95451764Y-40845072D01*
X95458160Y-40823989D01*
X95468546Y-40804558D01*
X95482525Y-40787525D01*
X95499558Y-40773546D01*
X95518989Y-40763160D01*
X95540072Y-40756764D01*
X95568140Y-40754000D01*
X97381860Y-40754000D01*
X97409928Y-40756764D01*
X97409928Y-40756764D01*
G37*
G36*
X99164499Y-39615945D02*
X99201993Y-39627319D01*
X99236557Y-39645794D01*
X99266847Y-39670653D01*
X99291706Y-39700943D01*
X99310181Y-39735507D01*
X99321555Y-39773001D01*
X99326000Y-39818138D01*
X99326000Y-40581862D01*
X99321555Y-40626999D01*
X99310181Y-40664493D01*
X99291706Y-40699057D01*
X99266847Y-40729347D01*
X99236557Y-40754206D01*
X99201993Y-40772681D01*
X99164499Y-40784055D01*
X99119362Y-40788500D01*
X98480638Y-40788500D01*
X98435501Y-40784055D01*
X98398007Y-40772681D01*
X98363443Y-40754206D01*
X98333153Y-40729347D01*
X98308294Y-40699057D01*
X98289819Y-40664493D01*
X98278445Y-40626999D01*
X98274000Y-40581862D01*
X98274000Y-39818138D01*
X98278445Y-39773001D01*
X98289819Y-39735507D01*
X98308294Y-39700943D01*
X98333153Y-39670653D01*
X98363443Y-39645794D01*
X98398007Y-39627319D01*
X98435501Y-39615945D01*
X98480638Y-39611500D01*
X99119362Y-39611500D01*
X99164499Y-39615945D01*
X99164499Y-39615945D01*
G37*
G36*
X85793665Y-39255122D02*
X85867222Y-39262367D01*
X86008786Y-39305310D01*
X86139252Y-39375046D01*
X86253606Y-39468894D01*
X86347454Y-39583248D01*
X86417190Y-39713714D01*
X86460133Y-39855278D01*
X86474633Y-40002500D01*
X86460133Y-40149722D01*
X86417190Y-40291286D01*
X86347454Y-40421752D01*
X86253606Y-40536106D01*
X86139252Y-40629954D01*
X86008786Y-40699690D01*
X85867222Y-40742633D01*
X85793665Y-40749878D01*
X85756888Y-40753500D01*
X85483112Y-40753500D01*
X85446335Y-40749878D01*
X85372778Y-40742633D01*
X85231214Y-40699690D01*
X85100748Y-40629954D01*
X84986394Y-40536106D01*
X84892546Y-40421752D01*
X84822810Y-40291286D01*
X84779867Y-40149722D01*
X84765367Y-40002500D01*
X84779867Y-39855278D01*
X84822810Y-39713714D01*
X84892546Y-39583248D01*
X84986394Y-39468894D01*
X85100748Y-39375046D01*
X85231214Y-39305310D01*
X85372778Y-39262367D01*
X85446335Y-39255122D01*
X85483112Y-39251500D01*
X85756888Y-39251500D01*
X85793665Y-39255122D01*
X85793665Y-39255122D01*
G37*
G36*
X103310443Y-38645519D02*
X103376627Y-38652037D01*
X103489853Y-38686384D01*
X103546467Y-38703557D01*
X103586497Y-38724954D01*
X103702991Y-38787222D01*
X103719170Y-38800500D01*
X103840186Y-38899814D01*
X103911301Y-38986469D01*
X103952778Y-39037009D01*
X103952779Y-39037011D01*
X104036443Y-39193533D01*
X104036443Y-39193534D01*
X104087963Y-39363373D01*
X104105359Y-39540000D01*
X104087963Y-39716627D01*
X104070862Y-39773001D01*
X104036443Y-39886467D01*
X103974421Y-40002500D01*
X103952778Y-40042991D01*
X103951344Y-40044738D01*
X103840186Y-40180186D01*
X103738729Y-40263448D01*
X103702991Y-40292778D01*
X103702989Y-40292779D01*
X103546467Y-40376443D01*
X103489853Y-40393616D01*
X103376627Y-40427963D01*
X103310442Y-40434482D01*
X103244260Y-40441000D01*
X103155740Y-40441000D01*
X103089558Y-40434482D01*
X103023373Y-40427963D01*
X102910147Y-40393616D01*
X102853533Y-40376443D01*
X102697011Y-40292779D01*
X102697009Y-40292778D01*
X102661271Y-40263448D01*
X102559814Y-40180186D01*
X102448656Y-40044738D01*
X102447222Y-40042991D01*
X102425579Y-40002500D01*
X102363557Y-39886467D01*
X102329138Y-39773001D01*
X102312037Y-39716627D01*
X102294641Y-39540000D01*
X102312037Y-39363373D01*
X102363557Y-39193534D01*
X102363557Y-39193533D01*
X102447221Y-39037011D01*
X102447222Y-39037009D01*
X102488699Y-38986469D01*
X102559814Y-38899814D01*
X102680830Y-38800500D01*
X102697009Y-38787222D01*
X102813503Y-38724954D01*
X102853533Y-38703557D01*
X102910147Y-38686384D01*
X103023373Y-38652037D01*
X103089557Y-38645519D01*
X103155740Y-38639000D01*
X103244260Y-38639000D01*
X103310443Y-38645519D01*
X103310443Y-38645519D01*
G37*
G36*
X97409928Y-39486764D02*
X97431011Y-39493160D01*
X97450442Y-39503546D01*
X97467475Y-39517525D01*
X97481454Y-39534558D01*
X97491840Y-39553989D01*
X97498236Y-39575072D01*
X97501000Y-39603140D01*
X97501000Y-40066860D01*
X97498236Y-40094928D01*
X97491840Y-40116011D01*
X97481454Y-40135442D01*
X97467475Y-40152475D01*
X97450442Y-40166454D01*
X97431011Y-40176840D01*
X97409928Y-40183236D01*
X97381860Y-40186000D01*
X95568140Y-40186000D01*
X95540072Y-40183236D01*
X95518989Y-40176840D01*
X95499558Y-40166454D01*
X95482525Y-40152475D01*
X95468546Y-40135442D01*
X95458160Y-40116011D01*
X95451764Y-40094928D01*
X95449000Y-40066860D01*
X95449000Y-39603140D01*
X95451764Y-39575072D01*
X95458160Y-39553989D01*
X95468546Y-39534558D01*
X95482525Y-39517525D01*
X95499558Y-39503546D01*
X95518989Y-39493160D01*
X95540072Y-39486764D01*
X95568140Y-39484000D01*
X97381860Y-39484000D01*
X97409928Y-39486764D01*
X97409928Y-39486764D01*
G37*
G36*
X92459928Y-39486764D02*
X92481011Y-39493160D01*
X92500442Y-39503546D01*
X92517475Y-39517525D01*
X92531454Y-39534558D01*
X92541840Y-39553989D01*
X92548236Y-39575072D01*
X92551000Y-39603140D01*
X92551000Y-40066860D01*
X92548236Y-40094928D01*
X92541840Y-40116011D01*
X92531454Y-40135442D01*
X92517475Y-40152475D01*
X92500442Y-40166454D01*
X92481011Y-40176840D01*
X92459928Y-40183236D01*
X92431860Y-40186000D01*
X90618140Y-40186000D01*
X90590072Y-40183236D01*
X90568989Y-40176840D01*
X90549558Y-40166454D01*
X90532525Y-40152475D01*
X90518546Y-40135442D01*
X90508160Y-40116011D01*
X90501764Y-40094928D01*
X90499000Y-40066860D01*
X90499000Y-39603140D01*
X90501764Y-39575072D01*
X90508160Y-39553989D01*
X90518546Y-39534558D01*
X90532525Y-39517525D01*
X90549558Y-39503546D01*
X90568989Y-39493160D01*
X90590072Y-39486764D01*
X90618140Y-39484000D01*
X92431860Y-39484000D01*
X92459928Y-39486764D01*
X92459928Y-39486764D01*
G37*
G36*
X99164499Y-37890945D02*
X99201993Y-37902319D01*
X99236557Y-37920794D01*
X99266847Y-37945653D01*
X99291706Y-37975943D01*
X99310181Y-38010507D01*
X99321555Y-38048001D01*
X99326000Y-38093138D01*
X99326000Y-38856862D01*
X99321555Y-38901999D01*
X99310181Y-38939493D01*
X99291706Y-38974057D01*
X99266847Y-39004347D01*
X99236557Y-39029206D01*
X99201993Y-39047681D01*
X99164499Y-39059055D01*
X99119362Y-39063500D01*
X98480638Y-39063500D01*
X98435501Y-39059055D01*
X98398007Y-39047681D01*
X98363443Y-39029206D01*
X98333153Y-39004347D01*
X98308294Y-38974057D01*
X98289819Y-38939493D01*
X98278445Y-38901999D01*
X98274000Y-38856862D01*
X98274000Y-38093138D01*
X98278445Y-38048001D01*
X98289819Y-38010507D01*
X98308294Y-37975943D01*
X98333153Y-37945653D01*
X98363443Y-37920794D01*
X98398007Y-37902319D01*
X98435501Y-37890945D01*
X98480638Y-37886500D01*
X99119362Y-37886500D01*
X99164499Y-37890945D01*
X99164499Y-37890945D01*
G37*
G36*
X92459928Y-38216764D02*
X92481011Y-38223160D01*
X92500442Y-38233546D01*
X92517475Y-38247525D01*
X92531454Y-38264558D01*
X92541840Y-38283989D01*
X92548236Y-38305072D01*
X92551000Y-38333140D01*
X92551000Y-38796860D01*
X92548236Y-38824928D01*
X92541840Y-38846011D01*
X92531454Y-38865442D01*
X92517475Y-38882475D01*
X92500442Y-38896454D01*
X92481011Y-38906840D01*
X92459928Y-38913236D01*
X92431860Y-38916000D01*
X90618140Y-38916000D01*
X90590072Y-38913236D01*
X90568989Y-38906840D01*
X90549558Y-38896454D01*
X90532525Y-38882475D01*
X90518546Y-38865442D01*
X90508160Y-38846011D01*
X90501764Y-38824928D01*
X90499000Y-38796860D01*
X90499000Y-38333140D01*
X90501764Y-38305072D01*
X90508160Y-38283989D01*
X90518546Y-38264558D01*
X90532525Y-38247525D01*
X90549558Y-38233546D01*
X90568989Y-38223160D01*
X90590072Y-38216764D01*
X90618140Y-38214000D01*
X92431860Y-38214000D01*
X92459928Y-38216764D01*
X92459928Y-38216764D01*
G37*
G36*
X97409928Y-38216764D02*
X97431011Y-38223160D01*
X97450442Y-38233546D01*
X97467475Y-38247525D01*
X97481454Y-38264558D01*
X97491840Y-38283989D01*
X97498236Y-38305072D01*
X97501000Y-38333140D01*
X97501000Y-38796860D01*
X97498236Y-38824928D01*
X97491840Y-38846011D01*
X97481454Y-38865442D01*
X97467475Y-38882475D01*
X97450442Y-38896454D01*
X97431011Y-38906840D01*
X97409928Y-38913236D01*
X97381860Y-38916000D01*
X95568140Y-38916000D01*
X95540072Y-38913236D01*
X95518989Y-38906840D01*
X95499558Y-38896454D01*
X95482525Y-38882475D01*
X95468546Y-38865442D01*
X95458160Y-38846011D01*
X95451764Y-38824928D01*
X95449000Y-38796860D01*
X95449000Y-38333140D01*
X95451764Y-38305072D01*
X95458160Y-38283989D01*
X95468546Y-38264558D01*
X95482525Y-38247525D01*
X95499558Y-38233546D01*
X95518989Y-38223160D01*
X95540072Y-38216764D01*
X95568140Y-38214000D01*
X97381860Y-38214000D01*
X97409928Y-38216764D01*
X97409928Y-38216764D01*
G37*
G36*
X85793665Y-37350122D02*
X85867222Y-37357367D01*
X86008786Y-37400310D01*
X86139252Y-37470046D01*
X86253606Y-37563894D01*
X86347454Y-37678248D01*
X86417190Y-37808714D01*
X86460133Y-37950278D01*
X86474633Y-38097500D01*
X86460133Y-38244722D01*
X86417190Y-38386286D01*
X86347454Y-38516752D01*
X86253606Y-38631106D01*
X86139252Y-38724954D01*
X86008786Y-38794690D01*
X85867222Y-38837633D01*
X85793665Y-38844878D01*
X85756888Y-38848500D01*
X85483112Y-38848500D01*
X85446335Y-38844878D01*
X85372778Y-38837633D01*
X85231214Y-38794690D01*
X85100748Y-38724954D01*
X84986394Y-38631106D01*
X84892546Y-38516752D01*
X84822810Y-38386286D01*
X84779867Y-38244722D01*
X84765367Y-38097500D01*
X84779867Y-37950278D01*
X84822810Y-37808714D01*
X84892546Y-37678248D01*
X84986394Y-37563894D01*
X85100748Y-37470046D01*
X85231214Y-37400310D01*
X85372778Y-37357367D01*
X85446335Y-37350122D01*
X85483112Y-37346500D01*
X85756888Y-37346500D01*
X85793665Y-37350122D01*
X85793665Y-37350122D01*
G37*
G36*
X104101000Y-37901000D02*
X102299000Y-37901000D01*
X102299000Y-36099000D01*
X104101000Y-36099000D01*
X104101000Y-37901000D01*
X104101000Y-37901000D01*
G37*
G36*
X97409928Y-36946764D02*
X97431011Y-36953160D01*
X97450442Y-36963546D01*
X97467475Y-36977525D01*
X97481454Y-36994558D01*
X97491840Y-37013989D01*
X97498236Y-37035072D01*
X97501000Y-37063140D01*
X97501000Y-37526860D01*
X97498236Y-37554928D01*
X97491840Y-37576011D01*
X97481454Y-37595442D01*
X97467475Y-37612475D01*
X97450442Y-37626454D01*
X97431011Y-37636840D01*
X97409928Y-37643236D01*
X97381860Y-37646000D01*
X95568140Y-37646000D01*
X95540072Y-37643236D01*
X95518989Y-37636840D01*
X95499558Y-37626454D01*
X95482525Y-37612475D01*
X95468546Y-37595442D01*
X95458160Y-37576011D01*
X95451764Y-37554928D01*
X95449000Y-37526860D01*
X95449000Y-37063140D01*
X95451764Y-37035072D01*
X95458160Y-37013989D01*
X95468546Y-36994558D01*
X95482525Y-36977525D01*
X95499558Y-36963546D01*
X95518989Y-36953160D01*
X95540072Y-36946764D01*
X95568140Y-36944000D01*
X97381860Y-36944000D01*
X97409928Y-36946764D01*
X97409928Y-36946764D01*
G37*
G36*
X92459928Y-36946764D02*
X92481011Y-36953160D01*
X92500442Y-36963546D01*
X92517475Y-36977525D01*
X92531454Y-36994558D01*
X92541840Y-37013989D01*
X92548236Y-37035072D01*
X92551000Y-37063140D01*
X92551000Y-37526860D01*
X92548236Y-37554928D01*
X92541840Y-37576011D01*
X92531454Y-37595442D01*
X92517475Y-37612475D01*
X92500442Y-37626454D01*
X92481011Y-37636840D01*
X92459928Y-37643236D01*
X92431860Y-37646000D01*
X90618140Y-37646000D01*
X90590072Y-37643236D01*
X90568989Y-37636840D01*
X90549558Y-37626454D01*
X90532525Y-37612475D01*
X90518546Y-37595442D01*
X90508160Y-37576011D01*
X90501764Y-37554928D01*
X90499000Y-37526860D01*
X90499000Y-37063140D01*
X90501764Y-37035072D01*
X90508160Y-37013989D01*
X90518546Y-36994558D01*
X90532525Y-36977525D01*
X90549558Y-36963546D01*
X90568989Y-36953160D01*
X90590072Y-36946764D01*
X90618140Y-36944000D01*
X92431860Y-36944000D01*
X92459928Y-36946764D01*
X92459928Y-36946764D01*
G37*
G36*
X85793665Y-35445122D02*
X85867222Y-35452367D01*
X86008786Y-35495310D01*
X86139252Y-35565046D01*
X86253606Y-35658894D01*
X86347454Y-35773248D01*
X86417190Y-35903714D01*
X86460133Y-36045278D01*
X86474633Y-36192500D01*
X86460133Y-36339722D01*
X86417190Y-36481286D01*
X86347454Y-36611752D01*
X86253606Y-36726106D01*
X86139252Y-36819954D01*
X86008786Y-36889690D01*
X85867222Y-36932633D01*
X85793665Y-36939878D01*
X85756888Y-36943500D01*
X85483112Y-36943500D01*
X85446335Y-36939878D01*
X85372778Y-36932633D01*
X85231214Y-36889690D01*
X85100748Y-36819954D01*
X84986394Y-36726106D01*
X84892546Y-36611752D01*
X84822810Y-36481286D01*
X84779867Y-36339722D01*
X84765367Y-36192500D01*
X84779867Y-36045278D01*
X84822810Y-35903714D01*
X84892546Y-35773248D01*
X84986394Y-35658894D01*
X85100748Y-35565046D01*
X85231214Y-35495310D01*
X85372778Y-35452367D01*
X85446335Y-35445122D01*
X85483112Y-35441500D01*
X85756888Y-35441500D01*
X85793665Y-35445122D01*
X85793665Y-35445122D01*
G37*
G36*
X100701999Y-34978445D02*
X100739493Y-34989819D01*
X100774057Y-35008294D01*
X100804347Y-35033153D01*
X100829206Y-35063443D01*
X100847681Y-35098007D01*
X100859055Y-35135501D01*
X100863500Y-35180638D01*
X100863500Y-35819362D01*
X100859055Y-35864499D01*
X100847681Y-35901993D01*
X100829206Y-35936557D01*
X100804347Y-35966847D01*
X100774057Y-35991706D01*
X100739493Y-36010181D01*
X100701999Y-36021555D01*
X100656862Y-36026000D01*
X99993138Y-36026000D01*
X99948001Y-36021555D01*
X99910507Y-36010181D01*
X99875943Y-35991706D01*
X99845653Y-35966847D01*
X99820794Y-35936557D01*
X99802319Y-35901993D01*
X99790945Y-35864499D01*
X99786500Y-35819362D01*
X99786500Y-35180638D01*
X99790945Y-35135501D01*
X99802319Y-35098007D01*
X99820794Y-35063443D01*
X99845653Y-35033153D01*
X99875943Y-35008294D01*
X99910507Y-34989819D01*
X99948001Y-34978445D01*
X99993138Y-34974000D01*
X100656862Y-34974000D01*
X100701999Y-34978445D01*
X100701999Y-34978445D01*
G37*
G36*
X98876999Y-34978445D02*
X98914493Y-34989819D01*
X98949057Y-35008294D01*
X98979347Y-35033153D01*
X99004206Y-35063443D01*
X99022681Y-35098007D01*
X99034055Y-35135501D01*
X99038500Y-35180638D01*
X99038500Y-35819362D01*
X99034055Y-35864499D01*
X99022681Y-35901993D01*
X99004206Y-35936557D01*
X98979347Y-35966847D01*
X98949057Y-35991706D01*
X98914493Y-36010181D01*
X98876999Y-36021555D01*
X98831862Y-36026000D01*
X98168138Y-36026000D01*
X98123001Y-36021555D01*
X98085507Y-36010181D01*
X98050943Y-35991706D01*
X98020653Y-35966847D01*
X97995794Y-35936557D01*
X97977319Y-35901993D01*
X97965945Y-35864499D01*
X97961500Y-35819362D01*
X97961500Y-35180638D01*
X97965945Y-35135501D01*
X97977319Y-35098007D01*
X97995794Y-35063443D01*
X98020653Y-35033153D01*
X98050943Y-35008294D01*
X98085507Y-34989819D01*
X98123001Y-34978445D01*
X98168138Y-34974000D01*
X98831862Y-34974000D01*
X98876999Y-34978445D01*
X98876999Y-34978445D01*
G37*
G36*
X73116232Y-31413483D02*
X73304919Y-31470721D01*
X73478817Y-31563671D01*
X73631239Y-31688761D01*
X73756329Y-31841183D01*
X73849279Y-32015082D01*
X73906517Y-32203769D01*
X73921000Y-32350825D01*
X73921000Y-33049176D01*
X73906517Y-33196232D01*
X73849279Y-33384919D01*
X73756329Y-33558817D01*
X73631239Y-33711239D01*
X73478817Y-33836329D01*
X73304918Y-33929279D01*
X73116231Y-33986517D01*
X72920000Y-34005843D01*
X72723768Y-33986517D01*
X72535081Y-33929279D01*
X72361183Y-33836329D01*
X72208761Y-33711239D01*
X72083671Y-33558817D01*
X71990721Y-33384918D01*
X71933483Y-33196231D01*
X71919000Y-33049175D01*
X71919000Y-32350824D01*
X71933483Y-32203768D01*
X71990722Y-32015081D01*
X72083672Y-31841183D01*
X72208762Y-31688761D01*
X72361184Y-31563671D01*
X72535082Y-31470721D01*
X72723769Y-31413483D01*
X72920000Y-31394157D01*
X73116232Y-31413483D01*
X73116232Y-31413483D01*
G37*
G36*
X75656232Y-31413483D02*
X75844919Y-31470721D01*
X76018817Y-31563671D01*
X76171239Y-31688761D01*
X76296329Y-31841183D01*
X76389279Y-32015082D01*
X76446517Y-32203769D01*
X76461000Y-32350825D01*
X76461000Y-33049176D01*
X76446517Y-33196232D01*
X76389279Y-33384919D01*
X76296329Y-33558817D01*
X76171239Y-33711239D01*
X76018817Y-33836329D01*
X75844918Y-33929279D01*
X75656231Y-33986517D01*
X75460000Y-34005843D01*
X75263768Y-33986517D01*
X75075081Y-33929279D01*
X74901183Y-33836329D01*
X74748761Y-33711239D01*
X74623671Y-33558817D01*
X74530721Y-33384918D01*
X74473483Y-33196231D01*
X74459000Y-33049175D01*
X74459000Y-32350824D01*
X74473483Y-32203768D01*
X74530722Y-32015081D01*
X74623672Y-31841183D01*
X74748762Y-31688761D01*
X74901184Y-31563671D01*
X75075082Y-31470721D01*
X75263769Y-31413483D01*
X75460000Y-31394157D01*
X75656232Y-31413483D01*
X75656232Y-31413483D01*
G37*
G36*
X78196232Y-31413483D02*
X78384919Y-31470721D01*
X78558817Y-31563671D01*
X78711239Y-31688761D01*
X78836329Y-31841183D01*
X78929279Y-32015082D01*
X78986517Y-32203769D01*
X79001000Y-32350825D01*
X79001000Y-33049176D01*
X78986517Y-33196232D01*
X78929279Y-33384919D01*
X78836329Y-33558817D01*
X78711239Y-33711239D01*
X78558817Y-33836329D01*
X78384918Y-33929279D01*
X78196231Y-33986517D01*
X78000000Y-34005843D01*
X77803768Y-33986517D01*
X77615081Y-33929279D01*
X77441183Y-33836329D01*
X77288761Y-33711239D01*
X77163671Y-33558817D01*
X77070721Y-33384918D01*
X77013483Y-33196231D01*
X76999000Y-33049175D01*
X76999000Y-32350824D01*
X77013483Y-32203768D01*
X77070722Y-32015081D01*
X77163672Y-31841183D01*
X77288762Y-31688761D01*
X77441184Y-31563671D01*
X77615082Y-31470721D01*
X77803769Y-31413483D01*
X78000000Y-31394157D01*
X78196232Y-31413483D01*
X78196232Y-31413483D01*
G37*
G36*
X69651000Y-33651000D02*
X65549000Y-33651000D01*
X65549000Y-29549000D01*
X69651000Y-29549000D01*
X69651000Y-33651000D01*
X69651000Y-33651000D01*
G37*
G36*
X86551999Y-31978445D02*
X86589493Y-31989819D01*
X86624057Y-32008294D01*
X86654347Y-32033153D01*
X86679206Y-32063443D01*
X86697681Y-32098007D01*
X86709055Y-32135501D01*
X86713500Y-32180638D01*
X86713500Y-32819362D01*
X86709055Y-32864499D01*
X86697681Y-32901993D01*
X86679206Y-32936557D01*
X86654347Y-32966847D01*
X86624057Y-32991706D01*
X86589493Y-33010181D01*
X86551999Y-33021555D01*
X86506862Y-33026000D01*
X85843138Y-33026000D01*
X85798001Y-33021555D01*
X85760507Y-33010181D01*
X85725943Y-32991706D01*
X85695653Y-32966847D01*
X85670794Y-32936557D01*
X85652319Y-32901993D01*
X85640945Y-32864499D01*
X85636500Y-32819362D01*
X85636500Y-32180638D01*
X85640945Y-32135501D01*
X85652319Y-32098007D01*
X85670794Y-32063443D01*
X85695653Y-32033153D01*
X85725943Y-32008294D01*
X85760507Y-31989819D01*
X85798001Y-31978445D01*
X85843138Y-31974000D01*
X86506862Y-31974000D01*
X86551999Y-31978445D01*
X86551999Y-31978445D01*
G37*
G36*
X88376999Y-31978445D02*
X88414493Y-31989819D01*
X88449057Y-32008294D01*
X88479347Y-32033153D01*
X88504206Y-32063443D01*
X88522681Y-32098007D01*
X88534055Y-32135501D01*
X88538500Y-32180638D01*
X88538500Y-32819362D01*
X88534055Y-32864499D01*
X88522681Y-32901993D01*
X88504206Y-32936557D01*
X88479347Y-32966847D01*
X88449057Y-32991706D01*
X88414493Y-33010181D01*
X88376999Y-33021555D01*
X88331862Y-33026000D01*
X87668138Y-33026000D01*
X87623001Y-33021555D01*
X87585507Y-33010181D01*
X87550943Y-32991706D01*
X87520653Y-32966847D01*
X87495794Y-32936557D01*
X87477319Y-32901993D01*
X87465945Y-32864499D01*
X87461500Y-32819362D01*
X87461500Y-32180638D01*
X87465945Y-32135501D01*
X87477319Y-32098007D01*
X87495794Y-32063443D01*
X87520653Y-32033153D01*
X87550943Y-32008294D01*
X87585507Y-31989819D01*
X87623001Y-31978445D01*
X87668138Y-31974000D01*
X88331862Y-31974000D01*
X88376999Y-31978445D01*
X88376999Y-31978445D01*
G37*
G36*
X100632004Y-31260544D02*
X100719059Y-31277860D01*
X100855732Y-31334472D01*
X100855733Y-31334473D01*
X100978738Y-31416662D01*
X101083338Y-31521262D01*
X101083340Y-31521265D01*
X101165528Y-31644268D01*
X101222140Y-31780941D01*
X101251000Y-31926033D01*
X101251000Y-32073967D01*
X101222140Y-32219059D01*
X101165528Y-32355732D01*
X101165527Y-32355733D01*
X101083338Y-32478738D01*
X100978738Y-32583338D01*
X100978735Y-32583340D01*
X100855732Y-32665528D01*
X100719059Y-32722140D01*
X100632004Y-32739456D01*
X100573969Y-32751000D01*
X100426031Y-32751000D01*
X100367996Y-32739456D01*
X100280941Y-32722140D01*
X100144268Y-32665528D01*
X100021265Y-32583340D01*
X100021262Y-32583338D01*
X99916662Y-32478738D01*
X99834473Y-32355733D01*
X99834472Y-32355732D01*
X99777860Y-32219059D01*
X99749000Y-32073967D01*
X99749000Y-31926033D01*
X99777860Y-31780941D01*
X99834472Y-31644268D01*
X99916660Y-31521265D01*
X99916662Y-31521262D01*
X100021262Y-31416662D01*
X100144267Y-31334473D01*
X100144268Y-31334472D01*
X100280941Y-31277860D01*
X100367996Y-31260544D01*
X100426031Y-31249000D01*
X100573969Y-31249000D01*
X100632004Y-31260544D01*
X100632004Y-31260544D01*
G37*
G36*
X68775256Y-21891298D02*
X68881579Y-21912447D01*
X69182042Y-22036903D01*
X69302791Y-22117585D01*
X69452454Y-22217587D01*
X69682413Y-22447546D01*
X69682415Y-22447549D01*
X69863097Y-22717958D01*
X69946132Y-22918421D01*
X69987553Y-23018422D01*
X70051000Y-23337389D01*
X70051000Y-23662611D01*
X69987553Y-23981578D01*
X69863098Y-24282040D01*
X69682413Y-24552454D01*
X69452454Y-24782413D01*
X69452451Y-24782415D01*
X69182042Y-24963097D01*
X68881579Y-25087553D01*
X68775256Y-25108702D01*
X68562611Y-25151000D01*
X68237389Y-25151000D01*
X68024744Y-25108702D01*
X67918421Y-25087553D01*
X67617958Y-24963097D01*
X67347549Y-24782415D01*
X67347546Y-24782413D01*
X67117587Y-24552454D01*
X66936902Y-24282040D01*
X66812447Y-23981578D01*
X66749000Y-23662611D01*
X66749000Y-23337389D01*
X66812447Y-23018422D01*
X66853869Y-22918421D01*
X66936903Y-22717958D01*
X67117585Y-22447549D01*
X67117587Y-22447546D01*
X67347546Y-22217587D01*
X67497209Y-22117585D01*
X67617958Y-22036903D01*
X67918421Y-21912447D01*
X68024744Y-21891298D01*
X68237389Y-21849000D01*
X68562611Y-21849000D01*
X68775256Y-21891298D01*
X68775256Y-21891298D01*
G37*
G36*
X101975256Y-21791298D02*
X102081579Y-21812447D01*
X102382042Y-21936903D01*
X102531702Y-22036903D01*
X102652454Y-22117587D01*
X102882413Y-22347546D01*
X103063098Y-22617960D01*
X103187553Y-22918422D01*
X103251000Y-23237389D01*
X103251000Y-23562611D01*
X103208702Y-23775256D01*
X103187553Y-23881579D01*
X103099550Y-24094037D01*
X103063098Y-24182040D01*
X102882413Y-24452454D01*
X102652454Y-24682413D01*
X102652451Y-24682415D01*
X102382042Y-24863097D01*
X102081579Y-24987553D01*
X101975256Y-25008702D01*
X101762611Y-25051000D01*
X101437389Y-25051000D01*
X101224744Y-25008702D01*
X101118421Y-24987553D01*
X100817958Y-24863097D01*
X100547549Y-24682415D01*
X100547546Y-24682413D01*
X100317587Y-24452454D01*
X100136902Y-24182040D01*
X100100450Y-24094037D01*
X100012447Y-23881579D01*
X99991298Y-23775256D01*
X99949000Y-23562611D01*
X99949000Y-23237389D01*
X100012447Y-22918422D01*
X100136902Y-22617960D01*
X100317587Y-22347546D01*
X100547546Y-22117587D01*
X100668298Y-22036903D01*
X100817958Y-21936903D01*
X101118421Y-21812447D01*
X101224744Y-21791298D01*
X101437389Y-21749000D01*
X101762611Y-21749000D01*
X101975256Y-21791298D01*
X101975256Y-21791298D01*
G37*
M02*
