G04 #@! TF.GenerationSoftware,KiCad,Pcbnew,(5.0.2)-1*
G04 #@! TF.CreationDate,2021-01-16T20:27:13+09:00*
G04 #@! TF.ProjectId,LEMCurrentSensor,4c454d43-7572-4726-956e-7453656e736f,rev?*
G04 #@! TF.SameCoordinates,Original*
G04 #@! TF.FileFunction,Copper,L1,Top*
G04 #@! TF.FilePolarity,Positive*
%FSLAX46Y46*%
G04 Gerber Fmt 4.6, Leading zero omitted, Abs format (unit mm)*
G04 Created by KiCad (PCBNEW (5.0.2)-1) date 2021/01/16 20:27:13*
%MOMM*%
%LPD*%
G01*
G04 APERTURE LIST*
G04 #@! TA.AperFunction,ComponentPad*
%ADD10O,1.600000X1.400000*%
G04 #@! TD*
G04 #@! TA.AperFunction,ComponentPad*
%ADD11O,1.900000X2.500000*%
G04 #@! TD*
G04 #@! TA.AperFunction,Conductor*
%ADD12C,0.100000*%
G04 #@! TD*
G04 #@! TA.AperFunction,ComponentPad*
%ADD13C,1.900000*%
G04 #@! TD*
G04 #@! TA.AperFunction,SMDPad,CuDef*
%ADD14C,0.950000*%
G04 #@! TD*
G04 #@! TA.AperFunction,SMDPad,CuDef*
%ADD15R,4.000000X4.000000*%
G04 #@! TD*
G04 #@! TA.AperFunction,ComponentPad*
%ADD16R,1.700000X1.700000*%
G04 #@! TD*
G04 #@! TA.AperFunction,ComponentPad*
%ADD17O,1.700000X1.700000*%
G04 #@! TD*
G04 #@! TA.AperFunction,ComponentPad*
%ADD18C,1.400000*%
G04 #@! TD*
G04 #@! TA.AperFunction,SMDPad,CuDef*
%ADD19C,0.600000*%
G04 #@! TD*
G04 #@! TA.AperFunction,Conductor*
%ADD20C,0.250000*%
G04 #@! TD*
G04 #@! TA.AperFunction,Conductor*
%ADD21C,0.254000*%
G04 #@! TD*
G04 APERTURE END LIST*
D10*
G04 #@! TO.P,U1,7*
G04 #@! TO.N,N/C*
X85620000Y-36192500D03*
G04 #@! TO.P,U1,10*
G04 #@! TO.N,+5V*
X85620000Y-41907500D03*
G04 #@! TO.P,U1,9*
G04 #@! TO.N,GND*
X85620000Y-40002500D03*
G04 #@! TO.P,U1,8*
G04 #@! TO.N,Net-(R1-Pad2)*
X85620000Y-38097500D03*
D11*
G04 #@! TO.P,U1,2*
G04 #@! TO.N,Net-(J1-Pad1)*
X75460000Y-45400000D03*
D12*
G04 #@! TD*
G04 #@! TO.N,Net-(J1-Pad1)*
G04 #@! TO.C,U1*
G36*
X78735779Y-44151144D02*
X78758834Y-44154563D01*
X78781443Y-44160227D01*
X78803387Y-44168079D01*
X78824457Y-44178044D01*
X78844448Y-44190026D01*
X78863168Y-44203910D01*
X78880438Y-44219562D01*
X78896090Y-44236832D01*
X78909974Y-44255552D01*
X78921956Y-44275543D01*
X78931921Y-44296613D01*
X78939773Y-44318557D01*
X78945437Y-44341166D01*
X78948856Y-44364221D01*
X78950000Y-44387500D01*
X78950000Y-46412500D01*
X78948856Y-46435779D01*
X78945437Y-46458834D01*
X78939773Y-46481443D01*
X78931921Y-46503387D01*
X78921956Y-46524457D01*
X78909974Y-46544448D01*
X78896090Y-46563168D01*
X78880438Y-46580438D01*
X78863168Y-46596090D01*
X78844448Y-46609974D01*
X78824457Y-46621956D01*
X78803387Y-46631921D01*
X78781443Y-46639773D01*
X78758834Y-46645437D01*
X78735779Y-46648856D01*
X78712500Y-46650000D01*
X77287500Y-46650000D01*
X77264221Y-46648856D01*
X77241166Y-46645437D01*
X77218557Y-46639773D01*
X77196613Y-46631921D01*
X77175543Y-46621956D01*
X77155552Y-46609974D01*
X77136832Y-46596090D01*
X77119562Y-46580438D01*
X77103910Y-46563168D01*
X77090026Y-46544448D01*
X77078044Y-46524457D01*
X77068079Y-46503387D01*
X77060227Y-46481443D01*
X77054563Y-46458834D01*
X77051144Y-46435779D01*
X77050000Y-46412500D01*
X77050000Y-44387500D01*
X77051144Y-44364221D01*
X77054563Y-44341166D01*
X77060227Y-44318557D01*
X77068079Y-44296613D01*
X77078044Y-44275543D01*
X77090026Y-44255552D01*
X77103910Y-44236832D01*
X77119562Y-44219562D01*
X77136832Y-44203910D01*
X77155552Y-44190026D01*
X77175543Y-44178044D01*
X77196613Y-44168079D01*
X77218557Y-44160227D01*
X77241166Y-44154563D01*
X77264221Y-44151144D01*
X77287500Y-44150000D01*
X78712500Y-44150000D01*
X78735779Y-44151144D01*
X78735779Y-44151144D01*
G37*
D13*
G04 #@! TO.P,U1,1*
G04 #@! TO.N,Net-(J1-Pad1)*
X78000000Y-45400000D03*
D11*
G04 #@! TO.P,U1,3*
X72920000Y-45400000D03*
G04 #@! TO.P,U1,4*
G04 #@! TO.N,Net-(J2-Pad1)*
X72920000Y-32700000D03*
G04 #@! TO.P,U1,6*
X78000000Y-32700000D03*
G04 #@! TO.P,U1,5*
X75460000Y-32700000D03*
G04 #@! TD*
D12*
G04 #@! TO.N,GND*
G04 #@! TO.C,C1*
G36*
X88323279Y-45526144D02*
X88346334Y-45529563D01*
X88368943Y-45535227D01*
X88390887Y-45543079D01*
X88411957Y-45553044D01*
X88431948Y-45565026D01*
X88450668Y-45578910D01*
X88467938Y-45594562D01*
X88483590Y-45611832D01*
X88497474Y-45630552D01*
X88509456Y-45650543D01*
X88519421Y-45671613D01*
X88527273Y-45693557D01*
X88532937Y-45716166D01*
X88536356Y-45739221D01*
X88537500Y-45762500D01*
X88537500Y-46237500D01*
X88536356Y-46260779D01*
X88532937Y-46283834D01*
X88527273Y-46306443D01*
X88519421Y-46328387D01*
X88509456Y-46349457D01*
X88497474Y-46369448D01*
X88483590Y-46388168D01*
X88467938Y-46405438D01*
X88450668Y-46421090D01*
X88431948Y-46434974D01*
X88411957Y-46446956D01*
X88390887Y-46456921D01*
X88368943Y-46464773D01*
X88346334Y-46470437D01*
X88323279Y-46473856D01*
X88300000Y-46475000D01*
X87700000Y-46475000D01*
X87676721Y-46473856D01*
X87653666Y-46470437D01*
X87631057Y-46464773D01*
X87609113Y-46456921D01*
X87588043Y-46446956D01*
X87568052Y-46434974D01*
X87549332Y-46421090D01*
X87532062Y-46405438D01*
X87516410Y-46388168D01*
X87502526Y-46369448D01*
X87490544Y-46349457D01*
X87480579Y-46328387D01*
X87472727Y-46306443D01*
X87467063Y-46283834D01*
X87463644Y-46260779D01*
X87462500Y-46237500D01*
X87462500Y-45762500D01*
X87463644Y-45739221D01*
X87467063Y-45716166D01*
X87472727Y-45693557D01*
X87480579Y-45671613D01*
X87490544Y-45650543D01*
X87502526Y-45630552D01*
X87516410Y-45611832D01*
X87532062Y-45594562D01*
X87549332Y-45578910D01*
X87568052Y-45565026D01*
X87588043Y-45553044D01*
X87609113Y-45543079D01*
X87631057Y-45535227D01*
X87653666Y-45529563D01*
X87676721Y-45526144D01*
X87700000Y-45525000D01*
X88300000Y-45525000D01*
X88323279Y-45526144D01*
X88323279Y-45526144D01*
G37*
D14*
G04 #@! TD*
G04 #@! TO.P,C1,2*
G04 #@! TO.N,GND*
X88000000Y-46000000D03*
D12*
G04 #@! TO.N,+5V*
G04 #@! TO.C,C1*
G36*
X86598279Y-45526144D02*
X86621334Y-45529563D01*
X86643943Y-45535227D01*
X86665887Y-45543079D01*
X86686957Y-45553044D01*
X86706948Y-45565026D01*
X86725668Y-45578910D01*
X86742938Y-45594562D01*
X86758590Y-45611832D01*
X86772474Y-45630552D01*
X86784456Y-45650543D01*
X86794421Y-45671613D01*
X86802273Y-45693557D01*
X86807937Y-45716166D01*
X86811356Y-45739221D01*
X86812500Y-45762500D01*
X86812500Y-46237500D01*
X86811356Y-46260779D01*
X86807937Y-46283834D01*
X86802273Y-46306443D01*
X86794421Y-46328387D01*
X86784456Y-46349457D01*
X86772474Y-46369448D01*
X86758590Y-46388168D01*
X86742938Y-46405438D01*
X86725668Y-46421090D01*
X86706948Y-46434974D01*
X86686957Y-46446956D01*
X86665887Y-46456921D01*
X86643943Y-46464773D01*
X86621334Y-46470437D01*
X86598279Y-46473856D01*
X86575000Y-46475000D01*
X85975000Y-46475000D01*
X85951721Y-46473856D01*
X85928666Y-46470437D01*
X85906057Y-46464773D01*
X85884113Y-46456921D01*
X85863043Y-46446956D01*
X85843052Y-46434974D01*
X85824332Y-46421090D01*
X85807062Y-46405438D01*
X85791410Y-46388168D01*
X85777526Y-46369448D01*
X85765544Y-46349457D01*
X85755579Y-46328387D01*
X85747727Y-46306443D01*
X85742063Y-46283834D01*
X85738644Y-46260779D01*
X85737500Y-46237500D01*
X85737500Y-45762500D01*
X85738644Y-45739221D01*
X85742063Y-45716166D01*
X85747727Y-45693557D01*
X85755579Y-45671613D01*
X85765544Y-45650543D01*
X85777526Y-45630552D01*
X85791410Y-45611832D01*
X85807062Y-45594562D01*
X85824332Y-45578910D01*
X85843052Y-45565026D01*
X85863043Y-45553044D01*
X85884113Y-45543079D01*
X85906057Y-45535227D01*
X85928666Y-45529563D01*
X85951721Y-45526144D01*
X85975000Y-45525000D01*
X86575000Y-45525000D01*
X86598279Y-45526144D01*
X86598279Y-45526144D01*
G37*
D14*
G04 #@! TD*
G04 #@! TO.P,C1,1*
G04 #@! TO.N,+5V*
X86275000Y-46000000D03*
D12*
G04 #@! TO.N,+5V*
G04 #@! TO.C,C2*
G36*
X99060779Y-37938644D02*
X99083834Y-37942063D01*
X99106443Y-37947727D01*
X99128387Y-37955579D01*
X99149457Y-37965544D01*
X99169448Y-37977526D01*
X99188168Y-37991410D01*
X99205438Y-38007062D01*
X99221090Y-38024332D01*
X99234974Y-38043052D01*
X99246956Y-38063043D01*
X99256921Y-38084113D01*
X99264773Y-38106057D01*
X99270437Y-38128666D01*
X99273856Y-38151721D01*
X99275000Y-38175000D01*
X99275000Y-38775000D01*
X99273856Y-38798279D01*
X99270437Y-38821334D01*
X99264773Y-38843943D01*
X99256921Y-38865887D01*
X99246956Y-38886957D01*
X99234974Y-38906948D01*
X99221090Y-38925668D01*
X99205438Y-38942938D01*
X99188168Y-38958590D01*
X99169448Y-38972474D01*
X99149457Y-38984456D01*
X99128387Y-38994421D01*
X99106443Y-39002273D01*
X99083834Y-39007937D01*
X99060779Y-39011356D01*
X99037500Y-39012500D01*
X98562500Y-39012500D01*
X98539221Y-39011356D01*
X98516166Y-39007937D01*
X98493557Y-39002273D01*
X98471613Y-38994421D01*
X98450543Y-38984456D01*
X98430552Y-38972474D01*
X98411832Y-38958590D01*
X98394562Y-38942938D01*
X98378910Y-38925668D01*
X98365026Y-38906948D01*
X98353044Y-38886957D01*
X98343079Y-38865887D01*
X98335227Y-38843943D01*
X98329563Y-38821334D01*
X98326144Y-38798279D01*
X98325000Y-38775000D01*
X98325000Y-38175000D01*
X98326144Y-38151721D01*
X98329563Y-38128666D01*
X98335227Y-38106057D01*
X98343079Y-38084113D01*
X98353044Y-38063043D01*
X98365026Y-38043052D01*
X98378910Y-38024332D01*
X98394562Y-38007062D01*
X98411832Y-37991410D01*
X98430552Y-37977526D01*
X98450543Y-37965544D01*
X98471613Y-37955579D01*
X98493557Y-37947727D01*
X98516166Y-37942063D01*
X98539221Y-37938644D01*
X98562500Y-37937500D01*
X99037500Y-37937500D01*
X99060779Y-37938644D01*
X99060779Y-37938644D01*
G37*
D14*
G04 #@! TD*
G04 #@! TO.P,C2,1*
G04 #@! TO.N,+5V*
X98800000Y-38475000D03*
D12*
G04 #@! TO.N,GND*
G04 #@! TO.C,C2*
G36*
X99060779Y-39663644D02*
X99083834Y-39667063D01*
X99106443Y-39672727D01*
X99128387Y-39680579D01*
X99149457Y-39690544D01*
X99169448Y-39702526D01*
X99188168Y-39716410D01*
X99205438Y-39732062D01*
X99221090Y-39749332D01*
X99234974Y-39768052D01*
X99246956Y-39788043D01*
X99256921Y-39809113D01*
X99264773Y-39831057D01*
X99270437Y-39853666D01*
X99273856Y-39876721D01*
X99275000Y-39900000D01*
X99275000Y-40500000D01*
X99273856Y-40523279D01*
X99270437Y-40546334D01*
X99264773Y-40568943D01*
X99256921Y-40590887D01*
X99246956Y-40611957D01*
X99234974Y-40631948D01*
X99221090Y-40650668D01*
X99205438Y-40667938D01*
X99188168Y-40683590D01*
X99169448Y-40697474D01*
X99149457Y-40709456D01*
X99128387Y-40719421D01*
X99106443Y-40727273D01*
X99083834Y-40732937D01*
X99060779Y-40736356D01*
X99037500Y-40737500D01*
X98562500Y-40737500D01*
X98539221Y-40736356D01*
X98516166Y-40732937D01*
X98493557Y-40727273D01*
X98471613Y-40719421D01*
X98450543Y-40709456D01*
X98430552Y-40697474D01*
X98411832Y-40683590D01*
X98394562Y-40667938D01*
X98378910Y-40650668D01*
X98365026Y-40631948D01*
X98353044Y-40611957D01*
X98343079Y-40590887D01*
X98335227Y-40568943D01*
X98329563Y-40546334D01*
X98326144Y-40523279D01*
X98325000Y-40500000D01*
X98325000Y-39900000D01*
X98326144Y-39876721D01*
X98329563Y-39853666D01*
X98335227Y-39831057D01*
X98343079Y-39809113D01*
X98353044Y-39788043D01*
X98365026Y-39768052D01*
X98378910Y-39749332D01*
X98394562Y-39732062D01*
X98411832Y-39716410D01*
X98430552Y-39702526D01*
X98450543Y-39690544D01*
X98471613Y-39680579D01*
X98493557Y-39672727D01*
X98516166Y-39667063D01*
X98539221Y-39663644D01*
X98562500Y-39662500D01*
X99037500Y-39662500D01*
X99060779Y-39663644D01*
X99060779Y-39663644D01*
G37*
D14*
G04 #@! TD*
G04 #@! TO.P,C2,2*
G04 #@! TO.N,GND*
X98800000Y-40200000D03*
D12*
G04 #@! TO.N,Net-(C3-Pad1)*
G04 #@! TO.C,C3*
G36*
X91398279Y-45126144D02*
X91421334Y-45129563D01*
X91443943Y-45135227D01*
X91465887Y-45143079D01*
X91486957Y-45153044D01*
X91506948Y-45165026D01*
X91525668Y-45178910D01*
X91542938Y-45194562D01*
X91558590Y-45211832D01*
X91572474Y-45230552D01*
X91584456Y-45250543D01*
X91594421Y-45271613D01*
X91602273Y-45293557D01*
X91607937Y-45316166D01*
X91611356Y-45339221D01*
X91612500Y-45362500D01*
X91612500Y-45837500D01*
X91611356Y-45860779D01*
X91607937Y-45883834D01*
X91602273Y-45906443D01*
X91594421Y-45928387D01*
X91584456Y-45949457D01*
X91572474Y-45969448D01*
X91558590Y-45988168D01*
X91542938Y-46005438D01*
X91525668Y-46021090D01*
X91506948Y-46034974D01*
X91486957Y-46046956D01*
X91465887Y-46056921D01*
X91443943Y-46064773D01*
X91421334Y-46070437D01*
X91398279Y-46073856D01*
X91375000Y-46075000D01*
X90775000Y-46075000D01*
X90751721Y-46073856D01*
X90728666Y-46070437D01*
X90706057Y-46064773D01*
X90684113Y-46056921D01*
X90663043Y-46046956D01*
X90643052Y-46034974D01*
X90624332Y-46021090D01*
X90607062Y-46005438D01*
X90591410Y-45988168D01*
X90577526Y-45969448D01*
X90565544Y-45949457D01*
X90555579Y-45928387D01*
X90547727Y-45906443D01*
X90542063Y-45883834D01*
X90538644Y-45860779D01*
X90537500Y-45837500D01*
X90537500Y-45362500D01*
X90538644Y-45339221D01*
X90542063Y-45316166D01*
X90547727Y-45293557D01*
X90555579Y-45271613D01*
X90565544Y-45250543D01*
X90577526Y-45230552D01*
X90591410Y-45211832D01*
X90607062Y-45194562D01*
X90624332Y-45178910D01*
X90643052Y-45165026D01*
X90663043Y-45153044D01*
X90684113Y-45143079D01*
X90706057Y-45135227D01*
X90728666Y-45129563D01*
X90751721Y-45126144D01*
X90775000Y-45125000D01*
X91375000Y-45125000D01*
X91398279Y-45126144D01*
X91398279Y-45126144D01*
G37*
D14*
G04 #@! TD*
G04 #@! TO.P,C3,1*
G04 #@! TO.N,Net-(C3-Pad1)*
X91075000Y-45600000D03*
D12*
G04 #@! TO.N,GND*
G04 #@! TO.C,C3*
G36*
X93123279Y-45126144D02*
X93146334Y-45129563D01*
X93168943Y-45135227D01*
X93190887Y-45143079D01*
X93211957Y-45153044D01*
X93231948Y-45165026D01*
X93250668Y-45178910D01*
X93267938Y-45194562D01*
X93283590Y-45211832D01*
X93297474Y-45230552D01*
X93309456Y-45250543D01*
X93319421Y-45271613D01*
X93327273Y-45293557D01*
X93332937Y-45316166D01*
X93336356Y-45339221D01*
X93337500Y-45362500D01*
X93337500Y-45837500D01*
X93336356Y-45860779D01*
X93332937Y-45883834D01*
X93327273Y-45906443D01*
X93319421Y-45928387D01*
X93309456Y-45949457D01*
X93297474Y-45969448D01*
X93283590Y-45988168D01*
X93267938Y-46005438D01*
X93250668Y-46021090D01*
X93231948Y-46034974D01*
X93211957Y-46046956D01*
X93190887Y-46056921D01*
X93168943Y-46064773D01*
X93146334Y-46070437D01*
X93123279Y-46073856D01*
X93100000Y-46075000D01*
X92500000Y-46075000D01*
X92476721Y-46073856D01*
X92453666Y-46070437D01*
X92431057Y-46064773D01*
X92409113Y-46056921D01*
X92388043Y-46046956D01*
X92368052Y-46034974D01*
X92349332Y-46021090D01*
X92332062Y-46005438D01*
X92316410Y-45988168D01*
X92302526Y-45969448D01*
X92290544Y-45949457D01*
X92280579Y-45928387D01*
X92272727Y-45906443D01*
X92267063Y-45883834D01*
X92263644Y-45860779D01*
X92262500Y-45837500D01*
X92262500Y-45362500D01*
X92263644Y-45339221D01*
X92267063Y-45316166D01*
X92272727Y-45293557D01*
X92280579Y-45271613D01*
X92290544Y-45250543D01*
X92302526Y-45230552D01*
X92316410Y-45211832D01*
X92332062Y-45194562D01*
X92349332Y-45178910D01*
X92368052Y-45165026D01*
X92388043Y-45153044D01*
X92409113Y-45143079D01*
X92431057Y-45135227D01*
X92453666Y-45129563D01*
X92476721Y-45126144D01*
X92500000Y-45125000D01*
X93100000Y-45125000D01*
X93123279Y-45126144D01*
X93123279Y-45126144D01*
G37*
D14*
G04 #@! TD*
G04 #@! TO.P,C3,2*
G04 #@! TO.N,GND*
X92800000Y-45600000D03*
D15*
G04 #@! TO.P,J2,1*
G04 #@! TO.N,Net-(J2-Pad1)*
X67600000Y-31600000D03*
G04 #@! TD*
D16*
G04 #@! TO.P,J3,1*
G04 #@! TO.N,+5V*
X103200000Y-37000000D03*
D17*
G04 #@! TO.P,J3,2*
G04 #@! TO.N,Net-(J3-Pad2)*
X103200000Y-39540000D03*
G04 #@! TO.P,J3,3*
G04 #@! TO.N,GND*
X103200000Y-42080000D03*
G04 #@! TD*
D12*
G04 #@! TO.N,Net-(C3-Pad1)*
G04 #@! TO.C,R1*
G36*
X88273279Y-32026144D02*
X88296334Y-32029563D01*
X88318943Y-32035227D01*
X88340887Y-32043079D01*
X88361957Y-32053044D01*
X88381948Y-32065026D01*
X88400668Y-32078910D01*
X88417938Y-32094562D01*
X88433590Y-32111832D01*
X88447474Y-32130552D01*
X88459456Y-32150543D01*
X88469421Y-32171613D01*
X88477273Y-32193557D01*
X88482937Y-32216166D01*
X88486356Y-32239221D01*
X88487500Y-32262500D01*
X88487500Y-32737500D01*
X88486356Y-32760779D01*
X88482937Y-32783834D01*
X88477273Y-32806443D01*
X88469421Y-32828387D01*
X88459456Y-32849457D01*
X88447474Y-32869448D01*
X88433590Y-32888168D01*
X88417938Y-32905438D01*
X88400668Y-32921090D01*
X88381948Y-32934974D01*
X88361957Y-32946956D01*
X88340887Y-32956921D01*
X88318943Y-32964773D01*
X88296334Y-32970437D01*
X88273279Y-32973856D01*
X88250000Y-32975000D01*
X87750000Y-32975000D01*
X87726721Y-32973856D01*
X87703666Y-32970437D01*
X87681057Y-32964773D01*
X87659113Y-32956921D01*
X87638043Y-32946956D01*
X87618052Y-32934974D01*
X87599332Y-32921090D01*
X87582062Y-32905438D01*
X87566410Y-32888168D01*
X87552526Y-32869448D01*
X87540544Y-32849457D01*
X87530579Y-32828387D01*
X87522727Y-32806443D01*
X87517063Y-32783834D01*
X87513644Y-32760779D01*
X87512500Y-32737500D01*
X87512500Y-32262500D01*
X87513644Y-32239221D01*
X87517063Y-32216166D01*
X87522727Y-32193557D01*
X87530579Y-32171613D01*
X87540544Y-32150543D01*
X87552526Y-32130552D01*
X87566410Y-32111832D01*
X87582062Y-32094562D01*
X87599332Y-32078910D01*
X87618052Y-32065026D01*
X87638043Y-32053044D01*
X87659113Y-32043079D01*
X87681057Y-32035227D01*
X87703666Y-32029563D01*
X87726721Y-32026144D01*
X87750000Y-32025000D01*
X88250000Y-32025000D01*
X88273279Y-32026144D01*
X88273279Y-32026144D01*
G37*
D14*
G04 #@! TD*
G04 #@! TO.P,R1,1*
G04 #@! TO.N,Net-(C3-Pad1)*
X88000000Y-32500000D03*
D12*
G04 #@! TO.N,Net-(R1-Pad2)*
G04 #@! TO.C,R1*
G36*
X86448279Y-32026144D02*
X86471334Y-32029563D01*
X86493943Y-32035227D01*
X86515887Y-32043079D01*
X86536957Y-32053044D01*
X86556948Y-32065026D01*
X86575668Y-32078910D01*
X86592938Y-32094562D01*
X86608590Y-32111832D01*
X86622474Y-32130552D01*
X86634456Y-32150543D01*
X86644421Y-32171613D01*
X86652273Y-32193557D01*
X86657937Y-32216166D01*
X86661356Y-32239221D01*
X86662500Y-32262500D01*
X86662500Y-32737500D01*
X86661356Y-32760779D01*
X86657937Y-32783834D01*
X86652273Y-32806443D01*
X86644421Y-32828387D01*
X86634456Y-32849457D01*
X86622474Y-32869448D01*
X86608590Y-32888168D01*
X86592938Y-32905438D01*
X86575668Y-32921090D01*
X86556948Y-32934974D01*
X86536957Y-32946956D01*
X86515887Y-32956921D01*
X86493943Y-32964773D01*
X86471334Y-32970437D01*
X86448279Y-32973856D01*
X86425000Y-32975000D01*
X85925000Y-32975000D01*
X85901721Y-32973856D01*
X85878666Y-32970437D01*
X85856057Y-32964773D01*
X85834113Y-32956921D01*
X85813043Y-32946956D01*
X85793052Y-32934974D01*
X85774332Y-32921090D01*
X85757062Y-32905438D01*
X85741410Y-32888168D01*
X85727526Y-32869448D01*
X85715544Y-32849457D01*
X85705579Y-32828387D01*
X85697727Y-32806443D01*
X85692063Y-32783834D01*
X85688644Y-32760779D01*
X85687500Y-32737500D01*
X85687500Y-32262500D01*
X85688644Y-32239221D01*
X85692063Y-32216166D01*
X85697727Y-32193557D01*
X85705579Y-32171613D01*
X85715544Y-32150543D01*
X85727526Y-32130552D01*
X85741410Y-32111832D01*
X85757062Y-32094562D01*
X85774332Y-32078910D01*
X85793052Y-32065026D01*
X85813043Y-32053044D01*
X85834113Y-32043079D01*
X85856057Y-32035227D01*
X85878666Y-32029563D01*
X85901721Y-32026144D01*
X85925000Y-32025000D01*
X86425000Y-32025000D01*
X86448279Y-32026144D01*
X86448279Y-32026144D01*
G37*
D14*
G04 #@! TD*
G04 #@! TO.P,R1,2*
G04 #@! TO.N,Net-(R1-Pad2)*
X86175000Y-32500000D03*
D12*
G04 #@! TO.N,Net-(C3-Pad1)*
G04 #@! TO.C,R2*
G36*
X91248279Y-43526144D02*
X91271334Y-43529563D01*
X91293943Y-43535227D01*
X91315887Y-43543079D01*
X91336957Y-43553044D01*
X91356948Y-43565026D01*
X91375668Y-43578910D01*
X91392938Y-43594562D01*
X91408590Y-43611832D01*
X91422474Y-43630552D01*
X91434456Y-43650543D01*
X91444421Y-43671613D01*
X91452273Y-43693557D01*
X91457937Y-43716166D01*
X91461356Y-43739221D01*
X91462500Y-43762500D01*
X91462500Y-44237500D01*
X91461356Y-44260779D01*
X91457937Y-44283834D01*
X91452273Y-44306443D01*
X91444421Y-44328387D01*
X91434456Y-44349457D01*
X91422474Y-44369448D01*
X91408590Y-44388168D01*
X91392938Y-44405438D01*
X91375668Y-44421090D01*
X91356948Y-44434974D01*
X91336957Y-44446956D01*
X91315887Y-44456921D01*
X91293943Y-44464773D01*
X91271334Y-44470437D01*
X91248279Y-44473856D01*
X91225000Y-44475000D01*
X90725000Y-44475000D01*
X90701721Y-44473856D01*
X90678666Y-44470437D01*
X90656057Y-44464773D01*
X90634113Y-44456921D01*
X90613043Y-44446956D01*
X90593052Y-44434974D01*
X90574332Y-44421090D01*
X90557062Y-44405438D01*
X90541410Y-44388168D01*
X90527526Y-44369448D01*
X90515544Y-44349457D01*
X90505579Y-44328387D01*
X90497727Y-44306443D01*
X90492063Y-44283834D01*
X90488644Y-44260779D01*
X90487500Y-44237500D01*
X90487500Y-43762500D01*
X90488644Y-43739221D01*
X90492063Y-43716166D01*
X90497727Y-43693557D01*
X90505579Y-43671613D01*
X90515544Y-43650543D01*
X90527526Y-43630552D01*
X90541410Y-43611832D01*
X90557062Y-43594562D01*
X90574332Y-43578910D01*
X90593052Y-43565026D01*
X90613043Y-43553044D01*
X90634113Y-43543079D01*
X90656057Y-43535227D01*
X90678666Y-43529563D01*
X90701721Y-43526144D01*
X90725000Y-43525000D01*
X91225000Y-43525000D01*
X91248279Y-43526144D01*
X91248279Y-43526144D01*
G37*
D14*
G04 #@! TD*
G04 #@! TO.P,R2,1*
G04 #@! TO.N,Net-(C3-Pad1)*
X90975000Y-44000000D03*
D12*
G04 #@! TO.N,GND*
G04 #@! TO.C,R2*
G36*
X93073279Y-43526144D02*
X93096334Y-43529563D01*
X93118943Y-43535227D01*
X93140887Y-43543079D01*
X93161957Y-43553044D01*
X93181948Y-43565026D01*
X93200668Y-43578910D01*
X93217938Y-43594562D01*
X93233590Y-43611832D01*
X93247474Y-43630552D01*
X93259456Y-43650543D01*
X93269421Y-43671613D01*
X93277273Y-43693557D01*
X93282937Y-43716166D01*
X93286356Y-43739221D01*
X93287500Y-43762500D01*
X93287500Y-44237500D01*
X93286356Y-44260779D01*
X93282937Y-44283834D01*
X93277273Y-44306443D01*
X93269421Y-44328387D01*
X93259456Y-44349457D01*
X93247474Y-44369448D01*
X93233590Y-44388168D01*
X93217938Y-44405438D01*
X93200668Y-44421090D01*
X93181948Y-44434974D01*
X93161957Y-44446956D01*
X93140887Y-44456921D01*
X93118943Y-44464773D01*
X93096334Y-44470437D01*
X93073279Y-44473856D01*
X93050000Y-44475000D01*
X92550000Y-44475000D01*
X92526721Y-44473856D01*
X92503666Y-44470437D01*
X92481057Y-44464773D01*
X92459113Y-44456921D01*
X92438043Y-44446956D01*
X92418052Y-44434974D01*
X92399332Y-44421090D01*
X92382062Y-44405438D01*
X92366410Y-44388168D01*
X92352526Y-44369448D01*
X92340544Y-44349457D01*
X92330579Y-44328387D01*
X92322727Y-44306443D01*
X92317063Y-44283834D01*
X92313644Y-44260779D01*
X92312500Y-44237500D01*
X92312500Y-43762500D01*
X92313644Y-43739221D01*
X92317063Y-43716166D01*
X92322727Y-43693557D01*
X92330579Y-43671613D01*
X92340544Y-43650543D01*
X92352526Y-43630552D01*
X92366410Y-43611832D01*
X92382062Y-43594562D01*
X92399332Y-43578910D01*
X92418052Y-43565026D01*
X92438043Y-43553044D01*
X92459113Y-43543079D01*
X92481057Y-43535227D01*
X92503666Y-43529563D01*
X92526721Y-43526144D01*
X92550000Y-43525000D01*
X93050000Y-43525000D01*
X93073279Y-43526144D01*
X93073279Y-43526144D01*
G37*
D14*
G04 #@! TD*
G04 #@! TO.P,R2,2*
G04 #@! TO.N,GND*
X92800000Y-44000000D03*
D12*
G04 #@! TO.N,Net-(R3-Pad2)*
G04 #@! TO.C,R3*
G36*
X98773279Y-35026144D02*
X98796334Y-35029563D01*
X98818943Y-35035227D01*
X98840887Y-35043079D01*
X98861957Y-35053044D01*
X98881948Y-35065026D01*
X98900668Y-35078910D01*
X98917938Y-35094562D01*
X98933590Y-35111832D01*
X98947474Y-35130552D01*
X98959456Y-35150543D01*
X98969421Y-35171613D01*
X98977273Y-35193557D01*
X98982937Y-35216166D01*
X98986356Y-35239221D01*
X98987500Y-35262500D01*
X98987500Y-35737500D01*
X98986356Y-35760779D01*
X98982937Y-35783834D01*
X98977273Y-35806443D01*
X98969421Y-35828387D01*
X98959456Y-35849457D01*
X98947474Y-35869448D01*
X98933590Y-35888168D01*
X98917938Y-35905438D01*
X98900668Y-35921090D01*
X98881948Y-35934974D01*
X98861957Y-35946956D01*
X98840887Y-35956921D01*
X98818943Y-35964773D01*
X98796334Y-35970437D01*
X98773279Y-35973856D01*
X98750000Y-35975000D01*
X98250000Y-35975000D01*
X98226721Y-35973856D01*
X98203666Y-35970437D01*
X98181057Y-35964773D01*
X98159113Y-35956921D01*
X98138043Y-35946956D01*
X98118052Y-35934974D01*
X98099332Y-35921090D01*
X98082062Y-35905438D01*
X98066410Y-35888168D01*
X98052526Y-35869448D01*
X98040544Y-35849457D01*
X98030579Y-35828387D01*
X98022727Y-35806443D01*
X98017063Y-35783834D01*
X98013644Y-35760779D01*
X98012500Y-35737500D01*
X98012500Y-35262500D01*
X98013644Y-35239221D01*
X98017063Y-35216166D01*
X98022727Y-35193557D01*
X98030579Y-35171613D01*
X98040544Y-35150543D01*
X98052526Y-35130552D01*
X98066410Y-35111832D01*
X98082062Y-35094562D01*
X98099332Y-35078910D01*
X98118052Y-35065026D01*
X98138043Y-35053044D01*
X98159113Y-35043079D01*
X98181057Y-35035227D01*
X98203666Y-35029563D01*
X98226721Y-35026144D01*
X98250000Y-35025000D01*
X98750000Y-35025000D01*
X98773279Y-35026144D01*
X98773279Y-35026144D01*
G37*
D14*
G04 #@! TD*
G04 #@! TO.P,R3,2*
G04 #@! TO.N,Net-(R3-Pad2)*
X98500000Y-35500000D03*
D12*
G04 #@! TO.N,Net-(J3-Pad2)*
G04 #@! TO.C,R3*
G36*
X100598279Y-35026144D02*
X100621334Y-35029563D01*
X100643943Y-35035227D01*
X100665887Y-35043079D01*
X100686957Y-35053044D01*
X100706948Y-35065026D01*
X100725668Y-35078910D01*
X100742938Y-35094562D01*
X100758590Y-35111832D01*
X100772474Y-35130552D01*
X100784456Y-35150543D01*
X100794421Y-35171613D01*
X100802273Y-35193557D01*
X100807937Y-35216166D01*
X100811356Y-35239221D01*
X100812500Y-35262500D01*
X100812500Y-35737500D01*
X100811356Y-35760779D01*
X100807937Y-35783834D01*
X100802273Y-35806443D01*
X100794421Y-35828387D01*
X100784456Y-35849457D01*
X100772474Y-35869448D01*
X100758590Y-35888168D01*
X100742938Y-35905438D01*
X100725668Y-35921090D01*
X100706948Y-35934974D01*
X100686957Y-35946956D01*
X100665887Y-35956921D01*
X100643943Y-35964773D01*
X100621334Y-35970437D01*
X100598279Y-35973856D01*
X100575000Y-35975000D01*
X100075000Y-35975000D01*
X100051721Y-35973856D01*
X100028666Y-35970437D01*
X100006057Y-35964773D01*
X99984113Y-35956921D01*
X99963043Y-35946956D01*
X99943052Y-35934974D01*
X99924332Y-35921090D01*
X99907062Y-35905438D01*
X99891410Y-35888168D01*
X99877526Y-35869448D01*
X99865544Y-35849457D01*
X99855579Y-35828387D01*
X99847727Y-35806443D01*
X99842063Y-35783834D01*
X99838644Y-35760779D01*
X99837500Y-35737500D01*
X99837500Y-35262500D01*
X99838644Y-35239221D01*
X99842063Y-35216166D01*
X99847727Y-35193557D01*
X99855579Y-35171613D01*
X99865544Y-35150543D01*
X99877526Y-35130552D01*
X99891410Y-35111832D01*
X99907062Y-35094562D01*
X99924332Y-35078910D01*
X99943052Y-35065026D01*
X99963043Y-35053044D01*
X99984113Y-35043079D01*
X100006057Y-35035227D01*
X100028666Y-35029563D01*
X100051721Y-35026144D01*
X100075000Y-35025000D01*
X100575000Y-35025000D01*
X100598279Y-35026144D01*
X100598279Y-35026144D01*
G37*
D14*
G04 #@! TD*
G04 #@! TO.P,R3,1*
G04 #@! TO.N,Net-(J3-Pad2)*
X100325000Y-35500000D03*
D18*
G04 #@! TO.P,TP1,1*
G04 #@! TO.N,Net-(R1-Pad2)*
X85000000Y-50000000D03*
G04 #@! TD*
G04 #@! TO.P,TP2,1*
G04 #@! TO.N,Net-(J3-Pad2)*
X100500000Y-32000000D03*
G04 #@! TD*
D15*
G04 #@! TO.P,J1,1*
G04 #@! TO.N,Net-(J1-Pad1)*
X67600000Y-47200000D03*
G04 #@! TD*
D12*
G04 #@! TO.N,N/C*
G04 #@! TO.C,U2*
G36*
X92364703Y-36995722D02*
X92379264Y-36997882D01*
X92393543Y-37001459D01*
X92407403Y-37006418D01*
X92420710Y-37012712D01*
X92433336Y-37020280D01*
X92445159Y-37029048D01*
X92456066Y-37038934D01*
X92465952Y-37049841D01*
X92474720Y-37061664D01*
X92482288Y-37074290D01*
X92488582Y-37087597D01*
X92493541Y-37101457D01*
X92497118Y-37115736D01*
X92499278Y-37130297D01*
X92500000Y-37145000D01*
X92500000Y-37445000D01*
X92499278Y-37459703D01*
X92497118Y-37474264D01*
X92493541Y-37488543D01*
X92488582Y-37502403D01*
X92482288Y-37515710D01*
X92474720Y-37528336D01*
X92465952Y-37540159D01*
X92456066Y-37551066D01*
X92445159Y-37560952D01*
X92433336Y-37569720D01*
X92420710Y-37577288D01*
X92407403Y-37583582D01*
X92393543Y-37588541D01*
X92379264Y-37592118D01*
X92364703Y-37594278D01*
X92350000Y-37595000D01*
X90700000Y-37595000D01*
X90685297Y-37594278D01*
X90670736Y-37592118D01*
X90656457Y-37588541D01*
X90642597Y-37583582D01*
X90629290Y-37577288D01*
X90616664Y-37569720D01*
X90604841Y-37560952D01*
X90593934Y-37551066D01*
X90584048Y-37540159D01*
X90575280Y-37528336D01*
X90567712Y-37515710D01*
X90561418Y-37502403D01*
X90556459Y-37488543D01*
X90552882Y-37474264D01*
X90550722Y-37459703D01*
X90550000Y-37445000D01*
X90550000Y-37145000D01*
X90550722Y-37130297D01*
X90552882Y-37115736D01*
X90556459Y-37101457D01*
X90561418Y-37087597D01*
X90567712Y-37074290D01*
X90575280Y-37061664D01*
X90584048Y-37049841D01*
X90593934Y-37038934D01*
X90604841Y-37029048D01*
X90616664Y-37020280D01*
X90629290Y-37012712D01*
X90642597Y-37006418D01*
X90656457Y-37001459D01*
X90670736Y-36997882D01*
X90685297Y-36995722D01*
X90700000Y-36995000D01*
X92350000Y-36995000D01*
X92364703Y-36995722D01*
X92364703Y-36995722D01*
G37*
D19*
G04 #@! TD*
G04 #@! TO.P,U2,1*
G04 #@! TO.N,N/C*
X91525000Y-37295000D03*
D12*
G04 #@! TO.N,Net-(R3-Pad2)*
G04 #@! TO.C,U2*
G36*
X92364703Y-38265722D02*
X92379264Y-38267882D01*
X92393543Y-38271459D01*
X92407403Y-38276418D01*
X92420710Y-38282712D01*
X92433336Y-38290280D01*
X92445159Y-38299048D01*
X92456066Y-38308934D01*
X92465952Y-38319841D01*
X92474720Y-38331664D01*
X92482288Y-38344290D01*
X92488582Y-38357597D01*
X92493541Y-38371457D01*
X92497118Y-38385736D01*
X92499278Y-38400297D01*
X92500000Y-38415000D01*
X92500000Y-38715000D01*
X92499278Y-38729703D01*
X92497118Y-38744264D01*
X92493541Y-38758543D01*
X92488582Y-38772403D01*
X92482288Y-38785710D01*
X92474720Y-38798336D01*
X92465952Y-38810159D01*
X92456066Y-38821066D01*
X92445159Y-38830952D01*
X92433336Y-38839720D01*
X92420710Y-38847288D01*
X92407403Y-38853582D01*
X92393543Y-38858541D01*
X92379264Y-38862118D01*
X92364703Y-38864278D01*
X92350000Y-38865000D01*
X90700000Y-38865000D01*
X90685297Y-38864278D01*
X90670736Y-38862118D01*
X90656457Y-38858541D01*
X90642597Y-38853582D01*
X90629290Y-38847288D01*
X90616664Y-38839720D01*
X90604841Y-38830952D01*
X90593934Y-38821066D01*
X90584048Y-38810159D01*
X90575280Y-38798336D01*
X90567712Y-38785710D01*
X90561418Y-38772403D01*
X90556459Y-38758543D01*
X90552882Y-38744264D01*
X90550722Y-38729703D01*
X90550000Y-38715000D01*
X90550000Y-38415000D01*
X90550722Y-38400297D01*
X90552882Y-38385736D01*
X90556459Y-38371457D01*
X90561418Y-38357597D01*
X90567712Y-38344290D01*
X90575280Y-38331664D01*
X90584048Y-38319841D01*
X90593934Y-38308934D01*
X90604841Y-38299048D01*
X90616664Y-38290280D01*
X90629290Y-38282712D01*
X90642597Y-38276418D01*
X90656457Y-38271459D01*
X90670736Y-38267882D01*
X90685297Y-38265722D01*
X90700000Y-38265000D01*
X92350000Y-38265000D01*
X92364703Y-38265722D01*
X92364703Y-38265722D01*
G37*
D19*
G04 #@! TD*
G04 #@! TO.P,U2,2*
G04 #@! TO.N,Net-(R3-Pad2)*
X91525000Y-38565000D03*
D12*
G04 #@! TO.N,Net-(C3-Pad1)*
G04 #@! TO.C,U2*
G36*
X92364703Y-39535722D02*
X92379264Y-39537882D01*
X92393543Y-39541459D01*
X92407403Y-39546418D01*
X92420710Y-39552712D01*
X92433336Y-39560280D01*
X92445159Y-39569048D01*
X92456066Y-39578934D01*
X92465952Y-39589841D01*
X92474720Y-39601664D01*
X92482288Y-39614290D01*
X92488582Y-39627597D01*
X92493541Y-39641457D01*
X92497118Y-39655736D01*
X92499278Y-39670297D01*
X92500000Y-39685000D01*
X92500000Y-39985000D01*
X92499278Y-39999703D01*
X92497118Y-40014264D01*
X92493541Y-40028543D01*
X92488582Y-40042403D01*
X92482288Y-40055710D01*
X92474720Y-40068336D01*
X92465952Y-40080159D01*
X92456066Y-40091066D01*
X92445159Y-40100952D01*
X92433336Y-40109720D01*
X92420710Y-40117288D01*
X92407403Y-40123582D01*
X92393543Y-40128541D01*
X92379264Y-40132118D01*
X92364703Y-40134278D01*
X92350000Y-40135000D01*
X90700000Y-40135000D01*
X90685297Y-40134278D01*
X90670736Y-40132118D01*
X90656457Y-40128541D01*
X90642597Y-40123582D01*
X90629290Y-40117288D01*
X90616664Y-40109720D01*
X90604841Y-40100952D01*
X90593934Y-40091066D01*
X90584048Y-40080159D01*
X90575280Y-40068336D01*
X90567712Y-40055710D01*
X90561418Y-40042403D01*
X90556459Y-40028543D01*
X90552882Y-40014264D01*
X90550722Y-39999703D01*
X90550000Y-39985000D01*
X90550000Y-39685000D01*
X90550722Y-39670297D01*
X90552882Y-39655736D01*
X90556459Y-39641457D01*
X90561418Y-39627597D01*
X90567712Y-39614290D01*
X90575280Y-39601664D01*
X90584048Y-39589841D01*
X90593934Y-39578934D01*
X90604841Y-39569048D01*
X90616664Y-39560280D01*
X90629290Y-39552712D01*
X90642597Y-39546418D01*
X90656457Y-39541459D01*
X90670736Y-39537882D01*
X90685297Y-39535722D01*
X90700000Y-39535000D01*
X92350000Y-39535000D01*
X92364703Y-39535722D01*
X92364703Y-39535722D01*
G37*
D19*
G04 #@! TD*
G04 #@! TO.P,U2,3*
G04 #@! TO.N,Net-(C3-Pad1)*
X91525000Y-39835000D03*
D12*
G04 #@! TO.N,GND*
G04 #@! TO.C,U2*
G36*
X92364703Y-40805722D02*
X92379264Y-40807882D01*
X92393543Y-40811459D01*
X92407403Y-40816418D01*
X92420710Y-40822712D01*
X92433336Y-40830280D01*
X92445159Y-40839048D01*
X92456066Y-40848934D01*
X92465952Y-40859841D01*
X92474720Y-40871664D01*
X92482288Y-40884290D01*
X92488582Y-40897597D01*
X92493541Y-40911457D01*
X92497118Y-40925736D01*
X92499278Y-40940297D01*
X92500000Y-40955000D01*
X92500000Y-41255000D01*
X92499278Y-41269703D01*
X92497118Y-41284264D01*
X92493541Y-41298543D01*
X92488582Y-41312403D01*
X92482288Y-41325710D01*
X92474720Y-41338336D01*
X92465952Y-41350159D01*
X92456066Y-41361066D01*
X92445159Y-41370952D01*
X92433336Y-41379720D01*
X92420710Y-41387288D01*
X92407403Y-41393582D01*
X92393543Y-41398541D01*
X92379264Y-41402118D01*
X92364703Y-41404278D01*
X92350000Y-41405000D01*
X90700000Y-41405000D01*
X90685297Y-41404278D01*
X90670736Y-41402118D01*
X90656457Y-41398541D01*
X90642597Y-41393582D01*
X90629290Y-41387288D01*
X90616664Y-41379720D01*
X90604841Y-41370952D01*
X90593934Y-41361066D01*
X90584048Y-41350159D01*
X90575280Y-41338336D01*
X90567712Y-41325710D01*
X90561418Y-41312403D01*
X90556459Y-41298543D01*
X90552882Y-41284264D01*
X90550722Y-41269703D01*
X90550000Y-41255000D01*
X90550000Y-40955000D01*
X90550722Y-40940297D01*
X90552882Y-40925736D01*
X90556459Y-40911457D01*
X90561418Y-40897597D01*
X90567712Y-40884290D01*
X90575280Y-40871664D01*
X90584048Y-40859841D01*
X90593934Y-40848934D01*
X90604841Y-40839048D01*
X90616664Y-40830280D01*
X90629290Y-40822712D01*
X90642597Y-40816418D01*
X90656457Y-40811459D01*
X90670736Y-40807882D01*
X90685297Y-40805722D01*
X90700000Y-40805000D01*
X92350000Y-40805000D01*
X92364703Y-40805722D01*
X92364703Y-40805722D01*
G37*
D19*
G04 #@! TD*
G04 #@! TO.P,U2,4*
G04 #@! TO.N,GND*
X91525000Y-41105000D03*
D12*
G04 #@! TO.N,N/C*
G04 #@! TO.C,U2*
G36*
X97314703Y-40805722D02*
X97329264Y-40807882D01*
X97343543Y-40811459D01*
X97357403Y-40816418D01*
X97370710Y-40822712D01*
X97383336Y-40830280D01*
X97395159Y-40839048D01*
X97406066Y-40848934D01*
X97415952Y-40859841D01*
X97424720Y-40871664D01*
X97432288Y-40884290D01*
X97438582Y-40897597D01*
X97443541Y-40911457D01*
X97447118Y-40925736D01*
X97449278Y-40940297D01*
X97450000Y-40955000D01*
X97450000Y-41255000D01*
X97449278Y-41269703D01*
X97447118Y-41284264D01*
X97443541Y-41298543D01*
X97438582Y-41312403D01*
X97432288Y-41325710D01*
X97424720Y-41338336D01*
X97415952Y-41350159D01*
X97406066Y-41361066D01*
X97395159Y-41370952D01*
X97383336Y-41379720D01*
X97370710Y-41387288D01*
X97357403Y-41393582D01*
X97343543Y-41398541D01*
X97329264Y-41402118D01*
X97314703Y-41404278D01*
X97300000Y-41405000D01*
X95650000Y-41405000D01*
X95635297Y-41404278D01*
X95620736Y-41402118D01*
X95606457Y-41398541D01*
X95592597Y-41393582D01*
X95579290Y-41387288D01*
X95566664Y-41379720D01*
X95554841Y-41370952D01*
X95543934Y-41361066D01*
X95534048Y-41350159D01*
X95525280Y-41338336D01*
X95517712Y-41325710D01*
X95511418Y-41312403D01*
X95506459Y-41298543D01*
X95502882Y-41284264D01*
X95500722Y-41269703D01*
X95500000Y-41255000D01*
X95500000Y-40955000D01*
X95500722Y-40940297D01*
X95502882Y-40925736D01*
X95506459Y-40911457D01*
X95511418Y-40897597D01*
X95517712Y-40884290D01*
X95525280Y-40871664D01*
X95534048Y-40859841D01*
X95543934Y-40848934D01*
X95554841Y-40839048D01*
X95566664Y-40830280D01*
X95579290Y-40822712D01*
X95592597Y-40816418D01*
X95606457Y-40811459D01*
X95620736Y-40807882D01*
X95635297Y-40805722D01*
X95650000Y-40805000D01*
X97300000Y-40805000D01*
X97314703Y-40805722D01*
X97314703Y-40805722D01*
G37*
D19*
G04 #@! TD*
G04 #@! TO.P,U2,5*
G04 #@! TO.N,N/C*
X96475000Y-41105000D03*
D12*
G04 #@! TO.N,Net-(R3-Pad2)*
G04 #@! TO.C,U2*
G36*
X97314703Y-39535722D02*
X97329264Y-39537882D01*
X97343543Y-39541459D01*
X97357403Y-39546418D01*
X97370710Y-39552712D01*
X97383336Y-39560280D01*
X97395159Y-39569048D01*
X97406066Y-39578934D01*
X97415952Y-39589841D01*
X97424720Y-39601664D01*
X97432288Y-39614290D01*
X97438582Y-39627597D01*
X97443541Y-39641457D01*
X97447118Y-39655736D01*
X97449278Y-39670297D01*
X97450000Y-39685000D01*
X97450000Y-39985000D01*
X97449278Y-39999703D01*
X97447118Y-40014264D01*
X97443541Y-40028543D01*
X97438582Y-40042403D01*
X97432288Y-40055710D01*
X97424720Y-40068336D01*
X97415952Y-40080159D01*
X97406066Y-40091066D01*
X97395159Y-40100952D01*
X97383336Y-40109720D01*
X97370710Y-40117288D01*
X97357403Y-40123582D01*
X97343543Y-40128541D01*
X97329264Y-40132118D01*
X97314703Y-40134278D01*
X97300000Y-40135000D01*
X95650000Y-40135000D01*
X95635297Y-40134278D01*
X95620736Y-40132118D01*
X95606457Y-40128541D01*
X95592597Y-40123582D01*
X95579290Y-40117288D01*
X95566664Y-40109720D01*
X95554841Y-40100952D01*
X95543934Y-40091066D01*
X95534048Y-40080159D01*
X95525280Y-40068336D01*
X95517712Y-40055710D01*
X95511418Y-40042403D01*
X95506459Y-40028543D01*
X95502882Y-40014264D01*
X95500722Y-39999703D01*
X95500000Y-39985000D01*
X95500000Y-39685000D01*
X95500722Y-39670297D01*
X95502882Y-39655736D01*
X95506459Y-39641457D01*
X95511418Y-39627597D01*
X95517712Y-39614290D01*
X95525280Y-39601664D01*
X95534048Y-39589841D01*
X95543934Y-39578934D01*
X95554841Y-39569048D01*
X95566664Y-39560280D01*
X95579290Y-39552712D01*
X95592597Y-39546418D01*
X95606457Y-39541459D01*
X95620736Y-39537882D01*
X95635297Y-39535722D01*
X95650000Y-39535000D01*
X97300000Y-39535000D01*
X97314703Y-39535722D01*
X97314703Y-39535722D01*
G37*
D19*
G04 #@! TD*
G04 #@! TO.P,U2,6*
G04 #@! TO.N,Net-(R3-Pad2)*
X96475000Y-39835000D03*
D12*
G04 #@! TO.N,+5V*
G04 #@! TO.C,U2*
G36*
X97314703Y-38265722D02*
X97329264Y-38267882D01*
X97343543Y-38271459D01*
X97357403Y-38276418D01*
X97370710Y-38282712D01*
X97383336Y-38290280D01*
X97395159Y-38299048D01*
X97406066Y-38308934D01*
X97415952Y-38319841D01*
X97424720Y-38331664D01*
X97432288Y-38344290D01*
X97438582Y-38357597D01*
X97443541Y-38371457D01*
X97447118Y-38385736D01*
X97449278Y-38400297D01*
X97450000Y-38415000D01*
X97450000Y-38715000D01*
X97449278Y-38729703D01*
X97447118Y-38744264D01*
X97443541Y-38758543D01*
X97438582Y-38772403D01*
X97432288Y-38785710D01*
X97424720Y-38798336D01*
X97415952Y-38810159D01*
X97406066Y-38821066D01*
X97395159Y-38830952D01*
X97383336Y-38839720D01*
X97370710Y-38847288D01*
X97357403Y-38853582D01*
X97343543Y-38858541D01*
X97329264Y-38862118D01*
X97314703Y-38864278D01*
X97300000Y-38865000D01*
X95650000Y-38865000D01*
X95635297Y-38864278D01*
X95620736Y-38862118D01*
X95606457Y-38858541D01*
X95592597Y-38853582D01*
X95579290Y-38847288D01*
X95566664Y-38839720D01*
X95554841Y-38830952D01*
X95543934Y-38821066D01*
X95534048Y-38810159D01*
X95525280Y-38798336D01*
X95517712Y-38785710D01*
X95511418Y-38772403D01*
X95506459Y-38758543D01*
X95502882Y-38744264D01*
X95500722Y-38729703D01*
X95500000Y-38715000D01*
X95500000Y-38415000D01*
X95500722Y-38400297D01*
X95502882Y-38385736D01*
X95506459Y-38371457D01*
X95511418Y-38357597D01*
X95517712Y-38344290D01*
X95525280Y-38331664D01*
X95534048Y-38319841D01*
X95543934Y-38308934D01*
X95554841Y-38299048D01*
X95566664Y-38290280D01*
X95579290Y-38282712D01*
X95592597Y-38276418D01*
X95606457Y-38271459D01*
X95620736Y-38267882D01*
X95635297Y-38265722D01*
X95650000Y-38265000D01*
X97300000Y-38265000D01*
X97314703Y-38265722D01*
X97314703Y-38265722D01*
G37*
D19*
G04 #@! TD*
G04 #@! TO.P,U2,7*
G04 #@! TO.N,+5V*
X96475000Y-38565000D03*
D12*
G04 #@! TO.N,N/C*
G04 #@! TO.C,U2*
G36*
X97314703Y-36995722D02*
X97329264Y-36997882D01*
X97343543Y-37001459D01*
X97357403Y-37006418D01*
X97370710Y-37012712D01*
X97383336Y-37020280D01*
X97395159Y-37029048D01*
X97406066Y-37038934D01*
X97415952Y-37049841D01*
X97424720Y-37061664D01*
X97432288Y-37074290D01*
X97438582Y-37087597D01*
X97443541Y-37101457D01*
X97447118Y-37115736D01*
X97449278Y-37130297D01*
X97450000Y-37145000D01*
X97450000Y-37445000D01*
X97449278Y-37459703D01*
X97447118Y-37474264D01*
X97443541Y-37488543D01*
X97438582Y-37502403D01*
X97432288Y-37515710D01*
X97424720Y-37528336D01*
X97415952Y-37540159D01*
X97406066Y-37551066D01*
X97395159Y-37560952D01*
X97383336Y-37569720D01*
X97370710Y-37577288D01*
X97357403Y-37583582D01*
X97343543Y-37588541D01*
X97329264Y-37592118D01*
X97314703Y-37594278D01*
X97300000Y-37595000D01*
X95650000Y-37595000D01*
X95635297Y-37594278D01*
X95620736Y-37592118D01*
X95606457Y-37588541D01*
X95592597Y-37583582D01*
X95579290Y-37577288D01*
X95566664Y-37569720D01*
X95554841Y-37560952D01*
X95543934Y-37551066D01*
X95534048Y-37540159D01*
X95525280Y-37528336D01*
X95517712Y-37515710D01*
X95511418Y-37502403D01*
X95506459Y-37488543D01*
X95502882Y-37474264D01*
X95500722Y-37459703D01*
X95500000Y-37445000D01*
X95500000Y-37145000D01*
X95500722Y-37130297D01*
X95502882Y-37115736D01*
X95506459Y-37101457D01*
X95511418Y-37087597D01*
X95517712Y-37074290D01*
X95525280Y-37061664D01*
X95534048Y-37049841D01*
X95543934Y-37038934D01*
X95554841Y-37029048D01*
X95566664Y-37020280D01*
X95579290Y-37012712D01*
X95592597Y-37006418D01*
X95606457Y-37001459D01*
X95620736Y-36997882D01*
X95635297Y-36995722D01*
X95650000Y-36995000D01*
X97300000Y-36995000D01*
X97314703Y-36995722D01*
X97314703Y-36995722D01*
G37*
D19*
G04 #@! TD*
G04 #@! TO.P,U2,8*
G04 #@! TO.N,N/C*
X96475000Y-37295000D03*
D18*
G04 #@! TO.P,TP3,1*
G04 #@! TO.N,GND*
X98000000Y-49000000D03*
G04 #@! TD*
D20*
G04 #@! TO.N,GND*
X101320000Y-40200000D02*
X98800000Y-40200000D01*
X103200000Y-42080000D02*
X101320000Y-40200000D01*
X103200000Y-43800000D02*
X98000000Y-49000000D01*
X103200000Y-42080000D02*
X103200000Y-43800000D01*
G04 #@! TO.N,+5V*
X100275000Y-37000000D02*
X98800000Y-38475000D01*
X103200000Y-37000000D02*
X100275000Y-37000000D01*
X98710000Y-38565000D02*
X98800000Y-38475000D01*
X96475000Y-38565000D02*
X98710000Y-38565000D01*
X98800000Y-38475000D02*
X97775010Y-39499990D01*
X85620000Y-45345000D02*
X86275000Y-46000000D01*
X85620000Y-41907500D02*
X85620000Y-45345000D01*
X97775010Y-39499990D02*
X97775010Y-40500000D01*
X97775010Y-40500000D02*
X97775010Y-41451758D01*
X97775010Y-44224990D02*
X97775010Y-40500000D01*
X93500000Y-48500000D02*
X97775010Y-44224990D01*
X86275000Y-46000000D02*
X88775000Y-48500000D01*
X88775000Y-48500000D02*
X93500000Y-48500000D01*
G04 #@! TO.N,Net-(C3-Pad1)*
X91075000Y-44100000D02*
X90975000Y-44000000D01*
X91075000Y-45600000D02*
X91075000Y-44100000D01*
X90450000Y-39835000D02*
X91525000Y-39835000D01*
X88000000Y-37385000D02*
X90450000Y-39835000D01*
X88000000Y-32500000D02*
X88000000Y-37385000D01*
X90975000Y-44000000D02*
X88000000Y-41025000D01*
X88000000Y-41025000D02*
X88000000Y-37500000D01*
G04 #@! TO.N,Net-(J3-Pad2)*
X104049999Y-38690001D02*
X103200000Y-39540000D01*
X104375001Y-38364999D02*
X104049999Y-38690001D01*
X104375001Y-35889999D02*
X104375001Y-38364999D01*
X103985002Y-35500000D02*
X104375001Y-35889999D01*
X100325000Y-35500000D02*
X103985002Y-35500000D01*
X100325000Y-32175000D02*
X100500000Y-32000000D01*
X100325000Y-35500000D02*
X100325000Y-32175000D01*
G04 #@! TO.N,Net-(R1-Pad2)*
X85520000Y-38097500D02*
X85620000Y-38097500D01*
X84500000Y-49500000D02*
X84500000Y-45510082D01*
X85000000Y-50000000D02*
X84500000Y-49500000D01*
X84500000Y-45510082D02*
X84505041Y-45505041D01*
X84505041Y-45505041D02*
X84494990Y-45505041D01*
X84494990Y-45505041D02*
X84494990Y-39122510D01*
X84494990Y-39122510D02*
X85520000Y-38097500D01*
X86657090Y-32982090D02*
X86175000Y-32500000D01*
X86745010Y-33070010D02*
X86657090Y-32982090D01*
X86745010Y-37072490D02*
X86745010Y-33070010D01*
X85720000Y-38097500D02*
X86745010Y-37072490D01*
X85620000Y-38097500D02*
X85720000Y-38097500D01*
G04 #@! TO.N,Net-(R3-Pad2)*
X96104290Y-39464290D02*
X95727522Y-39464290D01*
X96104290Y-39464290D02*
X96475000Y-39835000D01*
X97912500Y-35500000D02*
X98500000Y-35500000D01*
X96000000Y-35500000D02*
X97912500Y-35500000D01*
X95000000Y-36500000D02*
X96000000Y-35500000D01*
X95727522Y-39464290D02*
X95000000Y-38736768D01*
X95000000Y-38736768D02*
X95000000Y-36500000D01*
X95691812Y-39500000D02*
X95727522Y-39464290D01*
X94500000Y-39500000D02*
X95691812Y-39500000D01*
X93500000Y-38500000D02*
X94500000Y-39500000D01*
X91525000Y-38565000D02*
X91590000Y-38500000D01*
X91590000Y-38500000D02*
X93500000Y-38500000D01*
G04 #@! TD*
D21*
G04 #@! TO.N,Net-(J2-Pad1)*
G36*
X79373000Y-36873000D02*
X65735000Y-36873000D01*
X65735000Y-28127000D01*
X79373000Y-28127000D01*
X79373000Y-36873000D01*
X79373000Y-36873000D01*
G37*
X79373000Y-36873000D02*
X65735000Y-36873000D01*
X65735000Y-28127000D01*
X79373000Y-28127000D01*
X79373000Y-36873000D01*
G04 #@! TO.N,Net-(J1-Pad1)*
G36*
X79373000Y-50873000D02*
X65735000Y-50873000D01*
X65735000Y-41127000D01*
X79373000Y-41127000D01*
X79373000Y-50873000D01*
X79373000Y-50873000D01*
G37*
X79373000Y-50873000D02*
X65735000Y-50873000D01*
X65735000Y-41127000D01*
X79373000Y-41127000D01*
X79373000Y-50873000D01*
G04 #@! TO.N,GND*
G36*
X104265001Y-34780806D02*
X104059854Y-34740000D01*
X104059849Y-34740000D01*
X103985002Y-34725112D01*
X103910155Y-34740000D01*
X101269735Y-34740000D01*
X101200747Y-34636753D01*
X101085000Y-34559413D01*
X101085000Y-33202678D01*
X101256217Y-33131758D01*
X101631758Y-32756217D01*
X101835000Y-32265548D01*
X101835000Y-31734452D01*
X101631758Y-31243783D01*
X101256217Y-30868242D01*
X100765548Y-30665000D01*
X100234452Y-30665000D01*
X99743783Y-30868242D01*
X99368242Y-31243783D01*
X99165000Y-31734452D01*
X99165000Y-32265548D01*
X99368242Y-32756217D01*
X99565001Y-32952976D01*
X99565000Y-34559413D01*
X99449253Y-34636753D01*
X99412500Y-34691758D01*
X99375747Y-34636753D01*
X99088652Y-34444922D01*
X98750000Y-34377560D01*
X98250000Y-34377560D01*
X97911348Y-34444922D01*
X97624253Y-34636753D01*
X97555265Y-34740000D01*
X96074848Y-34740000D01*
X96000000Y-34725112D01*
X95925152Y-34740000D01*
X95925148Y-34740000D01*
X95703463Y-34784096D01*
X95452071Y-34952071D01*
X95409671Y-35015527D01*
X94515528Y-35909671D01*
X94452072Y-35952071D01*
X94409672Y-36015527D01*
X94409671Y-36015528D01*
X94284097Y-36203463D01*
X94225112Y-36500000D01*
X94240001Y-36574852D01*
X94240000Y-38165199D01*
X94090331Y-38015530D01*
X94047929Y-37952071D01*
X93796537Y-37784096D01*
X93574852Y-37740000D01*
X93574847Y-37740000D01*
X93500000Y-37725112D01*
X93425153Y-37740000D01*
X93088760Y-37740000D01*
X93147440Y-37445000D01*
X93147440Y-37145000D01*
X93086738Y-36839833D01*
X92913875Y-36581125D01*
X92655167Y-36408262D01*
X92350000Y-36347560D01*
X90700000Y-36347560D01*
X90394833Y-36408262D01*
X90136125Y-36581125D01*
X89963262Y-36839833D01*
X89902560Y-37145000D01*
X89902560Y-37445000D01*
X89963262Y-37750167D01*
X90083422Y-37930000D01*
X89963262Y-38109833D01*
X89936114Y-38246313D01*
X88760000Y-37070199D01*
X88760000Y-33440587D01*
X88875747Y-33363247D01*
X89067578Y-33076152D01*
X89134940Y-32737500D01*
X89134940Y-32262500D01*
X89067578Y-31923848D01*
X88875747Y-31636753D01*
X88588652Y-31444922D01*
X88250000Y-31377560D01*
X87750000Y-31377560D01*
X87411348Y-31444922D01*
X87124253Y-31636753D01*
X87087500Y-31691758D01*
X87050747Y-31636753D01*
X86763652Y-31444922D01*
X86425000Y-31377560D01*
X85925000Y-31377560D01*
X85586348Y-31444922D01*
X85299253Y-31636753D01*
X85107422Y-31923848D01*
X85040060Y-32262500D01*
X85040060Y-32737500D01*
X85107422Y-33076152D01*
X85299253Y-33363247D01*
X85586348Y-33555078D01*
X85925000Y-33622440D01*
X85985011Y-33622440D01*
X85985011Y-34884060D01*
X85851485Y-34857500D01*
X85388515Y-34857500D01*
X84999109Y-34934958D01*
X84557519Y-35230019D01*
X84262458Y-35671609D01*
X84158846Y-36192500D01*
X84262458Y-36713391D01*
X84550850Y-37145000D01*
X84262458Y-37576609D01*
X84158846Y-38097500D01*
X84206355Y-38336344D01*
X84010518Y-38532181D01*
X83947062Y-38574581D01*
X83904662Y-38638037D01*
X83904661Y-38638038D01*
X83779087Y-38825973D01*
X83720102Y-39122510D01*
X83734991Y-39197362D01*
X83734990Y-45430189D01*
X83720101Y-45505041D01*
X83740001Y-45605085D01*
X83740000Y-49425153D01*
X83725112Y-49500000D01*
X83737116Y-49560349D01*
X83665000Y-49734452D01*
X83665000Y-50265548D01*
X83868242Y-50756217D01*
X84243783Y-51131758D01*
X84734452Y-51335000D01*
X85265548Y-51335000D01*
X85756217Y-51131758D01*
X86131758Y-50756217D01*
X86335000Y-50265548D01*
X86335000Y-49935275D01*
X97244331Y-49935275D01*
X97306169Y-50171042D01*
X97807122Y-50347419D01*
X98337440Y-50318664D01*
X98693831Y-50171042D01*
X98755669Y-49935275D01*
X98000000Y-49179605D01*
X97244331Y-49935275D01*
X86335000Y-49935275D01*
X86335000Y-49734452D01*
X86131758Y-49243783D01*
X85756217Y-48868242D01*
X85265548Y-48665000D01*
X85260000Y-48665000D01*
X85260000Y-46729671D01*
X85349253Y-46863247D01*
X85636348Y-47055078D01*
X85975000Y-47122440D01*
X86322639Y-47122440D01*
X88184671Y-48984473D01*
X88227071Y-49047929D01*
X88478463Y-49215904D01*
X88700148Y-49260000D01*
X88700153Y-49260000D01*
X88775000Y-49274888D01*
X88849847Y-49260000D01*
X93425153Y-49260000D01*
X93500000Y-49274888D01*
X93574847Y-49260000D01*
X93574852Y-49260000D01*
X93796537Y-49215904D01*
X94047929Y-49047929D01*
X94090331Y-48984470D01*
X94267679Y-48807122D01*
X96652581Y-48807122D01*
X96681336Y-49337440D01*
X96828958Y-49693831D01*
X97064725Y-49755669D01*
X97820395Y-49000000D01*
X98179605Y-49000000D01*
X98935275Y-49755669D01*
X99171042Y-49693831D01*
X99347419Y-49192878D01*
X99318664Y-48662560D01*
X99171042Y-48306169D01*
X98935275Y-48244331D01*
X98179605Y-49000000D01*
X97820395Y-49000000D01*
X97064725Y-48244331D01*
X96828958Y-48306169D01*
X96652581Y-48807122D01*
X94267679Y-48807122D01*
X95010076Y-48064725D01*
X97244331Y-48064725D01*
X98000000Y-48820395D01*
X98755669Y-48064725D01*
X98693831Y-47828958D01*
X98192878Y-47652581D01*
X97662560Y-47681336D01*
X97306169Y-47828958D01*
X97244331Y-48064725D01*
X95010076Y-48064725D01*
X98259483Y-44815319D01*
X98322939Y-44772919D01*
X98490914Y-44521527D01*
X98535010Y-44299842D01*
X98535010Y-44299838D01*
X98549898Y-44224991D01*
X98535010Y-44150144D01*
X98535010Y-42436890D01*
X101758524Y-42436890D01*
X101928355Y-42846924D01*
X102318642Y-43275183D01*
X102843108Y-43521486D01*
X103073000Y-43400819D01*
X103073000Y-42207000D01*
X101879845Y-42207000D01*
X101758524Y-42436890D01*
X98535010Y-42436890D01*
X98535010Y-41351740D01*
X98673000Y-41213750D01*
X98673000Y-40327000D01*
X98927000Y-40327000D01*
X98927000Y-41213750D01*
X99085750Y-41372500D01*
X99401310Y-41372500D01*
X99634699Y-41275827D01*
X99813327Y-41097198D01*
X99910000Y-40863809D01*
X99910000Y-40485750D01*
X99751250Y-40327000D01*
X98927000Y-40327000D01*
X98673000Y-40327000D01*
X98653000Y-40327000D01*
X98653000Y-40073000D01*
X98673000Y-40073000D01*
X98673000Y-40053000D01*
X98927000Y-40053000D01*
X98927000Y-40073000D01*
X99751250Y-40073000D01*
X99910000Y-39914250D01*
X99910000Y-39536191D01*
X99813327Y-39302802D01*
X99762592Y-39252067D01*
X99855078Y-39113652D01*
X99922440Y-38775000D01*
X99922440Y-38427361D01*
X100589802Y-37760000D01*
X101702560Y-37760000D01*
X101702560Y-37850000D01*
X101751843Y-38097765D01*
X101892191Y-38307809D01*
X102102235Y-38448157D01*
X102147619Y-38457184D01*
X102129375Y-38469375D01*
X101801161Y-38960582D01*
X101685908Y-39540000D01*
X101801161Y-40119418D01*
X102129375Y-40610625D01*
X102448478Y-40823843D01*
X102318642Y-40884817D01*
X101928355Y-41313076D01*
X101758524Y-41723110D01*
X101879845Y-41953000D01*
X103073000Y-41953000D01*
X103073000Y-41933000D01*
X103327000Y-41933000D01*
X103327000Y-41953000D01*
X103347000Y-41953000D01*
X103347000Y-42207000D01*
X103327000Y-42207000D01*
X103327000Y-43400819D01*
X103556892Y-43521486D01*
X104081358Y-43275183D01*
X104265000Y-43073674D01*
X104265000Y-59265000D01*
X82127000Y-59265000D01*
X82127000Y-56155431D01*
X99365000Y-56155431D01*
X99365000Y-57044569D01*
X99705259Y-57866026D01*
X100333974Y-58494741D01*
X101155431Y-58835000D01*
X102044569Y-58835000D01*
X102866026Y-58494741D01*
X103494741Y-57866026D01*
X103835000Y-57044569D01*
X103835000Y-56155431D01*
X103494741Y-55333974D01*
X102866026Y-54705259D01*
X102044569Y-54365000D01*
X101155431Y-54365000D01*
X100333974Y-54705259D01*
X99705259Y-55333974D01*
X99365000Y-56155431D01*
X82127000Y-56155431D01*
X82127000Y-22955431D01*
X99365000Y-22955431D01*
X99365000Y-23844569D01*
X99705259Y-24666026D01*
X100333974Y-25294741D01*
X101155431Y-25635000D01*
X102044569Y-25635000D01*
X102866026Y-25294741D01*
X103494741Y-24666026D01*
X103835000Y-23844569D01*
X103835000Y-22955431D01*
X103494741Y-22133974D01*
X102866026Y-21505259D01*
X102044569Y-21165000D01*
X101155431Y-21165000D01*
X100333974Y-21505259D01*
X99705259Y-22133974D01*
X99365000Y-22955431D01*
X82127000Y-22955431D01*
X82127000Y-20735000D01*
X104265001Y-20735000D01*
X104265001Y-34780806D01*
X104265001Y-34780806D01*
G37*
X104265001Y-34780806D02*
X104059854Y-34740000D01*
X104059849Y-34740000D01*
X103985002Y-34725112D01*
X103910155Y-34740000D01*
X101269735Y-34740000D01*
X101200747Y-34636753D01*
X101085000Y-34559413D01*
X101085000Y-33202678D01*
X101256217Y-33131758D01*
X101631758Y-32756217D01*
X101835000Y-32265548D01*
X101835000Y-31734452D01*
X101631758Y-31243783D01*
X101256217Y-30868242D01*
X100765548Y-30665000D01*
X100234452Y-30665000D01*
X99743783Y-30868242D01*
X99368242Y-31243783D01*
X99165000Y-31734452D01*
X99165000Y-32265548D01*
X99368242Y-32756217D01*
X99565001Y-32952976D01*
X99565000Y-34559413D01*
X99449253Y-34636753D01*
X99412500Y-34691758D01*
X99375747Y-34636753D01*
X99088652Y-34444922D01*
X98750000Y-34377560D01*
X98250000Y-34377560D01*
X97911348Y-34444922D01*
X97624253Y-34636753D01*
X97555265Y-34740000D01*
X96074848Y-34740000D01*
X96000000Y-34725112D01*
X95925152Y-34740000D01*
X95925148Y-34740000D01*
X95703463Y-34784096D01*
X95452071Y-34952071D01*
X95409671Y-35015527D01*
X94515528Y-35909671D01*
X94452072Y-35952071D01*
X94409672Y-36015527D01*
X94409671Y-36015528D01*
X94284097Y-36203463D01*
X94225112Y-36500000D01*
X94240001Y-36574852D01*
X94240000Y-38165199D01*
X94090331Y-38015530D01*
X94047929Y-37952071D01*
X93796537Y-37784096D01*
X93574852Y-37740000D01*
X93574847Y-37740000D01*
X93500000Y-37725112D01*
X93425153Y-37740000D01*
X93088760Y-37740000D01*
X93147440Y-37445000D01*
X93147440Y-37145000D01*
X93086738Y-36839833D01*
X92913875Y-36581125D01*
X92655167Y-36408262D01*
X92350000Y-36347560D01*
X90700000Y-36347560D01*
X90394833Y-36408262D01*
X90136125Y-36581125D01*
X89963262Y-36839833D01*
X89902560Y-37145000D01*
X89902560Y-37445000D01*
X89963262Y-37750167D01*
X90083422Y-37930000D01*
X89963262Y-38109833D01*
X89936114Y-38246313D01*
X88760000Y-37070199D01*
X88760000Y-33440587D01*
X88875747Y-33363247D01*
X89067578Y-33076152D01*
X89134940Y-32737500D01*
X89134940Y-32262500D01*
X89067578Y-31923848D01*
X88875747Y-31636753D01*
X88588652Y-31444922D01*
X88250000Y-31377560D01*
X87750000Y-31377560D01*
X87411348Y-31444922D01*
X87124253Y-31636753D01*
X87087500Y-31691758D01*
X87050747Y-31636753D01*
X86763652Y-31444922D01*
X86425000Y-31377560D01*
X85925000Y-31377560D01*
X85586348Y-31444922D01*
X85299253Y-31636753D01*
X85107422Y-31923848D01*
X85040060Y-32262500D01*
X85040060Y-32737500D01*
X85107422Y-33076152D01*
X85299253Y-33363247D01*
X85586348Y-33555078D01*
X85925000Y-33622440D01*
X85985011Y-33622440D01*
X85985011Y-34884060D01*
X85851485Y-34857500D01*
X85388515Y-34857500D01*
X84999109Y-34934958D01*
X84557519Y-35230019D01*
X84262458Y-35671609D01*
X84158846Y-36192500D01*
X84262458Y-36713391D01*
X84550850Y-37145000D01*
X84262458Y-37576609D01*
X84158846Y-38097500D01*
X84206355Y-38336344D01*
X84010518Y-38532181D01*
X83947062Y-38574581D01*
X83904662Y-38638037D01*
X83904661Y-38638038D01*
X83779087Y-38825973D01*
X83720102Y-39122510D01*
X83734991Y-39197362D01*
X83734990Y-45430189D01*
X83720101Y-45505041D01*
X83740001Y-45605085D01*
X83740000Y-49425153D01*
X83725112Y-49500000D01*
X83737116Y-49560349D01*
X83665000Y-49734452D01*
X83665000Y-50265548D01*
X83868242Y-50756217D01*
X84243783Y-51131758D01*
X84734452Y-51335000D01*
X85265548Y-51335000D01*
X85756217Y-51131758D01*
X86131758Y-50756217D01*
X86335000Y-50265548D01*
X86335000Y-49935275D01*
X97244331Y-49935275D01*
X97306169Y-50171042D01*
X97807122Y-50347419D01*
X98337440Y-50318664D01*
X98693831Y-50171042D01*
X98755669Y-49935275D01*
X98000000Y-49179605D01*
X97244331Y-49935275D01*
X86335000Y-49935275D01*
X86335000Y-49734452D01*
X86131758Y-49243783D01*
X85756217Y-48868242D01*
X85265548Y-48665000D01*
X85260000Y-48665000D01*
X85260000Y-46729671D01*
X85349253Y-46863247D01*
X85636348Y-47055078D01*
X85975000Y-47122440D01*
X86322639Y-47122440D01*
X88184671Y-48984473D01*
X88227071Y-49047929D01*
X88478463Y-49215904D01*
X88700148Y-49260000D01*
X88700153Y-49260000D01*
X88775000Y-49274888D01*
X88849847Y-49260000D01*
X93425153Y-49260000D01*
X93500000Y-49274888D01*
X93574847Y-49260000D01*
X93574852Y-49260000D01*
X93796537Y-49215904D01*
X94047929Y-49047929D01*
X94090331Y-48984470D01*
X94267679Y-48807122D01*
X96652581Y-48807122D01*
X96681336Y-49337440D01*
X96828958Y-49693831D01*
X97064725Y-49755669D01*
X97820395Y-49000000D01*
X98179605Y-49000000D01*
X98935275Y-49755669D01*
X99171042Y-49693831D01*
X99347419Y-49192878D01*
X99318664Y-48662560D01*
X99171042Y-48306169D01*
X98935275Y-48244331D01*
X98179605Y-49000000D01*
X97820395Y-49000000D01*
X97064725Y-48244331D01*
X96828958Y-48306169D01*
X96652581Y-48807122D01*
X94267679Y-48807122D01*
X95010076Y-48064725D01*
X97244331Y-48064725D01*
X98000000Y-48820395D01*
X98755669Y-48064725D01*
X98693831Y-47828958D01*
X98192878Y-47652581D01*
X97662560Y-47681336D01*
X97306169Y-47828958D01*
X97244331Y-48064725D01*
X95010076Y-48064725D01*
X98259483Y-44815319D01*
X98322939Y-44772919D01*
X98490914Y-44521527D01*
X98535010Y-44299842D01*
X98535010Y-44299838D01*
X98549898Y-44224991D01*
X98535010Y-44150144D01*
X98535010Y-42436890D01*
X101758524Y-42436890D01*
X101928355Y-42846924D01*
X102318642Y-43275183D01*
X102843108Y-43521486D01*
X103073000Y-43400819D01*
X103073000Y-42207000D01*
X101879845Y-42207000D01*
X101758524Y-42436890D01*
X98535010Y-42436890D01*
X98535010Y-41351740D01*
X98673000Y-41213750D01*
X98673000Y-40327000D01*
X98927000Y-40327000D01*
X98927000Y-41213750D01*
X99085750Y-41372500D01*
X99401310Y-41372500D01*
X99634699Y-41275827D01*
X99813327Y-41097198D01*
X99910000Y-40863809D01*
X99910000Y-40485750D01*
X99751250Y-40327000D01*
X98927000Y-40327000D01*
X98673000Y-40327000D01*
X98653000Y-40327000D01*
X98653000Y-40073000D01*
X98673000Y-40073000D01*
X98673000Y-40053000D01*
X98927000Y-40053000D01*
X98927000Y-40073000D01*
X99751250Y-40073000D01*
X99910000Y-39914250D01*
X99910000Y-39536191D01*
X99813327Y-39302802D01*
X99762592Y-39252067D01*
X99855078Y-39113652D01*
X99922440Y-38775000D01*
X99922440Y-38427361D01*
X100589802Y-37760000D01*
X101702560Y-37760000D01*
X101702560Y-37850000D01*
X101751843Y-38097765D01*
X101892191Y-38307809D01*
X102102235Y-38448157D01*
X102147619Y-38457184D01*
X102129375Y-38469375D01*
X101801161Y-38960582D01*
X101685908Y-39540000D01*
X101801161Y-40119418D01*
X102129375Y-40610625D01*
X102448478Y-40823843D01*
X102318642Y-40884817D01*
X101928355Y-41313076D01*
X101758524Y-41723110D01*
X101879845Y-41953000D01*
X103073000Y-41953000D01*
X103073000Y-41933000D01*
X103327000Y-41933000D01*
X103327000Y-41953000D01*
X103347000Y-41953000D01*
X103347000Y-42207000D01*
X103327000Y-42207000D01*
X103327000Y-43400819D01*
X103556892Y-43521486D01*
X104081358Y-43275183D01*
X104265000Y-43073674D01*
X104265000Y-59265000D01*
X82127000Y-59265000D01*
X82127000Y-56155431D01*
X99365000Y-56155431D01*
X99365000Y-57044569D01*
X99705259Y-57866026D01*
X100333974Y-58494741D01*
X101155431Y-58835000D01*
X102044569Y-58835000D01*
X102866026Y-58494741D01*
X103494741Y-57866026D01*
X103835000Y-57044569D01*
X103835000Y-56155431D01*
X103494741Y-55333974D01*
X102866026Y-54705259D01*
X102044569Y-54365000D01*
X101155431Y-54365000D01*
X100333974Y-54705259D01*
X99705259Y-55333974D01*
X99365000Y-56155431D01*
X82127000Y-56155431D01*
X82127000Y-22955431D01*
X99365000Y-22955431D01*
X99365000Y-23844569D01*
X99705259Y-24666026D01*
X100333974Y-25294741D01*
X101155431Y-25635000D01*
X102044569Y-25635000D01*
X102866026Y-25294741D01*
X103494741Y-24666026D01*
X103835000Y-23844569D01*
X103835000Y-22955431D01*
X103494741Y-22133974D01*
X102866026Y-21505259D01*
X102044569Y-21165000D01*
X101155431Y-21165000D01*
X100333974Y-21505259D01*
X99705259Y-22133974D01*
X99365000Y-22955431D01*
X82127000Y-22955431D01*
X82127000Y-20735000D01*
X104265001Y-20735000D01*
X104265001Y-34780806D01*
G36*
X87240000Y-40950153D02*
X87225112Y-41025000D01*
X87240000Y-41099847D01*
X87240000Y-41099851D01*
X87284096Y-41321536D01*
X87452071Y-41572929D01*
X87515530Y-41615331D01*
X89840060Y-43939863D01*
X89840060Y-44237500D01*
X89907422Y-44576152D01*
X90081993Y-44837415D01*
X89957422Y-45023848D01*
X89890060Y-45362500D01*
X89890060Y-45837500D01*
X89957422Y-46176152D01*
X90149253Y-46463247D01*
X90436348Y-46655078D01*
X90775000Y-46722440D01*
X91375000Y-46722440D01*
X91713652Y-46655078D01*
X91852067Y-46562592D01*
X91902802Y-46613327D01*
X92136191Y-46710000D01*
X92514250Y-46710000D01*
X92673000Y-46551250D01*
X92673000Y-45727000D01*
X92927000Y-45727000D01*
X92927000Y-46551250D01*
X93085750Y-46710000D01*
X93463809Y-46710000D01*
X93697198Y-46613327D01*
X93875827Y-46434699D01*
X93972500Y-46201310D01*
X93972500Y-45885750D01*
X93813750Y-45727000D01*
X92927000Y-45727000D01*
X92673000Y-45727000D01*
X92653000Y-45727000D01*
X92653000Y-45473000D01*
X92673000Y-45473000D01*
X92673000Y-44127000D01*
X92927000Y-44127000D01*
X92927000Y-45473000D01*
X93813750Y-45473000D01*
X93972500Y-45314250D01*
X93972500Y-44998690D01*
X93875827Y-44765301D01*
X93860798Y-44750272D01*
X93922500Y-44601310D01*
X93922500Y-44285750D01*
X93763750Y-44127000D01*
X92927000Y-44127000D01*
X92673000Y-44127000D01*
X92653000Y-44127000D01*
X92653000Y-43873000D01*
X92673000Y-43873000D01*
X92673000Y-43048750D01*
X92927000Y-43048750D01*
X92927000Y-43873000D01*
X93763750Y-43873000D01*
X93922500Y-43714250D01*
X93922500Y-43398690D01*
X93825827Y-43165301D01*
X93647198Y-42986673D01*
X93413809Y-42890000D01*
X93085750Y-42890000D01*
X92927000Y-43048750D01*
X92673000Y-43048750D01*
X92514250Y-42890000D01*
X92186191Y-42890000D01*
X91952802Y-42986673D01*
X91821958Y-43117517D01*
X91563652Y-42944922D01*
X91225000Y-42877560D01*
X90927363Y-42877560D01*
X89440552Y-41390750D01*
X89915000Y-41390750D01*
X89915000Y-41531310D01*
X90011673Y-41764699D01*
X90190302Y-41943327D01*
X90423691Y-42040000D01*
X91239250Y-42040000D01*
X91398000Y-41881250D01*
X91398000Y-41232000D01*
X91652000Y-41232000D01*
X91652000Y-41881250D01*
X91810750Y-42040000D01*
X92626309Y-42040000D01*
X92859698Y-41943327D01*
X93038327Y-41764699D01*
X93135000Y-41531310D01*
X93135000Y-41390750D01*
X92976250Y-41232000D01*
X91652000Y-41232000D01*
X91398000Y-41232000D01*
X90073750Y-41232000D01*
X89915000Y-41390750D01*
X89440552Y-41390750D01*
X88760000Y-40710199D01*
X88760000Y-39219802D01*
X89859671Y-40319473D01*
X89902071Y-40382929D01*
X90008149Y-40453808D01*
X89915000Y-40678690D01*
X89915000Y-40819250D01*
X90073750Y-40978000D01*
X91398000Y-40978000D01*
X91398000Y-40958000D01*
X91652000Y-40958000D01*
X91652000Y-40978000D01*
X92976250Y-40978000D01*
X93135000Y-40819250D01*
X93135000Y-40678690D01*
X93038327Y-40445301D01*
X93005209Y-40412183D01*
X93086738Y-40290167D01*
X93147440Y-39985000D01*
X93147440Y-39685000D01*
X93086738Y-39379833D01*
X93006668Y-39260000D01*
X93185199Y-39260000D01*
X93909671Y-39984473D01*
X93952071Y-40047929D01*
X94203463Y-40215904D01*
X94425148Y-40260000D01*
X94425152Y-40260000D01*
X94500000Y-40274888D01*
X94574848Y-40260000D01*
X94907261Y-40260000D01*
X94913262Y-40290167D01*
X95033422Y-40470000D01*
X94913262Y-40649833D01*
X94852560Y-40955000D01*
X94852560Y-41255000D01*
X94913262Y-41560167D01*
X95086125Y-41818875D01*
X95344833Y-41991738D01*
X95650000Y-42052440D01*
X97015011Y-42052440D01*
X97015010Y-43910188D01*
X93185199Y-47740000D01*
X89089802Y-47740000D01*
X88459802Y-47110000D01*
X88663809Y-47110000D01*
X88897198Y-47013327D01*
X89075827Y-46834699D01*
X89172500Y-46601310D01*
X89172500Y-46285750D01*
X89013750Y-46127000D01*
X88127000Y-46127000D01*
X88127000Y-46147000D01*
X87873000Y-46147000D01*
X87873000Y-46127000D01*
X87853000Y-46127000D01*
X87853000Y-45873000D01*
X87873000Y-45873000D01*
X87873000Y-45048750D01*
X88127000Y-45048750D01*
X88127000Y-45873000D01*
X89013750Y-45873000D01*
X89172500Y-45714250D01*
X89172500Y-45398690D01*
X89075827Y-45165301D01*
X88897198Y-44986673D01*
X88663809Y-44890000D01*
X88285750Y-44890000D01*
X88127000Y-45048750D01*
X87873000Y-45048750D01*
X87714250Y-44890000D01*
X87336191Y-44890000D01*
X87102802Y-44986673D01*
X87052067Y-45037408D01*
X86913652Y-44944922D01*
X86575000Y-44877560D01*
X86380000Y-44877560D01*
X86380000Y-43072092D01*
X86682481Y-42869981D01*
X86977542Y-42428391D01*
X87081154Y-41907500D01*
X86977542Y-41386609D01*
X86682481Y-40945019D01*
X86649995Y-40923312D01*
X86814870Y-40764595D01*
X87012716Y-40335829D01*
X86889374Y-40129500D01*
X85747000Y-40129500D01*
X85747000Y-40149500D01*
X85493000Y-40149500D01*
X85493000Y-40129500D01*
X85473000Y-40129500D01*
X85473000Y-39875500D01*
X85493000Y-39875500D01*
X85493000Y-39855500D01*
X85747000Y-39855500D01*
X85747000Y-39875500D01*
X86889374Y-39875500D01*
X87012716Y-39669171D01*
X86814870Y-39240405D01*
X86649995Y-39081688D01*
X86682481Y-39059981D01*
X86977542Y-38618391D01*
X87081154Y-38097500D01*
X87033645Y-37858657D01*
X87229483Y-37662819D01*
X87240001Y-37655791D01*
X87240000Y-40950153D01*
X87240000Y-40950153D01*
G37*
X87240000Y-40950153D02*
X87225112Y-41025000D01*
X87240000Y-41099847D01*
X87240000Y-41099851D01*
X87284096Y-41321536D01*
X87452071Y-41572929D01*
X87515530Y-41615331D01*
X89840060Y-43939863D01*
X89840060Y-44237500D01*
X89907422Y-44576152D01*
X90081993Y-44837415D01*
X89957422Y-45023848D01*
X89890060Y-45362500D01*
X89890060Y-45837500D01*
X89957422Y-46176152D01*
X90149253Y-46463247D01*
X90436348Y-46655078D01*
X90775000Y-46722440D01*
X91375000Y-46722440D01*
X91713652Y-46655078D01*
X91852067Y-46562592D01*
X91902802Y-46613327D01*
X92136191Y-46710000D01*
X92514250Y-46710000D01*
X92673000Y-46551250D01*
X92673000Y-45727000D01*
X92927000Y-45727000D01*
X92927000Y-46551250D01*
X93085750Y-46710000D01*
X93463809Y-46710000D01*
X93697198Y-46613327D01*
X93875827Y-46434699D01*
X93972500Y-46201310D01*
X93972500Y-45885750D01*
X93813750Y-45727000D01*
X92927000Y-45727000D01*
X92673000Y-45727000D01*
X92653000Y-45727000D01*
X92653000Y-45473000D01*
X92673000Y-45473000D01*
X92673000Y-44127000D01*
X92927000Y-44127000D01*
X92927000Y-45473000D01*
X93813750Y-45473000D01*
X93972500Y-45314250D01*
X93972500Y-44998690D01*
X93875827Y-44765301D01*
X93860798Y-44750272D01*
X93922500Y-44601310D01*
X93922500Y-44285750D01*
X93763750Y-44127000D01*
X92927000Y-44127000D01*
X92673000Y-44127000D01*
X92653000Y-44127000D01*
X92653000Y-43873000D01*
X92673000Y-43873000D01*
X92673000Y-43048750D01*
X92927000Y-43048750D01*
X92927000Y-43873000D01*
X93763750Y-43873000D01*
X93922500Y-43714250D01*
X93922500Y-43398690D01*
X93825827Y-43165301D01*
X93647198Y-42986673D01*
X93413809Y-42890000D01*
X93085750Y-42890000D01*
X92927000Y-43048750D01*
X92673000Y-43048750D01*
X92514250Y-42890000D01*
X92186191Y-42890000D01*
X91952802Y-42986673D01*
X91821958Y-43117517D01*
X91563652Y-42944922D01*
X91225000Y-42877560D01*
X90927363Y-42877560D01*
X89440552Y-41390750D01*
X89915000Y-41390750D01*
X89915000Y-41531310D01*
X90011673Y-41764699D01*
X90190302Y-41943327D01*
X90423691Y-42040000D01*
X91239250Y-42040000D01*
X91398000Y-41881250D01*
X91398000Y-41232000D01*
X91652000Y-41232000D01*
X91652000Y-41881250D01*
X91810750Y-42040000D01*
X92626309Y-42040000D01*
X92859698Y-41943327D01*
X93038327Y-41764699D01*
X93135000Y-41531310D01*
X93135000Y-41390750D01*
X92976250Y-41232000D01*
X91652000Y-41232000D01*
X91398000Y-41232000D01*
X90073750Y-41232000D01*
X89915000Y-41390750D01*
X89440552Y-41390750D01*
X88760000Y-40710199D01*
X88760000Y-39219802D01*
X89859671Y-40319473D01*
X89902071Y-40382929D01*
X90008149Y-40453808D01*
X89915000Y-40678690D01*
X89915000Y-40819250D01*
X90073750Y-40978000D01*
X91398000Y-40978000D01*
X91398000Y-40958000D01*
X91652000Y-40958000D01*
X91652000Y-40978000D01*
X92976250Y-40978000D01*
X93135000Y-40819250D01*
X93135000Y-40678690D01*
X93038327Y-40445301D01*
X93005209Y-40412183D01*
X93086738Y-40290167D01*
X93147440Y-39985000D01*
X93147440Y-39685000D01*
X93086738Y-39379833D01*
X93006668Y-39260000D01*
X93185199Y-39260000D01*
X93909671Y-39984473D01*
X93952071Y-40047929D01*
X94203463Y-40215904D01*
X94425148Y-40260000D01*
X94425152Y-40260000D01*
X94500000Y-40274888D01*
X94574848Y-40260000D01*
X94907261Y-40260000D01*
X94913262Y-40290167D01*
X95033422Y-40470000D01*
X94913262Y-40649833D01*
X94852560Y-40955000D01*
X94852560Y-41255000D01*
X94913262Y-41560167D01*
X95086125Y-41818875D01*
X95344833Y-41991738D01*
X95650000Y-42052440D01*
X97015011Y-42052440D01*
X97015010Y-43910188D01*
X93185199Y-47740000D01*
X89089802Y-47740000D01*
X88459802Y-47110000D01*
X88663809Y-47110000D01*
X88897198Y-47013327D01*
X89075827Y-46834699D01*
X89172500Y-46601310D01*
X89172500Y-46285750D01*
X89013750Y-46127000D01*
X88127000Y-46127000D01*
X88127000Y-46147000D01*
X87873000Y-46147000D01*
X87873000Y-46127000D01*
X87853000Y-46127000D01*
X87853000Y-45873000D01*
X87873000Y-45873000D01*
X87873000Y-45048750D01*
X88127000Y-45048750D01*
X88127000Y-45873000D01*
X89013750Y-45873000D01*
X89172500Y-45714250D01*
X89172500Y-45398690D01*
X89075827Y-45165301D01*
X88897198Y-44986673D01*
X88663809Y-44890000D01*
X88285750Y-44890000D01*
X88127000Y-45048750D01*
X87873000Y-45048750D01*
X87714250Y-44890000D01*
X87336191Y-44890000D01*
X87102802Y-44986673D01*
X87052067Y-45037408D01*
X86913652Y-44944922D01*
X86575000Y-44877560D01*
X86380000Y-44877560D01*
X86380000Y-43072092D01*
X86682481Y-42869981D01*
X86977542Y-42428391D01*
X87081154Y-41907500D01*
X86977542Y-41386609D01*
X86682481Y-40945019D01*
X86649995Y-40923312D01*
X86814870Y-40764595D01*
X87012716Y-40335829D01*
X86889374Y-40129500D01*
X85747000Y-40129500D01*
X85747000Y-40149500D01*
X85493000Y-40149500D01*
X85493000Y-40129500D01*
X85473000Y-40129500D01*
X85473000Y-39875500D01*
X85493000Y-39875500D01*
X85493000Y-39855500D01*
X85747000Y-39855500D01*
X85747000Y-39875500D01*
X86889374Y-39875500D01*
X87012716Y-39669171D01*
X86814870Y-39240405D01*
X86649995Y-39081688D01*
X86682481Y-39059981D01*
X86977542Y-38618391D01*
X87081154Y-38097500D01*
X87033645Y-37858657D01*
X87229483Y-37662819D01*
X87240001Y-37655791D01*
X87240000Y-40950153D01*
G04 #@! TD*
M02*
